;TYPE=PLATED
;Layer: PTH_Through
;EasyEDA Pro v3.2.148, 2026-07-23 02:23:22
;Gerber Generator version 0.3
M48
METRIC,LZ,0000.00000
;Hole size 1 = 0.30480 METRIC
T01C0.30480
;Hole size 2 = 0.60000 METRIC
T02C0.60000
;Hole size 3 = 0.70002 METRIC
T03C0.70002
%
G05
G90
T01
X78.976Y21.33902
X75.776Y-1.472
X78.3918Y20.80892
X74.304Y-1.472
X95.296Y28.672
X95.168Y6.976
X83.648Y23.36
X82.88Y24.768
X77.824Y25.71051
X60.416Y13.76
X57.088Y6.78713
X60.48Y35.136
X57.344Y28.12313
X76.8Y4.48
X73.792Y4.48
T02
X99.91996Y27.34507G85X100.81996Y27.34507
X99.91997Y35.99509G85X100.82Y35.99509
X104.27003Y27.34502G85X104.87003Y27.34502
X104.27003Y35.99499G85X104.87003Y35.99499
X99.91496Y5.62006G85X100.81496Y5.62006
X99.91497Y14.27009G85X100.815Y14.27009
X104.26503Y5.62001G85X104.86503Y5.62001
X104.26503Y14.26998G85X104.86503Y14.26998
X70.70706Y-0.14996G85X70.70706Y-1.04996
X79.35709Y-0.14997G85X79.35709Y-1.05
X70.70701Y-4.50003G85X70.70701Y-5.10003
X79.35698Y-4.50003G85X79.35698Y-5.10003
T03
X46.92402Y3.83692G85X45.12405Y3.83692
X46.92402Y16.73708G85X45.12405Y16.73708
X47.17802Y25.17292G85X45.37805Y25.17292
X47.17802Y38.07308G85X45.37805Y38.07308
M30