G04 Layer: BottomSilkscreenLayer*
G04 EasyEDA Pro v3.2.148, 2026-07-23 02:23:22*
G04 Gerber Generator version 0.3*
G04 Scale: 100 percent, Rotated: No, Reflected: No*
G04 Dimensions in millimeters*
G04 Leading zeros omitted, absolute positions, 4 integers and 5 decimals*
G04 Generated by one-click*
G04 Object Configs: Pad,Via,Track,Text,Image,Dimension,BoardOutline,BoardCutout,CopperFilled,SolidRegion,FPCStiffener,Line,PlaneZone,ComponentProperty,ComponentSilkscreen,TearDrop*
G04 Layer Configs: 1,2,3,4,5,6,7,8,9,10,11,13,14,56*
G04 Copper Areas: 0*
%FSLAX45Y45*%
%MOMM*%
%ADD10C,1.0*%
%ADD11C,0.254*%
%ADD12C,0.4981*%
G75*


G04 PolygonModel Start*
G54D10*
G01X7504621Y-316291D02*
G01X4754215Y-324594D01*
G01X4754215Y4711924D01*
G01X5799447Y4711924D01*
G01X5831246Y4622632D01*
G01X10254950Y-307119D02*
G01X9447446Y-309997D01*
G01X10259342Y429511D02*
G01X10256825Y-305092D01*
G01X9172473Y4600532D02*
G01X9205217Y4696965D01*
G01X9727034Y4705251D01*
G01X9602810Y5028486D02*
G01X9261660Y5037038D01*
G01X9255646Y5199918D01*
G01X5744939Y5201519D02*
G01X5744939Y5022962D01*
G01X4754215Y5022962D01*
G01X4754215Y5380081D01*
G01X5744939Y5380081D01*
G01X5744939Y5201519D01*
G01X5934954Y5862947D02*
G01X5859287Y5714157D01*
G01X5349961Y5714337D01*
G01X9672561Y5714157D02*
G01X9141978Y5714157D01*
G01X9080746Y5843755D01*
G01X10267513Y3316239D02*
G01X10264892Y2197024D01*
G01X7215749Y3121797D02*
G03X6995165Y3103870I12186J-1515967D01*
G01X7462792Y3110804D02*
G03X7215749Y3121797I-228114J-2344958D01*
G01X7713464Y3073301D02*
G03X7462792Y3110804I-488892J-2411270D01*
G01X7945247Y3011449D02*
G03X7713464Y3073301I-624407J-1874687D01*
G01X8060385Y2968493D02*
G03X7945247Y3011449I-661029J-1596003D01*
G01X8143982Y2925915D02*
G03X8060385Y2968493I-312800J-510787D01*
G01X8202816Y2880843D02*
G03X8143982Y2925915I-244796J-258603D01*
G01X8240832Y2830441D02*
G03X8202816Y2880843I-168887J-87848D01*
G01X8251327Y2795222D02*
G03X8240832Y2830441I-96770J-9663D01*
G01X8247941Y2758758D02*
G03X8251327Y2795222I-92071J26938D01*
G01X8229704Y2719802D02*
G03X8247941Y2758758I-117022J78531D01*
G01X8195945Y2677000D02*
G03X8229704Y2719802I-261064J240625D01*
G01X8168917Y2649614D02*
G03X8195945Y2677000I-387875J409834D01*
G01X8149600Y2635634D02*
G03X8168917Y2649614I-43247J80091D01*
G01X8129877Y2628943D02*
G03X8149600Y2635634I-9849J61451D01*
G01X8102989Y2626802D02*
G03X8129877Y2628943I-1J169914D01*
G01X8074784Y2630061D02*
G03X8102989Y2626802I28203J120409D01*
G01X8013946Y2645207D02*
G03X8074784Y2630061I576241J2184867D01*
G01X7941927Y2665466D02*
G03X8013946Y2645207I655289J2191357D01*
G01X7865417Y2689456D02*
G03X7941927Y2665466I940784J2866352D01*
G01X7683503Y2745202D02*
G02X7865417Y2689456I-1316206J-4619892D01*
G01X7545570Y2777597D02*
G02X7683503Y2745202I-276450J-1486912D01*
G01X7418327Y2794152D02*
G02X7545570Y2777597I-88309J-1175984D01*
G01X7272985Y2799601D02*
G02X7418327Y2794152I22J-1940731D01*
G01X7093331Y2790182D02*
G02X7272985Y2799601I179638J-1708436D01*
G01X6918096Y2762024D02*
G02X7093331Y2790182I345478J-1590631D01*
G01X6754139Y2716540D02*
G02X6918096Y2762024I482266J-1420189D01*
G01X6608295Y2655240D02*
G02X6754139Y2716540I506838J-1001711D01*
G01X6554239Y2631552D02*
G03X6608295Y2655240I-186422J498938D01*
G01X6510645Y2621163D02*
G03X6554239Y2631552I-20019J180667D01*
G01X6472634Y2622898D02*
G03X6510645Y2621163I24522J119999D01*
G01X6436131Y2636159D02*
G03X6472634Y2622898I63063J116714D01*
G01X6382187Y2680142D02*
G03X6436131Y2636159I142153J119277D01*
G01X6350381Y2739588D02*
G03X6382187Y2680142I157549J46063D01*
G01X6345982Y2804503D02*
G03X6350381Y2739588I149592J-22469D01*
G01X6369467Y2864183D02*
G03X6345982Y2804503I118137J-80949D01*
G01X6446114Y2933438D02*
G03X6369467Y2864183I106123J-194490D01*
G01X6593182Y3001361D02*
G03X6446114Y2933438I433877J-1132634D01*
G01X6781569Y3060710D02*
G03X6593182Y3001361I394732J-1581613D01*
G01X6995165Y3103870D02*
G03X6781569Y3060710I370117J-2381820D01*
G01X7819459Y5528404D02*
G02X7864610Y5507693I-32267J-129913D01*
G01X7762293Y5535419D02*
G02X7819459Y5528404I-191J-237966D01*
G01X7702032Y5528460D02*
G02X7762293Y5535419I60049J-255578D01*
G01X7647633Y5507871D02*
G02X7702032Y5528460I105277J-195994D01*
G01X7611135Y5468958D02*
G02X7647633Y5507871I76099J-34803D01*
G01X7590561Y5399776D02*
G02X7611135Y5468958I255891J-38449D01*
G01X7589693Y5325750D02*
G02X7590561Y5399776I268121J33872D01*
G01X7612187Y5271961D02*
G02X7589693Y5325750I85771J67467D01*
G01X7623967Y5258913D02*
G02X7612187Y5271961I90013J93111D01*
G01X7639616Y5244963D02*
G02X7623967Y5258913I164973J200821D01*
G01X7656424Y5232253D02*
G02X7639616Y5244963I149333J214937D01*
G01X7671786Y5222997D02*
G02X7656424Y5232253I63434J122658D01*
G01X7727376Y5206357D02*
G02X7671786Y5222997I16320J155702D01*
G01X7793685Y5207808D02*
G02X7727376Y5206357I-38865J260335D01*
G01X7855397Y5225405D02*
G02X7793685Y5207808I-98387J228026D01*
G01X7897111Y5256639D02*
G02X7855397Y5225405I-85979J71355D01*
G01X7917558Y5306898D02*
G02X7897111Y5256639I-89671J7192D01*
G01X7915613Y5386794D02*
G02X7917558Y5306898I-380283J-49232D01*
G01X7897160Y5464500D02*
G02X7915613Y5386794I-361603J-126915D01*
G01X7864610Y5507693D02*
G02X7897160Y5464500I-51545J-72706D01*
G01X7703249Y5858391D02*
G03X7645728Y5848797I12384J-251491D01*
G01X7775418Y5857461D02*
G03X7703249Y5858391I-43565J-580263D01*
G01X7850162Y5847260D02*
G03X7775418Y5857461I-121253J-609531D01*
G01X7916080Y5828505D02*
G03X7850162Y5847260I-148735J-397533D01*
G01X8059623Y5744220D02*
G03X7916080Y5828505I-313073J-368810D01*
G01X8173649Y5612867D02*
G03X8059623Y5744220I-485552J-306331D01*
G01X8239717Y5458661D02*
G03X8173649Y5612867I-516829J-130174D01*
G01X8244408Y5308077D02*
G03X8239717Y5458661I-346163J64580D01*
G01X8174627Y5134750D02*
G03X8244408Y5308077I-396355J260283D01*
G01X8039001Y4986967D02*
G03X8174627Y5134750I-385881J490264D01*
G01X7868559Y4893925D02*
G03X8039001Y4986967I-190513J551629D01*
G01X7698313Y4878243D02*
G03X7868559Y4893925I53178J354640D01*
G01X7590681Y4912015D02*
G03X7698313Y4878243I161755J327119D01*
G01X7478641Y4981811D02*
G03X7590681Y4912015I411292J535394D01*
G01X7380138Y5073858D02*
G03X7478641Y4981811I524884J462972D01*
G01X7312797Y5174402D02*
G03X7380138Y5073858I410349J202015D01*
G01X7267877Y5315359D02*
G03X7312797Y5174402I492067J79175D01*
G01X7271062Y5453278D02*
G03X7267877Y5315359I371806J-77583D01*
G01X7324143Y5586740D02*
G03X7271062Y5453278I355739J-218773D01*
G01X7425520Y5714594D02*
G03X7324143Y5586740I483767J-487703D01*
G01X7480813Y5765142D02*
G03X7425520Y5714594I592039J-703126D01*
G01X7529993Y5800519D02*
G03X7480813Y5765142I206942J-339552D01*
G01X7582009Y5826717D02*
G03X7529993Y5800519I135865J-334506D01*
G01X7645728Y5848797D02*
G03X7582009Y5826717I179183J-620059D01*
G01X8559338Y-313004D02*
G01X7504610Y-316296D01*
G01X9447451Y-309997D02*
G01X8559338Y-313004D01*
G54D11*
G01X10256284Y-306512D02*
G02X10254950Y-307124I-1340J1161D01*
G01X10256815Y-305095D02*
G02X10256284Y-306512I-2177J7D01*
G54D10*
G01X10261991Y1237506D02*
G01X10259342Y429511D01*
G01X10264892Y2197024D02*
G01X10261991Y1237506D01*
G01X10267521Y4082626D02*
G01X10267513Y3316239D01*
G01X10266390Y4695817D02*
G01X10267521Y4082626D01*
G01X10260531Y4706303D02*
G02X10266390Y4695817I-6492J-10508D01*
G01X10250432Y4709168D02*
G02X10260531Y4706303I13J-19187D01*
G01X10098994Y4708972D02*
G01X10250432Y4709168D01*
G01X9927918Y4707900D02*
G01X10098994Y4708972D01*
G01X9727029Y4705246D02*
G01X9927918Y4707900D01*
G01X9088158Y4400050D02*
G03X9172471Y4600532I-1371624J694806D01*
G01X8969256Y4193791D02*
G03X9088158Y4400050I-1846436J1201824D01*
G01X8827940Y4000297D02*
G03X8969256Y4193791I-1725980J1408890D01*
G01X8676231Y3838128D02*
G03X8827940Y4000297I-1123778J1203342D01*
G01X8491550Y3692589D02*
G03X8676231Y3838128I-773843J1171905D01*
G01X8261741Y3559404D02*
G03X8491550Y3692589I-1025028J2033532D01*
G01X8021457Y3455518D02*
G03X8261741Y3559404I-762051J2092419D01*
G01X7805430Y3399188D02*
G03X8021457Y3455518I-190075J1171350D01*
G01X7692674Y3388777D02*
G03X7805430Y3399188I-19185J823545D01*
G01X7500844Y3387319D02*
G03X7692674Y3388777I49444J6115229D01*
G01X7308936Y3391896D02*
G03X7500844Y3387319I241046J6081128D01*
G01X7195078Y3404121D02*
G03X7308936Y3391896I147570J838071D01*
G01X7018223Y3447877D02*
G03X7195078Y3404121I408514J1271846D01*
G01X6828371Y3519406D02*
G03X7018223Y3447877I816326J1878977D01*
G01X6646319Y3609457D02*
G03X6828371Y3519406I999882J1792375D01*
G01X6493007Y3709142D02*
G03X6646319Y3609457I812103J1081249D01*
G01X6405580Y3779987D02*
G03X6493007Y3709142I1005415J1151361D01*
G01X6313752Y3864646D02*
G03X6405580Y3779987I1615243J1659919D01*
G01X6225713Y3955031D02*
G03X6313752Y3864646I1731269J1598245D01*
G01X6149680Y4043233D02*
G03X6225713Y3955031I1333105J1072305D01*
G01X6051362Y4176319D02*
G03X6149680Y4043233I1666029J1127934D01*
G01X5968393Y4311998D02*
G03X6051362Y4176319I1505431J827378D01*
G01X5896455Y4458117D02*
G03X5968393Y4311998I1657443J725233D01*
G01X5831251Y4622637D02*
G03X5896455Y4458117I2373357J845448D01*
G01X10225862Y5378620D02*
G02X10243297Y5368859I-75J-20584D01*
G01X9748896Y5380098D02*
G01X10225862Y5378620D01*
G01X9271782Y5381112D02*
G01X9748896Y5380098D01*
G01X9254759Y5371437D02*
G02X9271782Y5381112I16992J-10084D01*
G01X9252821Y5364394D02*
G02X9254759Y5371437I13846J-21D01*
G01X9252905Y5317490D02*
G01X9252821Y5364394D01*
G01X9253710Y5262969D02*
G02X9252905Y5317490I2830347J69066D01*
G01X9255643Y5199918D02*
G02X9253710Y5262969I5052861J186461D01*
G01X9845617Y5024349D02*
G02X9602810Y5028484I135811J15105175D01*
G01X10047811Y5025329D02*
G02X9845617Y5024349I-136510J7302581D01*
G01X10213541Y5029627D02*
G02X10047811Y5025329I-379927J11453346D01*
G01X10249797Y5040579D02*
G02X10213541Y5029627I-38696J62611D01*
G01X10256751Y5051181D02*
G02X10249797Y5040579I-14838J2152D01*
G01X10259560Y5080772D02*
G02X10256751Y5051181I-301463J13691D01*
G01X10259974Y5127079D02*
G02X10259560Y5080772I-635479J-17474D01*
G01X10257196Y5203548D02*
G02X10259974Y5127079I-4323636J-195399D01*
G01X10254023Y5263411D02*
G02X10257196Y5203548I-3855603J-234345D01*
G01X10250239Y5315671D02*
G02X10254023Y5263411I-2252246J-189370D01*
G01X10246276Y5359994D02*
G02X10250239Y5315671I-4149558J-393302D01*
G01X10243297Y5368859D02*
G02X10246276Y5359994I-17482J-10809D01*
G01X7577491Y6536715D02*
G02X7779228Y6514295I-79823J-1637040D01*
G01X7377887Y6533441D02*
G02X7577491Y6536715I124904J-1528757D01*
G01X7183702Y6504536D02*
G02X7377887Y6533441I314900J-1448778D01*
G01X6998124Y6450480D02*
G02X7183702Y6504536I481537J-1307561D01*
G01X6865557Y6393612D02*
G02X6998124Y6450480I608765J-1236168D01*
G01X6742405Y6324204D02*
G02X6865557Y6393612I684820J-1071130D01*
G01X6625227Y6239982D02*
G02X6742405Y6324204I832650J-1034847D01*
G01X6510541Y6138746D02*
G02X6625227Y6239982I1165516J-1204776D01*
G01X6323625Y5919760D02*
G02X6510541Y6138746I1237588J-867081D01*
G01X6192672Y5679915D02*
G02X6323625Y5919760I1137648J-465471D01*
G01X6116074Y5412801D02*
G02X6192672Y5679915I1257642J-216107D01*
G01X6090732Y5112692D02*
G02X6116074Y5412801I1754672J2957D01*
G01X6098131Y4929703D02*
G02X6090732Y5112692I2357293J186959D01*
G01X6120440Y4782167D02*
G02X6098131Y4929703I1027250J230784D01*
G01X6163158Y4640456D02*
G02X6120440Y4782167I964056J367900D01*
G01X6233825Y4475759D02*
G02X6163158Y4640456I1983366J948533D01*
G01X6290061Y4368747D02*
G02X6233825Y4475759I1388377J797880D01*
G01X6346787Y4282544D02*
G02X6290061Y4368747I684297J512069D01*
G01X6417793Y4197675D02*
G02X6346787Y4282544I745353J695738D01*
G01X6519931Y4093418D02*
G02X6417793Y4197675I2108432J2167752D01*
G01X6617249Y4004518D02*
G02X6519931Y4093418I1370774J1598283D01*
G01X6705305Y3936589D02*
G02X6617249Y4004518I610641J882606D01*
G01X6797192Y3880099D02*
G02X6705305Y3936589I476071J877363D01*
G01X6905930Y3826358D02*
G02X6797192Y3880099I650450J1452964D01*
G01X7069955Y3763025D02*
G02X6905930Y3826358I521106J1593694D01*
G01X7228332Y3722444D02*
G02X7069955Y3763025I231711J1233630D01*
G01X7391136Y3702690D02*
G02X7228332Y3722444I70505J1261858D01*
G01X7568471Y3701910D02*
G02X7391136Y3702690I-81091J1723337D01*
G01X7893416Y3751311D02*
G02X7568471Y3701910I-399461J1534153D01*
G01X8189412Y3866058D02*
G02X7893416Y3751311I-644242J1222716D01*
G01X8445955Y4042552D02*
G02X8189412Y3866058I-874711J996736D01*
G01X8654545Y4274160D02*
G02X8445955Y4042552I-1086622J768898D01*
G01X8779515Y4476234D02*
G02X8654545Y4274160I-1691406J906347D01*
G01X8857671Y4664202D02*
G02X8779515Y4476234I-996334J304038D01*
G01X8899406Y4868405D02*
G02X8857671Y4664202I-1097080J117853D01*
G01X8912926Y5120876D02*
G02X8899406Y4868405I-2363914J-4D01*
G01X8909322Y5275570D02*
G02X8912926Y5120876I-3318177J-154700D01*
G01X8897950Y5397505D02*
G02X8909322Y5275570I-1307291J-183415D01*
G01X8877084Y5503644D02*
G02X8897950Y5397505I-958335J-243522D01*
G01X8844501Y5608594D02*
G02X8877084Y5503644I-988029J-364279D01*
G01X8673381Y5938916D02*
G02X8844501Y5608594I-1231752J-847580D01*
G01X8428652Y6209949D02*
G02X8673381Y5938916I-900324J-1058951D01*
G01X8124541Y6405448D02*
G02X8428652Y6209949I-577008J-1231858D01*
G01X7779228Y6514295D02*
G02X8124541Y6405448I-235048J-1347855D01*
G01X7248769Y7865557D02*
G02X7703906Y7867594I239694J-2708005D01*
G01X6799804Y7787658D02*
G02X7248769Y7865557I689763J-2642650D01*
G01X6367983Y7635672D02*
G02X6799804Y7787658I1128209J-2516018D01*
G01X5963813Y7413407D02*
G02X6367983Y7635672I1566737J-2370367D01*
G01X5576623Y7102500D02*
G02X5963813Y7413407I1869217J-1931299D01*
G01X5252039Y6724863D02*
G02X5576623Y7102500I2214771J-1575315D01*
G01X5001461Y6293874D02*
G02X5252039Y6724863I2470615J-1148084D01*
G01X4833805Y5824708D02*
G02X5001461Y6293874I2632041J-676015D01*
G01X4822127Y5776537D02*
G02X4833805Y5824708I1786147J-407544D01*
G01X4817971Y5749646D02*
G02X4822127Y5776537I190918J-15736D01*
G01X4819035Y5733372D02*
G02X4817971Y5749646I54227J11718D01*
G01X4825517Y5724083D02*
G02X4819035Y5733372I7853J12386D01*
G01X4838443Y5720184D02*
G02X4825517Y5724083I523J25110D01*
G01X4985799Y5717268D02*
G01X4838443Y5720184D01*
G01X5153612Y5715091D02*
G02X4985799Y5717268I110179J14963522D01*
G01X5349954Y5714332D02*
G01X5153612Y5715091D01*
G01X6011311Y6001916D02*
G03X5934956Y5862952I2131336J-1261545D01*
G01X6088631Y6119995D02*
G03X6011311Y6001916I1263804J-911912D01*
G01X6175474Y6229393D02*
G03X6088631Y6119995I1147133J-999790D01*
G01X6280612Y6341994D02*
G03X6175474Y6229393I1589908J-1589924D01*
G01X6395936Y6449512D02*
G03X6280612Y6341994I1476615J-1699419D01*
G01X6507899Y6537871D02*
G03X6395936Y6449512I878468J-1228258D01*
G01X6627147Y6614866D02*
G03X6507899Y6537871I749719J-1291987D01*
G01X6764452Y6688044D02*
G03X6627147Y6614866I943356J-1935449D01*
G01X6972041Y6778064D02*
G03X6764452Y6688044I909991J-2382829D01*
G01X7146580Y6828259D02*
G03X6972041Y6778064I208155J-1052340D01*
G01X7334771Y6850210D02*
G03X7146580Y6828259I44233J-1196913D01*
G01X7588128Y6850977D02*
G03X7334771Y6850210I-115373J-3734588D01*
G01X7737721Y6843339D02*
G03X7588128Y6850977I-264526J-3712211D01*
G01X7847401Y6830111D02*
G03X7737721Y6843339I-189975J-1113827D01*
G01X7946807Y6807424D02*
G03X7847401Y6830111I-254067J-884090D01*
G01X8061477Y6770238D02*
G03X7946807Y6807424I-608304J-1680453D01*
G01X8381749Y6618011D02*
G03X8061477Y6770238I-947365J-1580140D01*
G01X8664014Y6408326D02*
G03X8381749Y6618011I-1198500J-1318524D01*
G01X8899385Y6147491D02*
G03X8664014Y6408326I-1431750J-1055364D01*
G01X9080744Y5843755D02*
G03X8899385Y6147491I-1652741J-780828D01*
G01X9876025Y5714556D02*
G01X9672569Y5714157D01*
G01X10047300Y5715792D02*
G01X9876025Y5714556D01*
G01X10200902Y5717436D02*
G01X10047300Y5715792D01*
G01X10203165Y5719724D02*
G02X10200902Y5717436I-2289J0D01*
G01X10202624Y5723969D02*
G02X10203165Y5719724I-16393J-4246D01*
G01X10193236Y5760090D02*
G01X10202624Y5723969D01*
G01X10182324Y5801380D02*
G01X10193236Y5760090D01*
G01X10169370Y5849323D02*
G01X10182324Y5801380D01*
G01X10040061Y6221103D02*
G02X10169370Y5849323I-2636303J-1125311D01*
G01X9863247Y6563545D02*
G02X10040061Y6221103I-2246839J-1376986D01*
G01X9637304Y6878317D02*
G02X9863247Y6563545I-2046472J-1707433D01*
G01X9361470Y7167580D02*
G02X9637304Y6878317I-2040045J-2221481D01*
G01X9234137Y7279244D02*
G02X9361470Y7167580I-2371975J-2833257D01*
G01X9117409Y7370366D02*
G02X9234137Y7279244I-1273497J-1751681D01*
G01X8997594Y7451166D02*
G02X9117409Y7370366I-1084286J-1737068D01*
G01X8861087Y7531362D02*
G02X8997594Y7451166I-1423661J-2579608D01*
G01X8594100Y7659868D02*
G02X8861087Y7531362I-1018915J-2458520D01*
G01X8313468Y7758455D02*
G02X8594100Y7659868I-754055J-2595142D01*
G01X8017314Y7827488D02*
G02X8313468Y7758455I-493213J-2785706D01*
G01X7703906Y7867594D02*
G02X8017314Y7827488I-261185J-3285599D01*

M02*

