G04 Layer: TopSilkscreenLayer*
G04 EasyEDA Pro v3.2.148, 2026-07-23 02:23:22*
G04 Gerber Generator version 0.3*
G04 Scale: 100 percent, Rotated: No, Reflected: No*
G04 Dimensions in millimeters*
G04 Leading zeros omitted, absolute positions, 4 integers and 5 decimals*
G04 Generated by one-click*
G04 Object Configs: Pad,Via,Track,Text,Image,Dimension,BoardOutline,BoardCutout,CopperFilled,SolidRegion,FPCStiffener,Line,PlaneZone,ComponentProperty,ComponentSilkscreen,TearDrop*
G04 Layer Configs: 1,2,3,4,5,6,7,8,9,10,11,13,14,56*
G04 Copper Areas: 0*
%FSLAX45Y45*%
%MOMM*%
%ADD10C,1.0*%
%ADD11C,0.254*%
%ADD12C,0.2737*%
G75*


G04 PolygonModel Start*
G54D10*
G01X7508621Y-319778D02*
G01X4758220Y-328082D01*
G01X4758220Y4708436D01*
G01X5803453Y4708436D01*
G01X5835259Y4619150D01*
G01X10260685Y-309336D02*
G01X9469959Y-313484D01*
G01X10263348Y426024D02*
G01X10260825Y-308580D01*
G01X9176482Y4597044D02*
G01X9209225Y4693478D01*
G01X9731040Y4701764D01*
G01X9606818Y5024999D02*
G01X9265661Y5033551D01*
G01X9259651Y5196431D01*
G01X5748939Y5198031D02*
G01X5748939Y5019474D01*
G01X4758220Y5019474D01*
G01X4758220Y5376593D01*
G01X5748939Y5376593D01*
G01X5748939Y5198031D01*
G01X5938962Y5859465D02*
G01X5863300Y5710669D01*
G01X5353962Y5710850D01*
G01X9676575Y5710669D02*
G01X9145979Y5710669D01*
G01X9084755Y5840268D01*
G01X7707914Y7864109D02*
G02X8021323Y7824003I-261185J-3285599D01*
G01X8021323Y7824003D02*
G02X8317476Y7754971I-493213J-2785706D01*
G01X8317476Y7754971D02*
G02X8598108Y7656383I-754055J-2595142D01*
G01X8598108Y7656383D02*
G02X8865095Y7527877I-1018915J-2458520D01*
G01X8865095Y7527877D02*
G02X9001603Y7447681I-1423661J-2579608D01*
G01X9001603Y7447681D02*
G02X9121417Y7366881I-1084286J-1737068D01*
G01X9121417Y7366881D02*
G02X9238145Y7275759I-1273497J-1751681D01*
G01X9238145Y7275759D02*
G02X9365478Y7164095I-2371975J-2833257D01*
G01X9365478Y7164095D02*
G02X9641312Y6874833I-2040045J-2221481D01*
G01X9641312Y6874833D02*
G02X9867255Y6560061I-2046472J-1707433D01*
G01X9867255Y6560061D02*
G02X10044069Y6217618I-2246839J-1376986D01*
G01X10044069Y6217618D02*
G02X10173378Y5845838I-2636303J-1125311D01*
G01X10173378Y5845838D02*
G01X10186332Y5797895D01*
G01X10186332Y5797895D02*
G01X10197244Y5756605D01*
G01X10197244Y5756605D02*
G01X10206632Y5720484D01*
G01X10206632Y5720484D02*
G02X10207173Y5716240I-16393J-4246D01*
G01X10207173Y5716240D02*
G02X10204910Y5713951I-2289J0D01*
G01X10204910Y5713951D02*
G01X10051308Y5712308D01*
G01X10051308Y5712308D02*
G01X9880034Y5711071D01*
G01X9880034Y5711071D02*
G01X9676577Y5710672D01*
G01X9084752Y5840270D02*
G03X8903393Y6144006I-1652741J-780828D01*
G01X8903393Y6144006D02*
G03X8668022Y6404841I-1431750J-1055364D01*
G01X8668022Y6404841D02*
G03X8385757Y6614526I-1198500J-1318524D01*
G01X8385757Y6614526D02*
G03X8065486Y6766753I-947365J-1580140D01*
G01X8065486Y6766753D02*
G03X7950815Y6803939I-608304J-1680453D01*
G01X7950815Y6803939D02*
G03X7851409Y6826626I-254067J-884090D01*
G01X7851409Y6826626D02*
G03X7741730Y6839854I-189975J-1113827D01*
G01X7741730Y6839854D02*
G03X7592136Y6847492I-264526J-3712211D01*
G01X7592136Y6847492D02*
G03X7338779Y6846725I-115373J-3734588D01*
G01X7338779Y6846725D02*
G03X7150588Y6824774I44233J-1196913D01*
G01X7150588Y6824774D02*
G03X6976049Y6774579I208155J-1052340D01*
G01X6976049Y6774579D02*
G03X6768460Y6684559I909991J-2382829D01*
G01X6768460Y6684559D02*
G03X6631155Y6611381I943356J-1935449D01*
G01X6631155Y6611381D02*
G03X6511907Y6534386I749719J-1291987D01*
G01X6511907Y6534386D02*
G03X6399944Y6446027I878468J-1228258D01*
G01X6399944Y6446027D02*
G03X6284620Y6338509I1476615J-1699419D01*
G01X6284620Y6338509D02*
G03X6179482Y6225908I1589908J-1589924D01*
G01X6179482Y6225908D02*
G03X6092640Y6116511I1147133J-999790D01*
G01X6092640Y6116511D02*
G03X6015319Y5998431I1263804J-911912D01*
G01X6015319Y5998431D02*
G03X5938965Y5859468I2131336J-1261545D01*
G01X5353962Y5710847D02*
G01X5157620Y5711607D01*
G01X5157620Y5711607D02*
G02X4989807Y5713783I110179J14963522D01*
G01X4989807Y5713783D02*
G01X4842452Y5716699D01*
G01X4842452Y5716699D02*
G02X4829526Y5720598I523J25110D01*
G01X4829526Y5720598D02*
G02X4823043Y5729887I7853J12386D01*
G01X4823043Y5729887D02*
G02X4821979Y5746161I54227J11718D01*
G01X4821979Y5746161D02*
G02X4826135Y5773052I190918J-15736D01*
G01X4826135Y5773052D02*
G02X4837814Y5821223I1786147J-407544D01*
G01X4837814Y5821223D02*
G02X5005469Y6290389I2632041J-676015D01*
G01X5005469Y6290389D02*
G02X5256047Y6721378I2470615J-1148084D01*
G01X5256047Y6721378D02*
G02X5580631Y7099016I2214771J-1575315D01*
G01X5580631Y7099016D02*
G02X5967821Y7409922I1869217J-1931299D01*
G01X5967821Y7409922D02*
G02X6371991Y7632187I1566737J-2370367D01*
G01X6371991Y7632187D02*
G02X6803812Y7784173I1128209J-2516018D01*
G01X6803812Y7784173D02*
G02X7252777Y7862072I689763J-2642650D01*
G01X7252777Y7862072D02*
G02X7707914Y7864109I239694J-2708005D01*
G01X7783236Y6510810D02*
G02X8128549Y6401963I-235048J-1347855D01*
G01X8128549Y6401963D02*
G02X8432660Y6206465I-577008J-1231858D01*
G01X8432660Y6206465D02*
G02X8677389Y5935431I-900324J-1058951D01*
G01X8677389Y5935431D02*
G02X8848509Y5605109I-1231752J-847580D01*
G01X8848509Y5605109D02*
G02X8881092Y5500159I-988029J-364279D01*
G01X8881092Y5500159D02*
G02X8901958Y5394020I-958335J-243522D01*
G01X8901958Y5394020D02*
G02X8913330Y5272085I-1307291J-183415D01*
G01X8913330Y5272085D02*
G02X8916934Y5117391I-3318177J-154700D01*
G01X8916934Y5117391D02*
G02X8903414Y4864920I-2363914J-4D01*
G01X8903414Y4864920D02*
G02X8861679Y4660717I-1097080J117853D01*
G01X8861679Y4660717D02*
G02X8783523Y4472750I-996334J304038D01*
G01X8783523Y4472750D02*
G02X8658553Y4270675I-1691406J906347D01*
G01X8658553Y4270675D02*
G02X8449963Y4039067I-1086622J768898D01*
G01X8449963Y4039067D02*
G02X8193420Y3862573I-874711J996736D01*
G01X8193420Y3862573D02*
G02X7897424Y3747826I-644242J1222716D01*
G01X7897424Y3747826D02*
G02X7572479Y3698425I-399461J1534153D01*
G01X7572479Y3698425D02*
G02X7395144Y3699205I-81091J1723337D01*
G01X7395144Y3699205D02*
G02X7232340Y3718959I70505J1261858D01*
G01X7232340Y3718959D02*
G02X7073964Y3759540I231711J1233630D01*
G01X7073964Y3759540D02*
G02X6909938Y3822873I521106J1593694D01*
G01X6909938Y3822873D02*
G02X6801201Y3876614I650450J1452964D01*
G01X6801201Y3876614D02*
G02X6709313Y3933104I476071J877363D01*
G01X6709313Y3933104D02*
G02X6621257Y4001033I610641J882606D01*
G01X6621257Y4001033D02*
G02X6523939Y4089933I1370774J1598283D01*
G01X6523939Y4089933D02*
G02X6421801Y4194190I2108432J2167752D01*
G01X6421801Y4194190D02*
G02X6350795Y4279059I745353J695738D01*
G01X6350795Y4279059D02*
G02X6294069Y4365262I684297J512069D01*
G01X6294069Y4365262D02*
G02X6237834Y4472275I1388377J797880D01*
G01X6237834Y4472275D02*
G02X6167166Y4636971I1983366J948533D01*
G01X6167166Y4636971D02*
G02X6124448Y4778682I964056J367900D01*
G01X6124448Y4778682D02*
G02X6102139Y4926218I1027250J230784D01*
G01X6102139Y4926218D02*
G02X6094740Y5109207I2357293J186959D01*
G01X6094740Y5109207D02*
G02X6120082Y5409316I1754672J2957D01*
G01X6120082Y5409316D02*
G02X6196681Y5676430I1257642J-216107D01*
G01X6196681Y5676430D02*
G02X6327633Y5916275I1137648J-465471D01*
G01X6327633Y5916275D02*
G02X6514549Y6135261I1237588J-867081D01*
G01X6514549Y6135261D02*
G02X6629235Y6236498I1165516J-1204776D01*
G01X6629235Y6236498D02*
G02X6746413Y6320719I832650J-1034847D01*
G01X6746413Y6320719D02*
G02X6869565Y6390127I684820J-1071130D01*
G01X6869565Y6390127D02*
G02X7002132Y6446995I608765J-1236168D01*
G01X7002132Y6446995D02*
G02X7187710Y6501051I481537J-1307561D01*
G01X7187710Y6501051D02*
G02X7381895Y6529956I314900J-1448778D01*
G01X7381895Y6529956D02*
G02X7581499Y6533231I124904J-1528757D01*
G01X7581499Y6533231D02*
G02X7783236Y6510810I-79823J-1637040D01*
G01X10247305Y5365374D02*
G02X10250284Y5356509I-17482J-10809D01*
G01X10250284Y5356509D02*
G02X10254247Y5312186I-4149558J-393302D01*
G01X10254247Y5312186D02*
G02X10258031Y5259926I-2252246J-189370D01*
G01X10258031Y5259926D02*
G02X10261204Y5200063I-3855603J-234345D01*
G01X10261204Y5200063D02*
G02X10263983Y5123594I-4323636J-195399D01*
G01X10263983Y5123594D02*
G02X10263569Y5077287I-635479J-17474D01*
G01X10263569Y5077287D02*
G02X10260759Y5047696I-301463J13691D01*
G01X10260759Y5047696D02*
G02X10253805Y5037094I-14838J2152D01*
G01X10253805Y5037094D02*
G02X10217549Y5026142I-38696J62611D01*
G01X10217549Y5026142D02*
G02X10051819Y5021844I-379927J11453346D01*
G01X10051819Y5021844D02*
G02X9849625Y5020864I-136510J7302581D01*
G01X9849625Y5020864D02*
G02X9606818Y5024999I135811J15105175D01*
G01X9259651Y5196434D02*
G02X9257718Y5259484I5052861J186461D01*
G01X9257718Y5259484D02*
G02X9256913Y5314005I2830347J69066D01*
G01X9256913Y5314005D02*
G01X9256829Y5360909D01*
G01X9256829Y5360909D02*
G02X9258767Y5367952I13846J-21D01*
G01X9258767Y5367952D02*
G02X9275790Y5377627I16992J-10084D01*
G01X9275790Y5377627D02*
G01X9752904Y5376614D01*
G01X9752904Y5376614D02*
G01X10229870Y5375135D01*
G01X10229870Y5375135D02*
G02X10247305Y5365374I-75J-20584D01*
G01X5835259Y4619153D02*
G03X5900463Y4454632I2373357J845448D01*
G01X5900463Y4454632D02*
G03X5972401Y4308513I1657443J725233D01*
G01X5972401Y4308513D02*
G03X6055370Y4172834I1505431J827378D01*
G01X6055370Y4172834D02*
G03X6153688Y4039748I1666029J1127934D01*
G01X6153688Y4039748D02*
G03X6229721Y3951547I1333105J1072305D01*
G01X6229721Y3951547D02*
G03X6317760Y3861161I1731269J1598245D01*
G01X6317760Y3861161D02*
G03X6409588Y3776502I1615243J1659919D01*
G01X6409588Y3776502D02*
G03X6497015Y3705657I1005415J1151361D01*
G01X6497015Y3705657D02*
G03X6650327Y3605972I812103J1081249D01*
G01X6650327Y3605972D02*
G03X6832379Y3515921I999882J1792375D01*
G01X6832379Y3515921D02*
G03X7022231Y3444392I816326J1878977D01*
G01X7022231Y3444392D02*
G03X7199086Y3400636I408514J1271846D01*
G01X7199086Y3400636D02*
G03X7312944Y3388411I147570J838071D01*
G01X7312944Y3388411D02*
G03X7504852Y3383834I241046J6081128D01*
G01X7504852Y3383834D02*
G03X7696683Y3385292I49444J6115229D01*
G01X7696683Y3385292D02*
G03X7809438Y3395703I-19185J823545D01*
G01X7809438Y3395703D02*
G03X8025465Y3452033I-190075J1171350D01*
G01X8025465Y3452033D02*
G03X8265749Y3555919I-762051J2092419D01*
G01X8265749Y3555919D02*
G03X8495558Y3689104I-1025028J2033532D01*
G01X8495558Y3689104D02*
G03X8680239Y3834643I-773843J1171905D01*
G01X8680239Y3834643D02*
G03X8831948Y3996812I-1123778J1203342D01*
G01X8831948Y3996812D02*
G03X8973264Y4190307I-1725980J1408890D01*
G01X8973264Y4190307D02*
G03X9092166Y4396565I-1846436J1201824D01*
G01X9092166Y4396565D02*
G03X9176479Y4597047I-1371624J694806D01*
G01X9731037Y4701761D02*
G01X9931926Y4704415D01*
G01X9931926Y4704415D02*
G01X10103002Y4705487D01*
G01X10103002Y4705487D02*
G01X10254440Y4705683D01*
G54D11*
G01X10254440Y4705683D02*
G02X10264539Y4702818I13J-19187D01*
G01X10264539Y4702818D02*
G02X10270399Y4692333I-6492J-10508D01*
G54D10*
G01X10270399Y4692333D02*
G01X10271529Y4079141D01*
G01X10271529Y4079141D02*
G01X10271521Y3312754D01*
G01X10268900Y2193539D02*
G01X10265999Y1234021D01*
G01X10265999Y1234021D02*
G01X10263350Y426027D01*
G54D11*
G01X10260823Y-308580D02*
G02X10260292Y-309997I-2177J7D01*
G01X10278500Y-324000D02*
G02X10258958Y-310609I239708J370756D01*
G54D10*
G01X9451459Y-313482D02*
G01X8563346Y-316489D01*
G01X8563346Y-316489D02*
G01X7508618Y-319781D01*
G01X7649736Y5845312D02*
G03X7586017Y5823232I179183J-620059D01*
G01X7586017Y5823232D02*
G03X7534001Y5797034I135865J-334506D01*
G01X7534001Y5797034D02*
G03X7484821Y5761657I206942J-339552D01*
G01X7484821Y5761657D02*
G03X7429528Y5711109I592039J-703126D01*
G01X7429528Y5711109D02*
G03X7328151Y5583255I483767J-487703D01*
G01X7328151Y5583255D02*
G03X7275071Y5449794I355739J-218773D01*
G01X7275071Y5449794D02*
G03X7271885Y5311874I371806J-77583D01*
G01X7271885Y5311874D02*
G03X7316805Y5170917I492067J79175D01*
G01X7316805Y5170917D02*
G03X7384146Y5070373I410349J202015D01*
G01X7384146Y5070373D02*
G03X7482650Y4978326I524884J462972D01*
G01X7482650Y4978326D02*
G03X7594689Y4908530I411292J535394D01*
G01X7594689Y4908530D02*
G03X7702321Y4874758I161755J327119D01*
G01X7702321Y4874758D02*
G03X7872567Y4890440I53178J354640D01*
G01X7872567Y4890440D02*
G03X8043009Y4983483I-190513J551629D01*
G01X8043009Y4983483D02*
G03X8178635Y5131265I-385881J490264D01*
G01X8178635Y5131265D02*
G03X8248416Y5304592I-396355J260283D01*
G01X8248416Y5304592D02*
G03X8243725Y5455176I-346163J64580D01*
G01X8243725Y5455176D02*
G03X8177657Y5609382I-516829J-130174D01*
G01X8177657Y5609382D02*
G03X8063631Y5740735I-485552J-306331D01*
G01X8063631Y5740735D02*
G03X7920088Y5825020I-313073J-368810D01*
G01X7920088Y5825020D02*
G03X7854170Y5843775I-148735J-397533D01*
G01X7854170Y5843775D02*
G03X7779426Y5853976I-121253J-609531D01*
G01X7779426Y5853976D02*
G03X7707257Y5854906I-43565J-580263D01*
G01X7707257Y5854906D02*
G03X7649736Y5845312I12384J-251491D01*
G01X7868618Y5504208D02*
G02X7901168Y5461015I-51545J-72706D01*
G01X7901168Y5461015D02*
G02X7919621Y5383309I-361603J-126915D01*
G01X7919621Y5383309D02*
G02X7921567Y5303413I-380283J-49232D01*
G01X7921567Y5303413D02*
G02X7901120Y5253154I-89671J7192D01*
G01X7901120Y5253154D02*
G02X7859405Y5221920I-85979J71355D01*
G01X7859405Y5221920D02*
G02X7797693Y5204323I-98387J228026D01*
G01X7797693Y5204323D02*
G02X7731384Y5202873I-38865J260335D01*
G01X7731384Y5202873D02*
G02X7675794Y5219512I16320J155702D01*
G01X7675794Y5219512D02*
G02X7660432Y5228768I63434J122658D01*
G01X7660432Y5228768D02*
G02X7643625Y5241478I149333J214937D01*
G01X7643625Y5241478D02*
G02X7627976Y5255428I164973J200821D01*
G01X7627976Y5255428D02*
G02X7616195Y5268476I90013J93111D01*
G01X7616195Y5268476D02*
G02X7593701Y5322265I85771J67467D01*
G01X7593701Y5322265D02*
G02X7594570Y5396291I268121J33872D01*
G01X7594570Y5396291D02*
G02X7615144Y5465473I255891J-38449D01*
G01X7615144Y5465473D02*
G02X7651641Y5504386I76099J-34803D01*
G01X7651641Y5504386D02*
G02X7706040Y5524975I105277J-195994D01*
G01X7706040Y5524975D02*
G02X7766301Y5531935I60049J-255578D01*
G01X7766301Y5531935D02*
G02X7823467Y5524919I-191J-237966D01*
G01X7823467Y5524919D02*
G02X7868618Y5504208I-32267J-129913D01*
G01X6999173Y3100385D02*
G03X6785577Y3057225I370117J-2381820D01*
G01X6785577Y3057225D02*
G03X6597190Y2997876I394732J-1581613D01*
G01X6597190Y2997876D02*
G03X6450122Y2929954I433877J-1132634D01*
G01X6450122Y2929954D02*
G03X6373475Y2860698I106123J-194490D01*
G01X6373475Y2860698D02*
G03X6349990Y2801018I118137J-80949D01*
G01X6349990Y2801018D02*
G03X6354389Y2736103I149592J-22469D01*
G01X6354389Y2736103D02*
G03X6386195Y2676657I157549J46063D01*
G01X6386195Y2676657D02*
G03X6440140Y2632674I142153J119277D01*
G01X6440140Y2632674D02*
G03X6476642Y2619413I63063J116714D01*
G01X6476642Y2619413D02*
G03X6514653Y2617678I24522J119999D01*
G01X6514653Y2617678D02*
G03X6558247Y2628067I-20019J180667D01*
G01X6558247Y2628067D02*
G03X6612303Y2651755I-186422J498938D01*
G01X6612303Y2651755D02*
G02X6758148Y2713055I506838J-1001711D01*
G01X6758148Y2713055D02*
G02X6922105Y2758539I482266J-1420189D01*
G01X6922105Y2758539D02*
G02X7097339Y2786698I345478J-1590631D01*
G01X7097339Y2786698D02*
G02X7276993Y2796116I179638J-1708436D01*
G01X7276993Y2796116D02*
G02X7422335Y2790668I22J-1940731D01*
G01X7422335Y2790668D02*
G02X7549579Y2774112I-88309J-1175984D01*
G01X7549579Y2774112D02*
G02X7687511Y2741717I-276450J-1486912D01*
G01X7687511Y2741717D02*
G02X7869425Y2685971I-1316206J-4619892D01*
G01X7869425Y2685971D02*
G03X7945935Y2661981I940784J2866352D01*
G01X7945935Y2661981D02*
G03X8017955Y2641722I655289J2191357D01*
G01X8017955Y2641722D02*
G03X8078793Y2626576I576241J2184867D01*
G01X8078793Y2626576D02*
G03X8106997Y2623317I28203J120409D01*
G01X8106997Y2623317D02*
G03X8133885Y2625458I-1J169914D01*
G01X8133885Y2625458D02*
G03X8153608Y2632149I-9849J61451D01*
G01X8153608Y2632149D02*
G03X8172925Y2646129I-43247J80091D01*
G01X8172925Y2646129D02*
G03X8199953Y2673515I-387875J409834D01*
G01X8199953Y2673515D02*
G03X8233712Y2716317I-261064J240625D01*
G01X8233712Y2716317D02*
G03X8251949Y2755273I-117022J78531D01*
G01X8251949Y2755273D02*
G03X8255335Y2791737I-92071J26938D01*
G01X8255335Y2791737D02*
G03X8244840Y2826957I-96770J-9663D01*
G01X8244840Y2826957D02*
G03X8206824Y2877358I-168887J-87848D01*
G01X8206824Y2877358D02*
G03X8147990Y2922430I-244796J-258603D01*
G01X8147990Y2922430D02*
G03X8064393Y2965008I-312800J-510787D01*
G01X8064393Y2965008D02*
G03X7949255Y3007965I-661029J-1596003D01*
G01X7949255Y3007965D02*
G03X7717473Y3069816I-624407J-1874687D01*
G01X7717473Y3069816D02*
G03X7466800Y3107319I-488892J-2411270D01*
G01X7466800Y3107319D02*
G03X7219757Y3118312I-228114J-2344958D01*
G01X7219757Y3118312D02*
G03X6999173Y3100385I12186J-1515967D01*
G01X10271521Y3312754D02*
G01X10268900Y2193539D01*
G54D11*
G01X7675600Y1829399D02*
G01X7595600Y1829399D01*
G01X7415600Y1829399D02*
G01X7495600Y1829399D01*
G01X7675600Y2279401D02*
G01X7675600Y2275512D01*
G01X7675600Y1829399D02*
G01X7675600Y1833285D01*
G01X7415600Y2275512D02*
G01X7415600Y2279401D01*
G01X7415600Y1829399D02*
G01X7415600Y1833288D01*
G01X7415600Y2279401D02*
G01X7675600Y2279401D01*
G01X7595600Y1829399D02*
G03X7495562Y1829356I-50019J-377D01*

G04 Circle Start*
G01X7719082Y1822396D02*
G03X7744126Y1822396I12522J0D01*
G03X7719082Y1822396I-12522J0D01*
G04 Circle End*

M02*

