G04 Layer: DrillDrawingLayer*
G04 EasyEDA Pro v3.2.148, 2026-07-23 02:23:22*
G04 Gerber Generator version 0.3*
G04 Scale: 100 percent, Rotated: No, Reflected: No*
G04 Dimensions in millimeters*
G04 Leading zeros omitted, absolute positions, 4 integers and 5 decimals*
G04 Generated by one-click*
G04 Object Configs: Pad,Via,Track,Text,Image,Dimension,BoardOutline,BoardCutout,CopperFilled,SolidRegion,FPCStiffener,Line,PlaneZone,ComponentProperty,ComponentSilkscreen,TearDrop*
G04 Layer Configs: 1,2,3,4,5,6,7,8,9,10,11,13,14,56*
G04 Copper Areas: 0*
%FSLAX45Y45*%
%MOMM*%
%AMIconRect*4,1,4,0.28,-0.28,-0.28,-0.28,-0.28,0.28,0.28,0.28,0.28,-0.28,0*4,0,4,0.233333,-0.233333,0.233333,0.233333,-0.233333,0.233333,-0.233333,-0.233333,0.233333,-0.233333,0*%
%AMIconTriangle*4,1,3,-0.339593,0.240473,0.339593,0.240473,0,-0.37884,-0.339593,0.240473,0*4,0,3,-0.265673,0.19404,0,-0.27342,0.266233,0.19404,-0.265673,0.19404,0*%
%AMIconStar6*4,1,12,0.12068,0.20888,0.298527,0.172713,0.241313,0,0.298527,-0.17206,0.12068,-0.208227,0,-0.344073,-0.120073,-0.208227,-0.298573,-0.17206,-0.240707,0,-0.298573,0.17206,-0.120073,0.20888,0,0.344073,0.12068,0.20888,0*4,0,12,-0.000467,0.273467,-0.090067,0.171733,-0.237533,0.136733,-0.193667,-0.007467,-0.237533,-0.1372,-0.090067,-0.171733,-0.000467,-0.273933,0.090067,-0.171733,0.237533,-0.1372,0.194133,0.007,0.237533,0.1372,0.090067,0.171267,-0.000467,0.273467,0*%
%AMIconStar4*4,1,8,-0.311733,0.311733,0,0.202533,0.311733,0.311733,0.202533,0,0.311733,-0.311733,0,-0.202533,-0.304407,-0.311733,-0.202533,0,-0.311733,0.311733,0*4,0,8,0.233333,-0.233333,0.1512,0,0.233333,0.233333,0,0.1512,-0.233333,0.233333,-0.1512,0,-0.233333,-0.233333,0,-0.1512,0.233333,-0.233333,0*%
%ADD10IconRect*%
%ADD11C,0.616X0.522667*%
%ADD12IconTriangle*%
%ADD13IconStar6*%
%ADD14IconStar4*%
%ADD15C,0.2032*%
%ADD16C,0.254*%
G75*


G04 Drill Drawing Start*
G54D10*
G01X4602404Y383692D03*
G01X4602404Y1673708D03*
G01X4627804Y2517292D03*
G01X4627804Y3807308D03*
G54D11*
G01X7070706Y-59996D03*
G01X7935709Y-59998D03*
G01X10036496Y562006D03*
G01X10036498Y1427009D03*
G01X10036996Y2734507D03*
G01X10036998Y3599509D03*
G54D12*
G01X7070701Y-480003D03*
G01X7935698Y-480003D03*
G01X10456503Y562001D03*
G01X10456503Y1426998D03*
G01X10457003Y2734502D03*
G01X10457003Y3599499D03*
G54D13*
G01X7214211Y-112007D03*
G01X7792214Y-112007D03*
G01X10088507Y705511D03*
G01X10088507Y1283514D03*
G01X10089008Y2878012D03*
G01X10089008Y3456014D03*
G54D14*
G01X5708800Y678713D03*
G01X5734400Y2812313D03*
G01X6041600Y1376000D03*
G01X6048000Y3513600D03*
G01X7379200Y448000D03*
G01X7430400Y-147200D03*
G01X7577600Y-147200D03*
G01X7680000Y448000D03*
G01X7782400Y2571051D03*
G01X7839180Y2080892D03*
G01X7897600Y2133902D03*
G01X8288000Y2476800D03*
G01X8364800Y2336000D03*
G01X9516800Y697600D03*
G01X9529600Y2867200D03*
G04 Drill Drawing End*

G04 Text Start*
G54D15*
G01X12888071Y8976051D02*
G01X12888071Y8855909D01*
G01X12888071Y8976051D02*
G01X12933791Y8855909D01*
G01X12979511Y8976051D02*
G01X12933791Y8855909D01*
G01X12979511Y8976051D02*
G01X12979511Y8855909D01*
G01X13095843Y8935919D02*
G01X13095843Y8855909D01*
G01X13095843Y8918901D02*
G01X13084413Y8930331D01*
G01X13072983Y8935919D01*
G01X13055965Y8935919D01*
G01X13044535Y8930331D01*
G01X13033105Y8918901D01*
G01X13027263Y8901629D01*
G01X13027263Y8890199D01*
G01X13033105Y8873181D01*
G01X13044535Y8861751D01*
G01X13055965Y8855909D01*
G01X13072983Y8855909D01*
G01X13084413Y8861751D01*
G01X13095843Y8873181D01*
G01X13143595Y8935919D02*
G01X13143595Y8855909D01*
G01X13143595Y8901629D02*
G01X13149437Y8918901D01*
G01X13160867Y8930331D01*
G01X13172297Y8935919D01*
G01X13189315Y8935919D01*
G01X13237067Y8976051D02*
G01X13237067Y8855909D01*
G01X13294217Y8935919D02*
G01X13237067Y8878769D01*
G01X13259927Y8901629D02*
G01X13300059Y8855909D01*
G01X14425352Y8947349D02*
G01X14419510Y8958779D01*
G01X14408080Y8970209D01*
G01X14396650Y8976051D01*
G01X14373790Y8976051D01*
G01X14362360Y8970209D01*
G01X14350930Y8958779D01*
G01X14345342Y8947349D01*
G01X14339500Y8930331D01*
G01X14339500Y8901629D01*
G01X14345342Y8884611D01*
G01X14350930Y8873181D01*
G01X14362360Y8861751D01*
G01X14373790Y8855909D01*
G01X14396650Y8855909D01*
G01X14408080Y8861751D01*
G01X14419510Y8873181D01*
G01X14425352Y8884611D01*
G01X14501806Y8935919D02*
G01X14490376Y8930331D01*
G01X14478946Y8918901D01*
G01X14473104Y8901629D01*
G01X14473104Y8890199D01*
G01X14478946Y8873181D01*
G01X14490376Y8861751D01*
G01X14501806Y8855909D01*
G01X14518824Y8855909D01*
G01X14530254Y8861751D01*
G01X14541684Y8873181D01*
G01X14547526Y8890199D01*
G01X14547526Y8901629D01*
G01X14541684Y8918901D01*
G01X14530254Y8930331D01*
G01X14518824Y8935919D01*
G01X14501806Y8935919D01*
G01X14595278Y8935919D02*
G01X14595278Y8878769D01*
G01X14601120Y8861751D01*
G01X14612550Y8855909D01*
G01X14629568Y8855909D01*
G01X14640998Y8861751D01*
G01X14658270Y8878769D01*
G01X14658270Y8935919D02*
G01X14658270Y8855909D01*
G01X14706022Y8935919D02*
G01X14706022Y8855909D01*
G01X14706022Y8913059D02*
G01X14723294Y8930331D01*
G01X14734724Y8935919D01*
G01X14751742Y8935919D01*
G01X14763172Y8930331D01*
G01X14769014Y8913059D01*
G01X14769014Y8855909D01*
G01X14834038Y8976051D02*
G01X14834038Y8878769D01*
G01X14839626Y8861751D01*
G01X14851056Y8855909D01*
G01X14862486Y8855909D01*
G01X14816766Y8935919D02*
G01X14856898Y8935919D01*
G01X15833673Y8958779D02*
G01X15822243Y8970209D01*
G01X15805225Y8976051D01*
G01X15782365Y8976051D01*
G01X15765093Y8970209D01*
G01X15753663Y8958779D01*
G01X15753663Y8947349D01*
G01X15759505Y8935919D01*
G01X15765093Y8930331D01*
G01X15776523Y8924489D01*
G01X15810813Y8913059D01*
G01X15822243Y8907471D01*
G01X15828085Y8901629D01*
G01X15833673Y8890199D01*
G01X15833673Y8873181D01*
G01X15822243Y8861751D01*
G01X15805225Y8855909D01*
G01X15782365Y8855909D01*
G01X15765093Y8861751D01*
G01X15753663Y8873181D01*
G01X15881425Y8976051D02*
G01X15887267Y8970209D01*
G01X15892855Y8976051D01*
G01X15887267Y8981639D01*
G01X15881425Y8976051D01*
G01X15887267Y8935919D02*
G01X15887267Y8855909D01*
G01X16003599Y8935919D02*
G01X15940607Y8855909D01*
G01X15940607Y8935919D02*
G01X16003599Y8935919D01*
G01X15940607Y8855909D02*
G01X16003599Y8855909D01*
G01X16051351Y8901629D02*
G01X16119931Y8901629D01*
G01X16119931Y8913059D01*
G01X16114343Y8924489D01*
G01X16108501Y8930331D01*
G01X16097071Y8935919D01*
G01X16080053Y8935919D01*
G01X16068623Y8930331D01*
G01X16057193Y8918901D01*
G01X16051351Y8901629D01*
G01X16051351Y8890199D01*
G01X16057193Y8873181D01*
G01X16068623Y8861751D01*
G01X16080053Y8855909D01*
G01X16097071Y8855909D01*
G01X16108501Y8861751D01*
G01X16119931Y8873181D01*
G01X19641786Y8976051D02*
G01X19641786Y8855909D01*
G01X19641786Y8976051D02*
G01X19693348Y8976051D01*
G01X19710366Y8970209D01*
G01X19716208Y8964621D01*
G01X19721796Y8953191D01*
G01X19721796Y8935919D01*
G01X19716208Y8924489D01*
G01X19710366Y8918901D01*
G01X19693348Y8913059D01*
G01X19641786Y8913059D01*
G01X19769548Y8976051D02*
G01X19769548Y8855909D01*
G01X19885880Y8935919D02*
G01X19885880Y8855909D01*
G01X19885880Y8918901D02*
G01X19874450Y8930331D01*
G01X19863020Y8935919D01*
G01X19846002Y8935919D01*
G01X19834572Y8930331D01*
G01X19823142Y8918901D01*
G01X19817300Y8901629D01*
G01X19817300Y8890199D01*
G01X19823142Y8873181D01*
G01X19834572Y8861751D01*
G01X19846002Y8855909D01*
G01X19863020Y8855909D01*
G01X19874450Y8861751D01*
G01X19885880Y8873181D01*
G01X19950904Y8976051D02*
G01X19950904Y8878769D01*
G01X19956492Y8861751D01*
G01X19967922Y8855909D01*
G01X19979352Y8855909D01*
G01X19933632Y8935919D02*
G01X19973764Y8935919D01*
G01X20027104Y8901629D02*
G01X20095684Y8901629D01*
G01X20095684Y8913059D01*
G01X20090096Y8924489D01*
G01X20084254Y8930331D01*
G01X20072824Y8935919D01*
G01X20055806Y8935919D01*
G01X20044376Y8930331D01*
G01X20032946Y8918901D01*
G01X20027104Y8901629D01*
G01X20027104Y8890199D01*
G01X20032946Y8873181D01*
G01X20044376Y8861751D01*
G01X20055806Y8855909D01*
G01X20072824Y8855909D01*
G01X20084254Y8861751D01*
G01X20095684Y8873181D01*
G01X20212016Y8976051D02*
G01X20212016Y8855909D01*
G01X20212016Y8918901D02*
G01X20200586Y8930331D01*
G01X20189156Y8935919D01*
G01X20172138Y8935919D01*
G01X20160708Y8930331D01*
G01X20149278Y8918901D01*
G01X20143436Y8901629D01*
G01X20143436Y8890199D01*
G01X20149278Y8873181D01*
G01X20160708Y8861751D01*
G01X20172138Y8855909D01*
G01X20189156Y8855909D01*
G01X20200586Y8861751D01*
G01X20212016Y8873181D01*
G01X21183203Y8958779D02*
G01X21171773Y8970209D01*
G01X21154755Y8976051D01*
G01X21131895Y8976051D01*
G01X21114623Y8970209D01*
G01X21103193Y8958779D01*
G01X21103193Y8947349D01*
G01X21109035Y8935919D01*
G01X21114623Y8930331D01*
G01X21126053Y8924489D01*
G01X21160343Y8913059D01*
G01X21171773Y8907471D01*
G01X21177615Y8901629D01*
G01X21183203Y8890199D01*
G01X21183203Y8873181D01*
G01X21171773Y8861751D01*
G01X21154755Y8855909D01*
G01X21131895Y8855909D01*
G01X21114623Y8861751D01*
G01X21103193Y8873181D01*
G01X21230955Y8976051D02*
G01X21230955Y8855909D01*
G01X21230955Y8913059D02*
G01X21248227Y8930331D01*
G01X21259657Y8935919D01*
G01X21276675Y8935919D01*
G01X21288105Y8930331D01*
G01X21293947Y8913059D01*
G01X21293947Y8855909D01*
G01X21410279Y8935919D02*
G01X21410279Y8855909D01*
G01X21410279Y8918901D02*
G01X21398849Y8930331D01*
G01X21387419Y8935919D01*
G01X21370401Y8935919D01*
G01X21358971Y8930331D01*
G01X21347541Y8918901D01*
G01X21341699Y8901629D01*
G01X21341699Y8890199D01*
G01X21347541Y8873181D01*
G01X21358971Y8861751D01*
G01X21370401Y8855909D01*
G01X21387419Y8855909D01*
G01X21398849Y8861751D01*
G01X21410279Y8873181D01*
G01X21458031Y8935919D02*
G01X21458031Y8816031D01*
G01X21458031Y8918901D02*
G01X21469461Y8930331D01*
G01X21480891Y8935919D01*
G01X21498163Y8935919D01*
G01X21509593Y8930331D01*
G01X21521023Y8918901D01*
G01X21526611Y8901629D01*
G01X21526611Y8890199D01*
G01X21521023Y8873181D01*
G01X21509593Y8861751D01*
G01X21498163Y8855909D01*
G01X21480891Y8855909D01*
G01X21469461Y8861751D01*
G01X21458031Y8873181D01*
G01X21574363Y8901629D02*
G01X21642943Y8901629D01*
G01X21642943Y8913059D01*
G01X21637355Y8924489D01*
G01X21631513Y8930331D01*
G01X21620083Y8935919D01*
G01X21603065Y8935919D01*
G01X21591635Y8930331D01*
G01X21580205Y8918901D01*
G01X21574363Y8901629D01*
G01X21574363Y8890199D01*
G01X21580205Y8873181D01*
G01X21591635Y8861751D01*
G01X21603065Y8855909D01*
G01X21620083Y8855909D01*
G01X21631513Y8861751D01*
G01X21642943Y8873181D01*
G01X22534375Y8976051D02*
G01X22580095Y8855909D01*
G01X22625815Y8976051D02*
G01X22580095Y8855909D01*
G01X22673567Y8976051D02*
G01X22679409Y8970209D01*
G01X22684997Y8976051D01*
G01X22679409Y8981639D01*
G01X22673567Y8976051D01*
G01X22679409Y8935919D02*
G01X22679409Y8855909D01*
G01X22801329Y8935919D02*
G01X22801329Y8855909D01*
G01X22801329Y8918901D02*
G01X22789899Y8930331D01*
G01X22778469Y8935919D01*
G01X22761451Y8935919D01*
G01X22750021Y8930331D01*
G01X22738591Y8918901D01*
G01X22732749Y8901629D01*
G01X22732749Y8890199D01*
G01X22738591Y8873181D01*
G01X22750021Y8861751D01*
G01X22761451Y8855909D01*
G01X22778469Y8855909D01*
G01X22789899Y8861751D01*
G01X22801329Y8873181D01*
G01X22951951Y8998911D02*
G01X22849081Y8816031D01*
G01X22999703Y8976051D02*
G01X22999703Y8855909D01*
G01X22999703Y8976051D02*
G01X23051265Y8976051D01*
G01X23068283Y8970209D01*
G01X23074125Y8964621D01*
G01X23079713Y8953191D01*
G01X23079713Y8935919D01*
G01X23074125Y8924489D01*
G01X23068283Y8918901D01*
G01X23051265Y8913059D01*
G01X22999703Y8913059D01*
G01X23196045Y8935919D02*
G01X23196045Y8855909D01*
G01X23196045Y8918901D02*
G01X23184615Y8930331D01*
G01X23173185Y8935919D01*
G01X23156167Y8935919D01*
G01X23144737Y8930331D01*
G01X23133307Y8918901D01*
G01X23127465Y8901629D01*
G01X23127465Y8890199D01*
G01X23133307Y8873181D01*
G01X23144737Y8861751D01*
G01X23156167Y8855909D01*
G01X23173185Y8855909D01*
G01X23184615Y8861751D01*
G01X23196045Y8873181D01*
G01X23312377Y8976051D02*
G01X23312377Y8855909D01*
G01X23312377Y8918901D02*
G01X23300947Y8930331D01*
G01X23289517Y8935919D01*
G01X23272499Y8935919D01*
G01X23261069Y8930331D01*
G01X23249639Y8918901D01*
G01X23243797Y8901629D01*
G01X23243797Y8890199D01*
G01X23249639Y8873181D01*
G01X23261069Y8861751D01*
G01X23272499Y8855909D01*
G01X23289517Y8855909D01*
G01X23300947Y8861751D01*
G01X23312377Y8873181D01*
G01X24203554Y8976051D02*
G01X24203554Y8855909D01*
G01X24203554Y8976051D02*
G01X24255116Y8976051D01*
G01X24272134Y8970209D01*
G01X24277976Y8964621D01*
G01X24283564Y8953191D01*
G01X24283564Y8935919D01*
G01X24277976Y8924489D01*
G01X24272134Y8918901D01*
G01X24255116Y8913059D01*
G01X24203554Y8913059D01*
G01X24399896Y8935919D02*
G01X24399896Y8855909D01*
G01X24399896Y8918901D02*
G01X24388466Y8930331D01*
G01X24377036Y8935919D01*
G01X24360018Y8935919D01*
G01X24348588Y8930331D01*
G01X24337158Y8918901D01*
G01X24331316Y8901629D01*
G01X24331316Y8890199D01*
G01X24337158Y8873181D01*
G01X24348588Y8861751D01*
G01X24360018Y8855909D01*
G01X24377036Y8855909D01*
G01X24388466Y8861751D01*
G01X24399896Y8873181D01*
G01X24516228Y8976051D02*
G01X24516228Y8855909D01*
G01X24516228Y8918901D02*
G01X24504798Y8930331D01*
G01X24493368Y8935919D01*
G01X24476350Y8935919D01*
G01X24464920Y8930331D01*
G01X24453490Y8918901D01*
G01X24447648Y8901629D01*
G01X24447648Y8890199D01*
G01X24453490Y8873181D01*
G01X24464920Y8861751D01*
G01X24476350Y8855909D01*
G01X24493368Y8855909D01*
G01X24504798Y8861751D01*
G01X24516228Y8873181D01*
G01X24772006Y8958779D02*
G01X24760576Y8970209D01*
G01X24743558Y8976051D01*
G01X24720698Y8976051D01*
G01X24703426Y8970209D01*
G01X24691996Y8958779D01*
G01X24691996Y8947349D01*
G01X24697838Y8935919D01*
G01X24703426Y8930331D01*
G01X24714856Y8924489D01*
G01X24749146Y8913059D01*
G01X24760576Y8907471D01*
G01X24766418Y8901629D01*
G01X24772006Y8890199D01*
G01X24772006Y8873181D01*
G01X24760576Y8861751D01*
G01X24743558Y8855909D01*
G01X24720698Y8855909D01*
G01X24703426Y8861751D01*
G01X24691996Y8873181D01*
G01X24819758Y8976051D02*
G01X24819758Y8855909D01*
G01X24819758Y8913059D02*
G01X24837030Y8930331D01*
G01X24848460Y8935919D01*
G01X24865478Y8935919D01*
G01X24876908Y8930331D01*
G01X24882750Y8913059D01*
G01X24882750Y8855909D01*
G01X24999082Y8935919D02*
G01X24999082Y8855909D01*
G01X24999082Y8918901D02*
G01X24987652Y8930331D01*
G01X24976222Y8935919D01*
G01X24959204Y8935919D01*
G01X24947774Y8930331D01*
G01X24936344Y8918901D01*
G01X24930502Y8901629D01*
G01X24930502Y8890199D01*
G01X24936344Y8873181D01*
G01X24947774Y8861751D01*
G01X24959204Y8855909D01*
G01X24976222Y8855909D01*
G01X24987652Y8861751D01*
G01X24999082Y8873181D01*
G01X25046834Y8935919D02*
G01X25046834Y8816031D01*
G01X25046834Y8918901D02*
G01X25058264Y8930331D01*
G01X25069694Y8935919D01*
G01X25086966Y8935919D01*
G01X25098396Y8930331D01*
G01X25109826Y8918901D01*
G01X25115414Y8901629D01*
G01X25115414Y8890199D01*
G01X25109826Y8873181D01*
G01X25098396Y8861751D01*
G01X25086966Y8855909D01*
G01X25069694Y8855909D01*
G01X25058264Y8861751D01*
G01X25046834Y8873181D01*
G01X25163166Y8901629D02*
G01X25231746Y8901629D01*
G01X25231746Y8913059D01*
G01X25226158Y8924489D01*
G01X25220316Y8930331D01*
G01X25208886Y8935919D01*
G01X25191868Y8935919D01*
G01X25180438Y8930331D01*
G01X25169008Y8918901D01*
G01X25163166Y8901629D01*
G01X25163166Y8890199D01*
G01X25169008Y8873181D01*
G01X25180438Y8861751D01*
G01X25191868Y8855909D01*
G01X25208886Y8855909D01*
G01X25220316Y8861751D01*
G01X25231746Y8873181D01*
G01X26122923Y8976051D02*
G01X26122923Y8855909D01*
G01X26122923Y8855909D02*
G01X26191503Y8855909D01*
G01X26307835Y8935919D02*
G01X26307835Y8855909D01*
G01X26307835Y8918901D02*
G01X26296405Y8930331D01*
G01X26284975Y8935919D01*
G01X26267957Y8935919D01*
G01X26256527Y8930331D01*
G01X26245097Y8918901D01*
G01X26239255Y8901629D01*
G01X26239255Y8890199D01*
G01X26245097Y8873181D01*
G01X26256527Y8861751D01*
G01X26267957Y8855909D01*
G01X26284975Y8855909D01*
G01X26296405Y8861751D01*
G01X26307835Y8873181D01*
G01X26361429Y8935919D02*
G01X26395719Y8855909D01*
G01X26430009Y8935919D02*
G01X26395719Y8855909D01*
G01X26384289Y8833049D01*
G01X26372859Y8821619D01*
G01X26361429Y8816031D01*
G01X26355587Y8816031D01*
G01X26477761Y8901629D02*
G01X26546341Y8901629D01*
G01X26546341Y8913059D01*
G01X26540753Y8924489D01*
G01X26534911Y8930331D01*
G01X26523481Y8935919D01*
G01X26506463Y8935919D01*
G01X26495033Y8930331D01*
G01X26483603Y8918901D01*
G01X26477761Y8901629D01*
G01X26477761Y8890199D01*
G01X26483603Y8873181D01*
G01X26495033Y8861751D01*
G01X26506463Y8855909D01*
G01X26523481Y8855909D01*
G01X26534911Y8861751D01*
G01X26546341Y8873181D01*
G01X26594093Y8935919D02*
G01X26594093Y8855909D01*
G01X26594093Y8901629D02*
G01X26599935Y8918901D01*
G01X26611365Y8930331D01*
G01X26622795Y8935919D01*
G01X26639813Y8935919D01*
G01X26815581Y8976051D02*
G01X26815581Y8855909D01*
G01X26815581Y8976051D02*
G01X26867143Y8976051D01*
G01X26884161Y8970209D01*
G01X26890003Y8964621D01*
G01X26895591Y8953191D01*
G01X26895591Y8935919D01*
G01X26890003Y8924489D01*
G01X26884161Y8918901D01*
G01X26867143Y8913059D01*
G01X26815581Y8913059D01*
G01X27011923Y8935919D02*
G01X27011923Y8855909D01*
G01X27011923Y8918901D02*
G01X27000493Y8930331D01*
G01X26989063Y8935919D01*
G01X26972045Y8935919D01*
G01X26960615Y8930331D01*
G01X26949185Y8918901D01*
G01X26943343Y8901629D01*
G01X26943343Y8890199D01*
G01X26949185Y8873181D01*
G01X26960615Y8861751D01*
G01X26972045Y8855909D01*
G01X26989063Y8855909D01*
G01X27000493Y8861751D01*
G01X27011923Y8873181D01*
G01X27059675Y8976051D02*
G01X27065517Y8970209D01*
G01X27071105Y8976051D01*
G01X27065517Y8981639D01*
G01X27059675Y8976051D01*
G01X27065517Y8935919D02*
G01X27065517Y8855909D01*
G01X27118857Y8935919D02*
G01X27118857Y8855909D01*
G01X27118857Y8901629D02*
G01X27124699Y8918901D01*
G01X27136129Y8930331D01*
G01X27147559Y8935919D01*
G01X27164577Y8935919D01*
G01X14396650Y8395480D02*
G01X14339500Y8315470D01*
G01X14425352Y8315470D01*
G01X14396650Y8395480D02*
G01X14396650Y8275338D01*
G01X15759505Y8366778D02*
G01X15759505Y8372620D01*
G01X15765093Y8384050D01*
G01X15770935Y8389638D01*
G01X15782365Y8395480D01*
G01X15805225Y8395480D01*
G01X15816655Y8389638D01*
G01X15822243Y8384050D01*
G01X15828085Y8372620D01*
G01X15828085Y8361190D01*
G01X15822243Y8349760D01*
G01X15810813Y8332488D01*
G01X15753663Y8275338D01*
G01X15833673Y8275338D01*
G01X15961435Y8395480D02*
G01X15904285Y8275338D01*
G01X15881425Y8395480D02*
G01X15961435Y8395480D01*
G01X16015029Y8304040D02*
G01X16009187Y8298198D01*
G01X16015029Y8292610D01*
G01X16020617Y8298198D01*
G01X16015029Y8304040D01*
G01X16136949Y8378208D02*
G01X16131361Y8389638D01*
G01X16114089Y8395480D01*
G01X16102659Y8395480D01*
G01X16085641Y8389638D01*
G01X16074211Y8372620D01*
G01X16068369Y8343918D01*
G01X16068369Y8315470D01*
G01X16074211Y8292610D01*
G01X16085641Y8281180D01*
G01X16102659Y8275338D01*
G01X16108501Y8275338D01*
G01X16125519Y8281180D01*
G01X16136949Y8292610D01*
G01X16142791Y8309628D01*
G01X16142791Y8315470D01*
G01X16136949Y8332488D01*
G01X16125519Y8343918D01*
G01X16108501Y8349760D01*
G01X16102659Y8349760D01*
G01X16085641Y8343918D01*
G01X16074211Y8332488D01*
G01X16068369Y8315470D01*
G01X16190543Y8355348D02*
G01X16253535Y8275338D01*
G01X16253535Y8355348D02*
G01X16190543Y8275338D01*
G01X16375709Y8355348D02*
G01X16369867Y8338330D01*
G01X16358437Y8326900D01*
G01X16341419Y8321058D01*
G01X16335577Y8321058D01*
G01X16318559Y8326900D01*
G01X16307129Y8338330D01*
G01X16301287Y8355348D01*
G01X16301287Y8361190D01*
G01X16307129Y8378208D01*
G01X16318559Y8389638D01*
G01X16335577Y8395480D01*
G01X16341419Y8395480D01*
G01X16358437Y8389638D01*
G01X16369867Y8378208D01*
G01X16375709Y8355348D01*
G01X16375709Y8326900D01*
G01X16369867Y8298198D01*
G01X16358437Y8281180D01*
G01X16341419Y8275338D01*
G01X16329989Y8275338D01*
G01X16312717Y8281180D01*
G01X16307129Y8292610D01*
G01X16452163Y8395480D02*
G01X16434891Y8389638D01*
G01X16429303Y8378208D01*
G01X16429303Y8366778D01*
G01X16434891Y8355348D01*
G01X16446321Y8349760D01*
G01X16469181Y8343918D01*
G01X16486453Y8338330D01*
G01X16497883Y8326900D01*
G01X16503471Y8315470D01*
G01X16503471Y8298198D01*
G01X16497883Y8286768D01*
G01X16492041Y8281180D01*
G01X16475023Y8275338D01*
G01X16452163Y8275338D01*
G01X16434891Y8281180D01*
G01X16429303Y8286768D01*
G01X16423461Y8298198D01*
G01X16423461Y8315470D01*
G01X16429303Y8326900D01*
G01X16440733Y8338330D01*
G01X16457751Y8343918D01*
G01X16480611Y8349760D01*
G01X16492041Y8355348D01*
G01X16497883Y8366778D01*
G01X16497883Y8378208D01*
G01X16492041Y8389638D01*
G01X16475023Y8395480D01*
G01X16452163Y8395480D01*
G01X16557065Y8304040D02*
G01X16551223Y8298198D01*
G01X16557065Y8292610D01*
G01X16562653Y8298198D01*
G01X16557065Y8304040D01*
G01X16667555Y8395480D02*
G01X16610405Y8315470D01*
G01X16696257Y8315470D01*
G01X16667555Y8395480D02*
G01X16667555Y8275338D01*
G01X16744009Y8355348D02*
G01X16744009Y8275338D01*
G01X16744009Y8332488D02*
G01X16761281Y8349760D01*
G01X16772711Y8355348D01*
G01X16789729Y8355348D01*
G01X16801159Y8349760D01*
G01X16807001Y8332488D01*
G01X16807001Y8275338D01*
G01X16807001Y8332488D02*
G01X16824019Y8349760D01*
G01X16835449Y8355348D01*
G01X16852721Y8355348D01*
G01X16864151Y8349760D01*
G01X16869739Y8332488D01*
G01X16869739Y8275338D01*
G01X16917491Y8395480D02*
G01X16923333Y8389638D01*
G01X16928921Y8395480D01*
G01X16923333Y8401068D01*
G01X16917491Y8395480D01*
G01X16923333Y8355348D02*
G01X16923333Y8275338D01*
G01X16976673Y8395480D02*
G01X16976673Y8275338D01*
G01X17064557Y8418340D02*
G01X17053127Y8406910D01*
G01X17041697Y8389638D01*
G01X17030267Y8366778D01*
G01X17024425Y8338330D01*
G01X17024425Y8315470D01*
G01X17030267Y8286768D01*
G01X17041697Y8263908D01*
G01X17053127Y8246890D01*
G01X17064557Y8235460D01*
G01X17146599Y8395480D02*
G01X17129581Y8389638D01*
G01X17118151Y8372620D01*
G01X17112309Y8343918D01*
G01X17112309Y8326900D01*
G01X17118151Y8298198D01*
G01X17129581Y8281180D01*
G01X17146599Y8275338D01*
G01X17158029Y8275338D01*
G01X17175301Y8281180D01*
G01X17186731Y8298198D01*
G01X17192319Y8326900D01*
G01X17192319Y8343918D01*
G01X17186731Y8372620D01*
G01X17175301Y8389638D01*
G01X17158029Y8395480D01*
G01X17146599Y8395480D01*
G01X17245913Y8304040D02*
G01X17240071Y8298198D01*
G01X17245913Y8292610D01*
G01X17251501Y8298198D01*
G01X17245913Y8304040D01*
G01X17379263Y8395480D02*
G01X17322113Y8275338D01*
G01X17299253Y8395480D02*
G01X17379263Y8395480D01*
G01X17461305Y8395480D02*
G01X17444287Y8389638D01*
G01X17432857Y8372620D01*
G01X17427015Y8343918D01*
G01X17427015Y8326900D01*
G01X17432857Y8298198D01*
G01X17444287Y8281180D01*
G01X17461305Y8275338D01*
G01X17472735Y8275338D01*
G01X17490007Y8281180D01*
G01X17501437Y8298198D01*
G01X17507025Y8326900D01*
G01X17507025Y8343918D01*
G01X17501437Y8372620D01*
G01X17490007Y8389638D01*
G01X17472735Y8395480D01*
G01X17461305Y8395480D01*
G01X17589067Y8395480D02*
G01X17572049Y8389638D01*
G01X17560619Y8372620D01*
G01X17554777Y8343918D01*
G01X17554777Y8326900D01*
G01X17560619Y8298198D01*
G01X17572049Y8281180D01*
G01X17589067Y8275338D01*
G01X17600497Y8275338D01*
G01X17617769Y8281180D01*
G01X17629199Y8298198D01*
G01X17634787Y8326900D01*
G01X17634787Y8343918D01*
G01X17629199Y8372620D01*
G01X17617769Y8389638D01*
G01X17600497Y8395480D01*
G01X17589067Y8395480D01*
G01X17682539Y8355348D02*
G01X17745531Y8275338D01*
G01X17745531Y8355348D02*
G01X17682539Y8275338D01*
G01X17799125Y8366778D02*
G01X17799125Y8372620D01*
G01X17804713Y8384050D01*
G01X17810555Y8389638D01*
G01X17821985Y8395480D01*
G01X17844845Y8395480D01*
G01X17856275Y8389638D01*
G01X17861863Y8384050D01*
G01X17867705Y8372620D01*
G01X17867705Y8361190D01*
G01X17861863Y8349760D01*
G01X17850433Y8332488D01*
G01X17793283Y8275338D01*
G01X17873293Y8275338D01*
G01X17926887Y8304040D02*
G01X17921045Y8298198D01*
G01X17926887Y8292610D01*
G01X17932475Y8298198D01*
G01X17926887Y8304040D01*
G01X18048807Y8395480D02*
G01X17991657Y8395480D01*
G01X17986069Y8343918D01*
G01X17991657Y8349760D01*
G01X18008929Y8355348D01*
G01X18025947Y8355348D01*
G01X18043219Y8349760D01*
G01X18054649Y8338330D01*
G01X18060237Y8321058D01*
G01X18060237Y8309628D01*
G01X18054649Y8292610D01*
G01X18043219Y8281180D01*
G01X18025947Y8275338D01*
G01X18008929Y8275338D01*
G01X17991657Y8281180D01*
G01X17986069Y8286768D01*
G01X17980227Y8298198D01*
G01X18142279Y8395480D02*
G01X18125261Y8389638D01*
G01X18113831Y8372620D01*
G01X18107989Y8343918D01*
G01X18107989Y8326900D01*
G01X18113831Y8298198D01*
G01X18125261Y8281180D01*
G01X18142279Y8275338D01*
G01X18153709Y8275338D01*
G01X18170981Y8281180D01*
G01X18182411Y8298198D01*
G01X18187999Y8326900D01*
G01X18187999Y8343918D01*
G01X18182411Y8372620D01*
G01X18170981Y8389638D01*
G01X18153709Y8395480D01*
G01X18142279Y8395480D01*
G01X18270041Y8395480D02*
G01X18253023Y8389638D01*
G01X18241593Y8372620D01*
G01X18235751Y8343918D01*
G01X18235751Y8326900D01*
G01X18241593Y8298198D01*
G01X18253023Y8281180D01*
G01X18270041Y8275338D01*
G01X18281471Y8275338D01*
G01X18298743Y8281180D01*
G01X18310173Y8298198D01*
G01X18315761Y8326900D01*
G01X18315761Y8343918D01*
G01X18310173Y8372620D01*
G01X18298743Y8389638D01*
G01X18281471Y8395480D01*
G01X18270041Y8395480D01*
G01X18363513Y8355348D02*
G01X18363513Y8275338D01*
G01X18363513Y8332488D02*
G01X18380785Y8349760D01*
G01X18392215Y8355348D01*
G01X18409233Y8355348D01*
G01X18420663Y8349760D01*
G01X18426505Y8332488D01*
G01X18426505Y8275338D01*
G01X18426505Y8332488D02*
G01X18443523Y8349760D01*
G01X18454953Y8355348D01*
G01X18472225Y8355348D01*
G01X18483655Y8349760D01*
G01X18489243Y8332488D01*
G01X18489243Y8275338D01*
G01X18536995Y8355348D02*
G01X18536995Y8275338D01*
G01X18536995Y8332488D02*
G01X18554267Y8349760D01*
G01X18565697Y8355348D01*
G01X18582715Y8355348D01*
G01X18594145Y8349760D01*
G01X18599987Y8332488D01*
G01X18599987Y8275338D01*
G01X18599987Y8332488D02*
G01X18617005Y8349760D01*
G01X18628435Y8355348D01*
G01X18645707Y8355348D01*
G01X18657137Y8349760D01*
G01X18662725Y8332488D01*
G01X18662725Y8275338D01*
G01X18710477Y8418340D02*
G01X18721907Y8406910D01*
G01X18733337Y8389638D01*
G01X18744767Y8366778D01*
G01X18750609Y8338330D01*
G01X18750609Y8315470D01*
G01X18744767Y8286768D01*
G01X18733337Y8263908D01*
G01X18721907Y8246890D01*
G01X18710477Y8235460D01*
G01X19641786Y8395480D02*
G01X19641786Y8275338D01*
G01X19641786Y8395480D02*
G01X19693348Y8395480D01*
G01X19710366Y8389638D01*
G01X19716208Y8384050D01*
G01X19721796Y8372620D01*
G01X19721796Y8355348D01*
G01X19716208Y8343918D01*
G01X19710366Y8338330D01*
G01X19693348Y8332488D01*
G01X19641786Y8332488D01*
G01X19809680Y8395480D02*
G01X19809680Y8275338D01*
G01X19769548Y8395480D02*
G01X19849558Y8395480D01*
G01X19897310Y8395480D02*
G01X19897310Y8275338D01*
G01X19977320Y8395480D02*
G01X19977320Y8275338D01*
G01X19897310Y8338330D02*
G01X19977320Y8338330D01*
G01X21183203Y8378208D02*
G01X21171773Y8389638D01*
G01X21154755Y8395480D01*
G01X21131895Y8395480D01*
G01X21114623Y8389638D01*
G01X21103193Y8378208D01*
G01X21103193Y8366778D01*
G01X21109035Y8355348D01*
G01X21114623Y8349760D01*
G01X21126053Y8343918D01*
G01X21160343Y8332488D01*
G01X21171773Y8326900D01*
G01X21177615Y8321058D01*
G01X21183203Y8309628D01*
G01X21183203Y8292610D01*
G01X21171773Y8281180D01*
G01X21154755Y8275338D01*
G01X21131895Y8275338D01*
G01X21114623Y8281180D01*
G01X21103193Y8292610D01*
G01X21230955Y8395480D02*
G01X21230955Y8275338D01*
G01X21307409Y8355348D02*
G01X21295979Y8349760D01*
G01X21284549Y8338330D01*
G01X21278707Y8321058D01*
G01X21278707Y8309628D01*
G01X21284549Y8292610D01*
G01X21295979Y8281180D01*
G01X21307409Y8275338D01*
G01X21324427Y8275338D01*
G01X21335857Y8281180D01*
G01X21347287Y8292610D01*
G01X21353129Y8309628D01*
G01X21353129Y8321058D01*
G01X21347287Y8338330D01*
G01X21335857Y8349760D01*
G01X21324427Y8355348D01*
G01X21307409Y8355348D01*
G01X21418153Y8395480D02*
G01X21418153Y8298198D01*
G01X21423741Y8281180D01*
G01X21435171Y8275338D01*
G01X21446601Y8275338D01*
G01X21400881Y8355348D02*
G01X21441013Y8355348D01*
G01X22534375Y8395480D02*
G01X22534375Y8275338D01*
G01X22534375Y8395480D02*
G01X22585937Y8395480D01*
G01X22602955Y8389638D01*
G01X22608797Y8384050D01*
G01X22614385Y8372620D01*
G01X22614385Y8355348D01*
G01X22608797Y8343918D01*
G01X22602955Y8338330D01*
G01X22585937Y8332488D01*
G01X22534375Y8332488D01*
G01X22730717Y8355348D02*
G01X22730717Y8275338D01*
G01X22730717Y8338330D02*
G01X22719287Y8349760D01*
G01X22707857Y8355348D01*
G01X22690839Y8355348D01*
G01X22679409Y8349760D01*
G01X22667979Y8338330D01*
G01X22662137Y8321058D01*
G01X22662137Y8309628D01*
G01X22667979Y8292610D01*
G01X22679409Y8281180D01*
G01X22690839Y8275338D01*
G01X22707857Y8275338D01*
G01X22719287Y8281180D01*
G01X22730717Y8292610D01*
G01X22847049Y8395480D02*
G01X22847049Y8275338D01*
G01X22847049Y8338330D02*
G01X22835619Y8349760D01*
G01X22824189Y8355348D01*
G01X22807171Y8355348D01*
G01X22795741Y8349760D01*
G01X22784311Y8338330D01*
G01X22778469Y8321058D01*
G01X22778469Y8309628D01*
G01X22784311Y8292610D01*
G01X22795741Y8281180D01*
G01X22807171Y8275338D01*
G01X22824189Y8275338D01*
G01X22835619Y8281180D01*
G01X22847049Y8292610D01*
G01X24237844Y8395480D02*
G01X24226414Y8389638D01*
G01X24214984Y8378208D01*
G01X24209396Y8366778D01*
G01X24203554Y8349760D01*
G01X24203554Y8321058D01*
G01X24209396Y8304040D01*
G01X24214984Y8292610D01*
G01X24226414Y8281180D01*
G01X24237844Y8275338D01*
G01X24260704Y8275338D01*
G01X24272134Y8281180D01*
G01X24283564Y8292610D01*
G01X24289406Y8304040D01*
G01X24294994Y8321058D01*
G01X24294994Y8349760D01*
G01X24289406Y8366778D01*
G01X24283564Y8378208D01*
G01X24272134Y8389638D01*
G01X24260704Y8395480D01*
G01X24237844Y8395480D01*
G01X24342746Y8355348D02*
G01X24377036Y8275338D01*
G01X24411326Y8355348D02*
G01X24377036Y8275338D01*
G01X24527658Y8355348D02*
G01X24527658Y8275338D01*
G01X24527658Y8338330D02*
G01X24516228Y8349760D01*
G01X24504798Y8355348D01*
G01X24487780Y8355348D01*
G01X24476350Y8349760D01*
G01X24464920Y8338330D01*
G01X24459078Y8321058D01*
G01X24459078Y8309628D01*
G01X24464920Y8292610D01*
G01X24476350Y8281180D01*
G01X24487780Y8275338D01*
G01X24504798Y8275338D01*
G01X24516228Y8281180D01*
G01X24527658Y8292610D01*
G01X24575410Y8395480D02*
G01X24575410Y8275338D01*
G01X26163055Y8395480D02*
G01X26163055Y8275338D01*
G01X26122923Y8395480D02*
G01X26202933Y8395480D01*
G01X26279387Y8355348D02*
G01X26267957Y8349760D01*
G01X26256527Y8338330D01*
G01X26250685Y8321058D01*
G01X26250685Y8309628D01*
G01X26256527Y8292610D01*
G01X26267957Y8281180D01*
G01X26279387Y8275338D01*
G01X26296405Y8275338D01*
G01X26307835Y8281180D01*
G01X26319265Y8292610D01*
G01X26325107Y8309628D01*
G01X26325107Y8321058D01*
G01X26319265Y8338330D01*
G01X26307835Y8349760D01*
G01X26296405Y8355348D01*
G01X26279387Y8355348D01*
G01X26372859Y8355348D02*
G01X26372859Y8235460D01*
G01X26372859Y8338330D02*
G01X26384289Y8349760D01*
G01X26395719Y8355348D01*
G01X26412991Y8355348D01*
G01X26424421Y8349760D01*
G01X26435851Y8338330D01*
G01X26441439Y8321058D01*
G01X26441439Y8309628D01*
G01X26435851Y8292610D01*
G01X26424421Y8281180D01*
G01X26412991Y8275338D01*
G01X26395719Y8275338D01*
G01X26384289Y8281180D01*
G01X26372859Y8292610D01*
G01X26617207Y8395480D02*
G01X26617207Y8275338D01*
G01X26617207Y8275338D02*
G01X26685787Y8275338D01*
G01X26802119Y8355348D02*
G01X26802119Y8275338D01*
G01X26802119Y8338330D02*
G01X26790689Y8349760D01*
G01X26779259Y8355348D01*
G01X26762241Y8355348D01*
G01X26750811Y8349760D01*
G01X26739381Y8338330D01*
G01X26733539Y8321058D01*
G01X26733539Y8309628D01*
G01X26739381Y8292610D01*
G01X26750811Y8281180D01*
G01X26762241Y8275338D01*
G01X26779259Y8275338D01*
G01X26790689Y8281180D01*
G01X26802119Y8292610D01*
G01X26855713Y8355348D02*
G01X26890003Y8275338D01*
G01X26924293Y8355348D02*
G01X26890003Y8275338D01*
G01X26878573Y8252478D01*
G01X26867143Y8241048D01*
G01X26855713Y8235460D01*
G01X26849871Y8235460D01*
G01X26972045Y8321058D02*
G01X27040625Y8321058D01*
G01X27040625Y8332488D01*
G01X27035037Y8343918D01*
G01X27029195Y8349760D01*
G01X27017765Y8355348D01*
G01X27000747Y8355348D01*
G01X26989317Y8349760D01*
G01X26977887Y8338330D01*
G01X26972045Y8321058D01*
G01X26972045Y8309628D01*
G01X26977887Y8292610D01*
G01X26989317Y8281180D01*
G01X27000747Y8275338D01*
G01X27017765Y8275338D01*
G01X27029195Y8281180D01*
G01X27040625Y8292610D01*
G01X27088377Y8355348D02*
G01X27088377Y8275338D01*
G01X27088377Y8321058D02*
G01X27094219Y8338330D01*
G01X27105649Y8349760D01*
G01X27117079Y8355348D01*
G01X27134097Y8355348D01*
G01X27181849Y8326900D02*
G01X27284719Y8326900D01*
G01X27332471Y8395480D02*
G01X27332471Y8275338D01*
G01X27332471Y8395480D02*
G01X27384033Y8395480D01*
G01X27401051Y8389638D01*
G01X27406893Y8384050D01*
G01X27412481Y8372620D01*
G01X27412481Y8361190D01*
G01X27406893Y8349760D01*
G01X27401051Y8343918D01*
G01X27384033Y8338330D01*
G01X27332471Y8338330D02*
G01X27384033Y8338330D01*
G01X27401051Y8332488D01*
G01X27406893Y8326900D01*
G01X27412481Y8315470D01*
G01X27412481Y8298198D01*
G01X27406893Y8286768D01*
G01X27401051Y8281180D01*
G01X27384033Y8275338D01*
G01X27332471Y8275338D01*
G01X27488935Y8355348D02*
G01X27477505Y8349760D01*
G01X27466075Y8338330D01*
G01X27460233Y8321058D01*
G01X27460233Y8309628D01*
G01X27466075Y8292610D01*
G01X27477505Y8281180D01*
G01X27488935Y8275338D01*
G01X27505953Y8275338D01*
G01X27517383Y8281180D01*
G01X27528813Y8292610D01*
G01X27534655Y8309628D01*
G01X27534655Y8321058D01*
G01X27528813Y8338330D01*
G01X27517383Y8349760D01*
G01X27505953Y8355348D01*
G01X27488935Y8355348D01*
G01X27599679Y8395480D02*
G01X27599679Y8298198D01*
G01X27605267Y8281180D01*
G01X27616697Y8275338D01*
G01X27628127Y8275338D01*
G01X27582407Y8355348D02*
G01X27622539Y8355348D01*
G01X27693151Y8395480D02*
G01X27693151Y8298198D01*
G01X27698739Y8281180D01*
G01X27710169Y8275338D01*
G01X27721599Y8275338D01*
G01X27675879Y8355348D02*
G01X27716011Y8355348D01*
G01X27798053Y8355348D02*
G01X27786623Y8349760D01*
G01X27775193Y8338330D01*
G01X27769351Y8321058D01*
G01X27769351Y8309628D01*
G01X27775193Y8292610D01*
G01X27786623Y8281180D01*
G01X27798053Y8275338D01*
G01X27815071Y8275338D01*
G01X27826501Y8281180D01*
G01X27837931Y8292610D01*
G01X27843773Y8309628D01*
G01X27843773Y8321058D01*
G01X27837931Y8338330D01*
G01X27826501Y8349760D01*
G01X27815071Y8355348D01*
G01X27798053Y8355348D01*
G01X27891525Y8355348D02*
G01X27891525Y8275338D01*
G01X27891525Y8332488D02*
G01X27908797Y8349760D01*
G01X27920227Y8355348D01*
G01X27937245Y8355348D01*
G01X27948675Y8349760D01*
G01X27954517Y8332488D01*
G01X27954517Y8275338D01*
G01X27954517Y8332488D02*
G01X27971535Y8349760D01*
G01X27982965Y8355348D01*
G01X28000237Y8355348D01*
G01X28011667Y8349760D01*
G01X28017255Y8332488D01*
G01X28017255Y8275338D01*
G01X28193023Y8395480D02*
G01X28193023Y8275338D01*
G01X28193023Y8275338D02*
G01X28261603Y8275338D01*
G01X28377935Y8355348D02*
G01X28377935Y8275338D01*
G01X28377935Y8338330D02*
G01X28366505Y8349760D01*
G01X28355075Y8355348D01*
G01X28338057Y8355348D01*
G01X28326627Y8349760D01*
G01X28315197Y8338330D01*
G01X28309355Y8321058D01*
G01X28309355Y8309628D01*
G01X28315197Y8292610D01*
G01X28326627Y8281180D01*
G01X28338057Y8275338D01*
G01X28355075Y8275338D01*
G01X28366505Y8281180D01*
G01X28377935Y8292610D01*
G01X28431529Y8355348D02*
G01X28465819Y8275338D01*
G01X28500109Y8355348D02*
G01X28465819Y8275338D01*
G01X28454389Y8252478D01*
G01X28442959Y8241048D01*
G01X28431529Y8235460D01*
G01X28425687Y8235460D01*
G01X28547861Y8321058D02*
G01X28616441Y8321058D01*
G01X28616441Y8332488D01*
G01X28610853Y8343918D01*
G01X28605011Y8349760D01*
G01X28593581Y8355348D01*
G01X28576563Y8355348D01*
G01X28565133Y8349760D01*
G01X28553703Y8338330D01*
G01X28547861Y8321058D01*
G01X28547861Y8309628D01*
G01X28553703Y8292610D01*
G01X28565133Y8281180D01*
G01X28576563Y8275338D01*
G01X28593581Y8275338D01*
G01X28605011Y8281180D01*
G01X28616441Y8292610D01*
G01X28664193Y8355348D02*
G01X28664193Y8275338D01*
G01X28664193Y8321058D02*
G01X28670035Y8338330D01*
G01X28681465Y8349760D01*
G01X28692895Y8355348D01*
G01X28709913Y8355348D01*
G01X14408080Y7797636D02*
G01X14402492Y7809066D01*
G01X14385220Y7814908D01*
G01X14373790Y7814908D01*
G01X14356772Y7809066D01*
G01X14345342Y7792048D01*
G01X14339500Y7763346D01*
G01X14339500Y7734898D01*
G01X14345342Y7712038D01*
G01X14356772Y7700608D01*
G01X14373790Y7694766D01*
G01X14379632Y7694766D01*
G01X14396650Y7700608D01*
G01X14408080Y7712038D01*
G01X14413922Y7729056D01*
G01X14413922Y7734898D01*
G01X14408080Y7751916D01*
G01X14396650Y7763346D01*
G01X14379632Y7769188D01*
G01X14373790Y7769188D01*
G01X14356772Y7763346D01*
G01X14345342Y7751916D01*
G01X14339500Y7734898D01*
G01X15759505Y7786206D02*
G01X15759505Y7792048D01*
G01X15765093Y7803478D01*
G01X15770935Y7809066D01*
G01X15782365Y7814908D01*
G01X15805225Y7814908D01*
G01X15816655Y7809066D01*
G01X15822243Y7803478D01*
G01X15828085Y7792048D01*
G01X15828085Y7780618D01*
G01X15822243Y7769188D01*
G01X15810813Y7751916D01*
G01X15753663Y7694766D01*
G01X15833673Y7694766D01*
G01X15892855Y7814908D02*
G01X15955847Y7814908D01*
G01X15921557Y7769188D01*
G01X15938575Y7769188D01*
G01X15950005Y7763346D01*
G01X15955847Y7757758D01*
G01X15961435Y7740486D01*
G01X15961435Y7729056D01*
G01X15955847Y7712038D01*
G01X15944417Y7700608D01*
G01X15927145Y7694766D01*
G01X15910127Y7694766D01*
G01X15892855Y7700608D01*
G01X15887267Y7706196D01*
G01X15881425Y7717626D01*
G01X16015029Y7723468D02*
G01X16009187Y7717626D01*
G01X16015029Y7712038D01*
G01X16020617Y7717626D01*
G01X16015029Y7723468D01*
G01X16136949Y7797636D02*
G01X16131361Y7809066D01*
G01X16114089Y7814908D01*
G01X16102659Y7814908D01*
G01X16085641Y7809066D01*
G01X16074211Y7792048D01*
G01X16068369Y7763346D01*
G01X16068369Y7734898D01*
G01X16074211Y7712038D01*
G01X16085641Y7700608D01*
G01X16102659Y7694766D01*
G01X16108501Y7694766D01*
G01X16125519Y7700608D01*
G01X16136949Y7712038D01*
G01X16142791Y7729056D01*
G01X16142791Y7734898D01*
G01X16136949Y7751916D01*
G01X16125519Y7763346D01*
G01X16108501Y7769188D01*
G01X16102659Y7769188D01*
G01X16085641Y7763346D01*
G01X16074211Y7751916D01*
G01X16068369Y7734898D01*
G01X16190543Y7774776D02*
G01X16253535Y7694766D01*
G01X16253535Y7774776D02*
G01X16190543Y7694766D01*
G01X16369867Y7814908D02*
G01X16312717Y7814908D01*
G01X16307129Y7763346D01*
G01X16312717Y7769188D01*
G01X16329989Y7774776D01*
G01X16347007Y7774776D01*
G01X16364279Y7769188D01*
G01X16375709Y7757758D01*
G01X16381297Y7740486D01*
G01X16381297Y7729056D01*
G01X16375709Y7712038D01*
G01X16364279Y7700608D01*
G01X16347007Y7694766D01*
G01X16329989Y7694766D01*
G01X16312717Y7700608D01*
G01X16307129Y7706196D01*
G01X16301287Y7717626D01*
G01X16503471Y7774776D02*
G01X16497629Y7757758D01*
G01X16486199Y7746328D01*
G01X16469181Y7740486D01*
G01X16463339Y7740486D01*
G01X16446321Y7746328D01*
G01X16434891Y7757758D01*
G01X16429049Y7774776D01*
G01X16429049Y7780618D01*
G01X16434891Y7797636D01*
G01X16446321Y7809066D01*
G01X16463339Y7814908D01*
G01X16469181Y7814908D01*
G01X16486199Y7809066D01*
G01X16497629Y7797636D01*
G01X16503471Y7774776D01*
G01X16503471Y7746328D01*
G01X16497629Y7717626D01*
G01X16486199Y7700608D01*
G01X16469181Y7694766D01*
G01X16457751Y7694766D01*
G01X16440479Y7700608D01*
G01X16434891Y7712038D01*
G01X16557065Y7723468D02*
G01X16551223Y7717626D01*
G01X16557065Y7712038D01*
G01X16562653Y7717626D01*
G01X16557065Y7723468D01*
G01X16610405Y7792048D02*
G01X16621835Y7797636D01*
G01X16639107Y7814908D01*
G01X16639107Y7694766D01*
G01X16686859Y7774776D02*
G01X16686859Y7694766D01*
G01X16686859Y7751916D02*
G01X16704131Y7769188D01*
G01X16715561Y7774776D01*
G01X16732579Y7774776D01*
G01X16744009Y7769188D01*
G01X16749851Y7751916D01*
G01X16749851Y7694766D01*
G01X16749851Y7751916D02*
G01X16766869Y7769188D01*
G01X16778299Y7774776D01*
G01X16795571Y7774776D01*
G01X16807001Y7769188D01*
G01X16812589Y7751916D01*
G01X16812589Y7694766D01*
G01X16860341Y7814908D02*
G01X16866183Y7809066D01*
G01X16871771Y7814908D01*
G01X16866183Y7820496D01*
G01X16860341Y7814908D01*
G01X16866183Y7774776D02*
G01X16866183Y7694766D01*
G01X16919523Y7814908D02*
G01X16919523Y7694766D01*
G01X17007407Y7837768D02*
G01X16995977Y7826338D01*
G01X16984547Y7809066D01*
G01X16973117Y7786206D01*
G01X16967275Y7757758D01*
G01X16967275Y7734898D01*
G01X16973117Y7706196D01*
G01X16984547Y7683336D01*
G01X16995977Y7666318D01*
G01X17007407Y7654888D01*
G01X17089449Y7814908D02*
G01X17072431Y7809066D01*
G01X17061001Y7792048D01*
G01X17055159Y7763346D01*
G01X17055159Y7746328D01*
G01X17061001Y7717626D01*
G01X17072431Y7700608D01*
G01X17089449Y7694766D01*
G01X17100879Y7694766D01*
G01X17118151Y7700608D01*
G01X17129581Y7717626D01*
G01X17135169Y7746328D01*
G01X17135169Y7763346D01*
G01X17129581Y7792048D01*
G01X17118151Y7809066D01*
G01X17100879Y7814908D01*
G01X17089449Y7814908D01*
G01X17188763Y7723468D02*
G01X17182921Y7717626D01*
G01X17188763Y7712038D01*
G01X17194351Y7717626D01*
G01X17188763Y7723468D01*
G01X17310683Y7797636D02*
G01X17305095Y7809066D01*
G01X17287823Y7814908D01*
G01X17276393Y7814908D01*
G01X17259375Y7809066D01*
G01X17247945Y7792048D01*
G01X17242103Y7763346D01*
G01X17242103Y7734898D01*
G01X17247945Y7712038D01*
G01X17259375Y7700608D01*
G01X17276393Y7694766D01*
G01X17282235Y7694766D01*
G01X17299253Y7700608D01*
G01X17310683Y7712038D01*
G01X17316525Y7729056D01*
G01X17316525Y7734898D01*
G01X17310683Y7751916D01*
G01X17299253Y7763346D01*
G01X17282235Y7769188D01*
G01X17276393Y7769188D01*
G01X17259375Y7763346D01*
G01X17247945Y7751916D01*
G01X17242103Y7734898D01*
G01X17398567Y7814908D02*
G01X17381549Y7809066D01*
G01X17370119Y7792048D01*
G01X17364277Y7763346D01*
G01X17364277Y7746328D01*
G01X17370119Y7717626D01*
G01X17381549Y7700608D01*
G01X17398567Y7694766D01*
G01X17409997Y7694766D01*
G01X17427269Y7700608D01*
G01X17438699Y7717626D01*
G01X17444287Y7746328D01*
G01X17444287Y7763346D01*
G01X17438699Y7792048D01*
G01X17427269Y7809066D01*
G01X17409997Y7814908D01*
G01X17398567Y7814908D01*
G01X17526329Y7814908D02*
G01X17509311Y7809066D01*
G01X17497881Y7792048D01*
G01X17492039Y7763346D01*
G01X17492039Y7746328D01*
G01X17497881Y7717626D01*
G01X17509311Y7700608D01*
G01X17526329Y7694766D01*
G01X17537759Y7694766D01*
G01X17555031Y7700608D01*
G01X17566461Y7717626D01*
G01X17572049Y7746328D01*
G01X17572049Y7763346D01*
G01X17566461Y7792048D01*
G01X17555031Y7809066D01*
G01X17537759Y7814908D01*
G01X17526329Y7814908D01*
G01X17619801Y7774776D02*
G01X17682793Y7694766D01*
G01X17682793Y7774776D02*
G01X17619801Y7694766D01*
G01X17730545Y7792048D02*
G01X17741975Y7797636D01*
G01X17759247Y7814908D01*
G01X17759247Y7694766D01*
G01X17812841Y7723468D02*
G01X17806999Y7717626D01*
G01X17812841Y7712038D01*
G01X17818429Y7717626D01*
G01X17812841Y7723468D01*
G01X17934761Y7814908D02*
G01X17877611Y7814908D01*
G01X17872023Y7763346D01*
G01X17877611Y7769188D01*
G01X17894883Y7774776D01*
G01X17911901Y7774776D01*
G01X17929173Y7769188D01*
G01X17940603Y7757758D01*
G01X17946191Y7740486D01*
G01X17946191Y7729056D01*
G01X17940603Y7712038D01*
G01X17929173Y7700608D01*
G01X17911901Y7694766D01*
G01X17894883Y7694766D01*
G01X17877611Y7700608D01*
G01X17872023Y7706196D01*
G01X17866181Y7717626D01*
G01X18028233Y7814908D02*
G01X18011215Y7809066D01*
G01X17999785Y7792048D01*
G01X17993943Y7763346D01*
G01X17993943Y7746328D01*
G01X17999785Y7717626D01*
G01X18011215Y7700608D01*
G01X18028233Y7694766D01*
G01X18039663Y7694766D01*
G01X18056935Y7700608D01*
G01X18068365Y7717626D01*
G01X18073953Y7746328D01*
G01X18073953Y7763346D01*
G01X18068365Y7792048D01*
G01X18056935Y7809066D01*
G01X18039663Y7814908D01*
G01X18028233Y7814908D01*
G01X18155995Y7814908D02*
G01X18138977Y7809066D01*
G01X18127547Y7792048D01*
G01X18121705Y7763346D01*
G01X18121705Y7746328D01*
G01X18127547Y7717626D01*
G01X18138977Y7700608D01*
G01X18155995Y7694766D01*
G01X18167425Y7694766D01*
G01X18184697Y7700608D01*
G01X18196127Y7717626D01*
G01X18201715Y7746328D01*
G01X18201715Y7763346D01*
G01X18196127Y7792048D01*
G01X18184697Y7809066D01*
G01X18167425Y7814908D01*
G01X18155995Y7814908D01*
G01X18249467Y7774776D02*
G01X18249467Y7694766D01*
G01X18249467Y7751916D02*
G01X18266739Y7769188D01*
G01X18278169Y7774776D01*
G01X18295187Y7774776D01*
G01X18306617Y7769188D01*
G01X18312459Y7751916D01*
G01X18312459Y7694766D01*
G01X18312459Y7751916D02*
G01X18329477Y7769188D01*
G01X18340907Y7774776D01*
G01X18358179Y7774776D01*
G01X18369609Y7769188D01*
G01X18375197Y7751916D01*
G01X18375197Y7694766D01*
G01X18422949Y7774776D02*
G01X18422949Y7694766D01*
G01X18422949Y7751916D02*
G01X18440221Y7769188D01*
G01X18451651Y7774776D01*
G01X18468669Y7774776D01*
G01X18480099Y7769188D01*
G01X18485941Y7751916D01*
G01X18485941Y7694766D01*
G01X18485941Y7751916D02*
G01X18502959Y7769188D01*
G01X18514389Y7774776D01*
G01X18531661Y7774776D01*
G01X18543091Y7769188D01*
G01X18548679Y7751916D01*
G01X18548679Y7694766D01*
G01X18596431Y7837768D02*
G01X18607861Y7826338D01*
G01X18619291Y7809066D01*
G01X18630721Y7786206D01*
G01X18636563Y7757758D01*
G01X18636563Y7734898D01*
G01X18630721Y7706196D01*
G01X18619291Y7683336D01*
G01X18607861Y7666318D01*
G01X18596431Y7654888D01*
G01X19641786Y7814908D02*
G01X19641786Y7694766D01*
G01X19641786Y7814908D02*
G01X19693348Y7814908D01*
G01X19710366Y7809066D01*
G01X19716208Y7803478D01*
G01X19721796Y7792048D01*
G01X19721796Y7774776D01*
G01X19716208Y7763346D01*
G01X19710366Y7757758D01*
G01X19693348Y7751916D01*
G01X19641786Y7751916D01*
G01X19809680Y7814908D02*
G01X19809680Y7694766D01*
G01X19769548Y7814908D02*
G01X19849558Y7814908D01*
G01X19897310Y7814908D02*
G01X19897310Y7694766D01*
G01X19977320Y7814908D02*
G01X19977320Y7694766D01*
G01X19897310Y7757758D02*
G01X19977320Y7757758D01*
G01X21183203Y7797636D02*
G01X21171773Y7809066D01*
G01X21154755Y7814908D01*
G01X21131895Y7814908D01*
G01X21114623Y7809066D01*
G01X21103193Y7797636D01*
G01X21103193Y7786206D01*
G01X21109035Y7774776D01*
G01X21114623Y7769188D01*
G01X21126053Y7763346D01*
G01X21160343Y7751916D01*
G01X21171773Y7746328D01*
G01X21177615Y7740486D01*
G01X21183203Y7729056D01*
G01X21183203Y7712038D01*
G01X21171773Y7700608D01*
G01X21154755Y7694766D01*
G01X21131895Y7694766D01*
G01X21114623Y7700608D01*
G01X21103193Y7712038D01*
G01X21230955Y7814908D02*
G01X21230955Y7694766D01*
G01X21307409Y7774776D02*
G01X21295979Y7769188D01*
G01X21284549Y7757758D01*
G01X21278707Y7740486D01*
G01X21278707Y7729056D01*
G01X21284549Y7712038D01*
G01X21295979Y7700608D01*
G01X21307409Y7694766D01*
G01X21324427Y7694766D01*
G01X21335857Y7700608D01*
G01X21347287Y7712038D01*
G01X21353129Y7729056D01*
G01X21353129Y7740486D01*
G01X21347287Y7757758D01*
G01X21335857Y7769188D01*
G01X21324427Y7774776D01*
G01X21307409Y7774776D01*
G01X21418153Y7814908D02*
G01X21418153Y7717626D01*
G01X21423741Y7700608D01*
G01X21435171Y7694766D01*
G01X21446601Y7694766D01*
G01X21400881Y7774776D02*
G01X21441013Y7774776D01*
G01X22534375Y7814908D02*
G01X22534375Y7694766D01*
G01X22534375Y7814908D02*
G01X22585937Y7814908D01*
G01X22602955Y7809066D01*
G01X22608797Y7803478D01*
G01X22614385Y7792048D01*
G01X22614385Y7774776D01*
G01X22608797Y7763346D01*
G01X22602955Y7757758D01*
G01X22585937Y7751916D01*
G01X22534375Y7751916D01*
G01X22730717Y7774776D02*
G01X22730717Y7694766D01*
G01X22730717Y7757758D02*
G01X22719287Y7769188D01*
G01X22707857Y7774776D01*
G01X22690839Y7774776D01*
G01X22679409Y7769188D01*
G01X22667979Y7757758D01*
G01X22662137Y7740486D01*
G01X22662137Y7729056D01*
G01X22667979Y7712038D01*
G01X22679409Y7700608D01*
G01X22690839Y7694766D01*
G01X22707857Y7694766D01*
G01X22719287Y7700608D01*
G01X22730717Y7712038D01*
G01X22847049Y7814908D02*
G01X22847049Y7694766D01*
G01X22847049Y7757758D02*
G01X22835619Y7769188D01*
G01X22824189Y7774776D01*
G01X22807171Y7774776D01*
G01X22795741Y7769188D01*
G01X22784311Y7757758D01*
G01X22778469Y7740486D01*
G01X22778469Y7729056D01*
G01X22784311Y7712038D01*
G01X22795741Y7700608D01*
G01X22807171Y7694766D01*
G01X22824189Y7694766D01*
G01X22835619Y7700608D01*
G01X22847049Y7712038D01*
G01X24237844Y7814908D02*
G01X24226414Y7809066D01*
G01X24214984Y7797636D01*
G01X24209396Y7786206D01*
G01X24203554Y7769188D01*
G01X24203554Y7740486D01*
G01X24209396Y7723468D01*
G01X24214984Y7712038D01*
G01X24226414Y7700608D01*
G01X24237844Y7694766D01*
G01X24260704Y7694766D01*
G01X24272134Y7700608D01*
G01X24283564Y7712038D01*
G01X24289406Y7723468D01*
G01X24294994Y7740486D01*
G01X24294994Y7769188D01*
G01X24289406Y7786206D01*
G01X24283564Y7797636D01*
G01X24272134Y7809066D01*
G01X24260704Y7814908D01*
G01X24237844Y7814908D01*
G01X24342746Y7774776D02*
G01X24377036Y7694766D01*
G01X24411326Y7774776D02*
G01X24377036Y7694766D01*
G01X24527658Y7774776D02*
G01X24527658Y7694766D01*
G01X24527658Y7757758D02*
G01X24516228Y7769188D01*
G01X24504798Y7774776D01*
G01X24487780Y7774776D01*
G01X24476350Y7769188D01*
G01X24464920Y7757758D01*
G01X24459078Y7740486D01*
G01X24459078Y7729056D01*
G01X24464920Y7712038D01*
G01X24476350Y7700608D01*
G01X24487780Y7694766D01*
G01X24504798Y7694766D01*
G01X24516228Y7700608D01*
G01X24527658Y7712038D01*
G01X24575410Y7814908D02*
G01X24575410Y7694766D01*
G01X26163055Y7814908D02*
G01X26163055Y7694766D01*
G01X26122923Y7814908D02*
G01X26202933Y7814908D01*
G01X26279387Y7774776D02*
G01X26267957Y7769188D01*
G01X26256527Y7757758D01*
G01X26250685Y7740486D01*
G01X26250685Y7729056D01*
G01X26256527Y7712038D01*
G01X26267957Y7700608D01*
G01X26279387Y7694766D01*
G01X26296405Y7694766D01*
G01X26307835Y7700608D01*
G01X26319265Y7712038D01*
G01X26325107Y7729056D01*
G01X26325107Y7740486D01*
G01X26319265Y7757758D01*
G01X26307835Y7769188D01*
G01X26296405Y7774776D01*
G01X26279387Y7774776D01*
G01X26372859Y7774776D02*
G01X26372859Y7654888D01*
G01X26372859Y7757758D02*
G01X26384289Y7769188D01*
G01X26395719Y7774776D01*
G01X26412991Y7774776D01*
G01X26424421Y7769188D01*
G01X26435851Y7757758D01*
G01X26441439Y7740486D01*
G01X26441439Y7729056D01*
G01X26435851Y7712038D01*
G01X26424421Y7700608D01*
G01X26412991Y7694766D01*
G01X26395719Y7694766D01*
G01X26384289Y7700608D01*
G01X26372859Y7712038D01*
G01X26617207Y7814908D02*
G01X26617207Y7694766D01*
G01X26617207Y7694766D02*
G01X26685787Y7694766D01*
G01X26802119Y7774776D02*
G01X26802119Y7694766D01*
G01X26802119Y7757758D02*
G01X26790689Y7769188D01*
G01X26779259Y7774776D01*
G01X26762241Y7774776D01*
G01X26750811Y7769188D01*
G01X26739381Y7757758D01*
G01X26733539Y7740486D01*
G01X26733539Y7729056D01*
G01X26739381Y7712038D01*
G01X26750811Y7700608D01*
G01X26762241Y7694766D01*
G01X26779259Y7694766D01*
G01X26790689Y7700608D01*
G01X26802119Y7712038D01*
G01X26855713Y7774776D02*
G01X26890003Y7694766D01*
G01X26924293Y7774776D02*
G01X26890003Y7694766D01*
G01X26878573Y7671906D01*
G01X26867143Y7660476D01*
G01X26855713Y7654888D01*
G01X26849871Y7654888D01*
G01X26972045Y7740486D02*
G01X27040625Y7740486D01*
G01X27040625Y7751916D01*
G01X27035037Y7763346D01*
G01X27029195Y7769188D01*
G01X27017765Y7774776D01*
G01X27000747Y7774776D01*
G01X26989317Y7769188D01*
G01X26977887Y7757758D01*
G01X26972045Y7740486D01*
G01X26972045Y7729056D01*
G01X26977887Y7712038D01*
G01X26989317Y7700608D01*
G01X27000747Y7694766D01*
G01X27017765Y7694766D01*
G01X27029195Y7700608D01*
G01X27040625Y7712038D01*
G01X27088377Y7774776D02*
G01X27088377Y7694766D01*
G01X27088377Y7740486D02*
G01X27094219Y7757758D01*
G01X27105649Y7769188D01*
G01X27117079Y7774776D01*
G01X27134097Y7774776D01*
G01X27181849Y7746328D02*
G01X27284719Y7746328D01*
G01X27332471Y7814908D02*
G01X27332471Y7694766D01*
G01X27332471Y7814908D02*
G01X27384033Y7814908D01*
G01X27401051Y7809066D01*
G01X27406893Y7803478D01*
G01X27412481Y7792048D01*
G01X27412481Y7780618D01*
G01X27406893Y7769188D01*
G01X27401051Y7763346D01*
G01X27384033Y7757758D01*
G01X27332471Y7757758D02*
G01X27384033Y7757758D01*
G01X27401051Y7751916D01*
G01X27406893Y7746328D01*
G01X27412481Y7734898D01*
G01X27412481Y7717626D01*
G01X27406893Y7706196D01*
G01X27401051Y7700608D01*
G01X27384033Y7694766D01*
G01X27332471Y7694766D01*
G01X27488935Y7774776D02*
G01X27477505Y7769188D01*
G01X27466075Y7757758D01*
G01X27460233Y7740486D01*
G01X27460233Y7729056D01*
G01X27466075Y7712038D01*
G01X27477505Y7700608D01*
G01X27488935Y7694766D01*
G01X27505953Y7694766D01*
G01X27517383Y7700608D01*
G01X27528813Y7712038D01*
G01X27534655Y7729056D01*
G01X27534655Y7740486D01*
G01X27528813Y7757758D01*
G01X27517383Y7769188D01*
G01X27505953Y7774776D01*
G01X27488935Y7774776D01*
G01X27599679Y7814908D02*
G01X27599679Y7717626D01*
G01X27605267Y7700608D01*
G01X27616697Y7694766D01*
G01X27628127Y7694766D01*
G01X27582407Y7774776D02*
G01X27622539Y7774776D01*
G01X27693151Y7814908D02*
G01X27693151Y7717626D01*
G01X27698739Y7700608D01*
G01X27710169Y7694766D01*
G01X27721599Y7694766D01*
G01X27675879Y7774776D02*
G01X27716011Y7774776D01*
G01X27798053Y7774776D02*
G01X27786623Y7769188D01*
G01X27775193Y7757758D01*
G01X27769351Y7740486D01*
G01X27769351Y7729056D01*
G01X27775193Y7712038D01*
G01X27786623Y7700608D01*
G01X27798053Y7694766D01*
G01X27815071Y7694766D01*
G01X27826501Y7700608D01*
G01X27837931Y7712038D01*
G01X27843773Y7729056D01*
G01X27843773Y7740486D01*
G01X27837931Y7757758D01*
G01X27826501Y7769188D01*
G01X27815071Y7774776D01*
G01X27798053Y7774776D01*
G01X27891525Y7774776D02*
G01X27891525Y7694766D01*
G01X27891525Y7751916D02*
G01X27908797Y7769188D01*
G01X27920227Y7774776D01*
G01X27937245Y7774776D01*
G01X27948675Y7769188D01*
G01X27954517Y7751916D01*
G01X27954517Y7694766D01*
G01X27954517Y7751916D02*
G01X27971535Y7769188D01*
G01X27982965Y7774776D01*
G01X28000237Y7774776D01*
G01X28011667Y7769188D01*
G01X28017255Y7751916D01*
G01X28017255Y7694766D01*
G01X28193023Y7814908D02*
G01X28193023Y7694766D01*
G01X28193023Y7694766D02*
G01X28261603Y7694766D01*
G01X28377935Y7774776D02*
G01X28377935Y7694766D01*
G01X28377935Y7757758D02*
G01X28366505Y7769188D01*
G01X28355075Y7774776D01*
G01X28338057Y7774776D01*
G01X28326627Y7769188D01*
G01X28315197Y7757758D01*
G01X28309355Y7740486D01*
G01X28309355Y7729056D01*
G01X28315197Y7712038D01*
G01X28326627Y7700608D01*
G01X28338057Y7694766D01*
G01X28355075Y7694766D01*
G01X28366505Y7700608D01*
G01X28377935Y7712038D01*
G01X28431529Y7774776D02*
G01X28465819Y7694766D01*
G01X28500109Y7774776D02*
G01X28465819Y7694766D01*
G01X28454389Y7671906D01*
G01X28442959Y7660476D01*
G01X28431529Y7654888D01*
G01X28425687Y7654888D01*
G01X28547861Y7740486D02*
G01X28616441Y7740486D01*
G01X28616441Y7751916D01*
G01X28610853Y7763346D01*
G01X28605011Y7769188D01*
G01X28593581Y7774776D01*
G01X28576563Y7774776D01*
G01X28565133Y7769188D01*
G01X28553703Y7757758D01*
G01X28547861Y7740486D01*
G01X28547861Y7729056D01*
G01X28553703Y7712038D01*
G01X28565133Y7700608D01*
G01X28576563Y7694766D01*
G01X28593581Y7694766D01*
G01X28605011Y7700608D01*
G01X28616441Y7712038D01*
G01X28664193Y7774776D02*
G01X28664193Y7694766D01*
G01X28664193Y7740486D02*
G01X28670035Y7757758D01*
G01X28681465Y7769188D01*
G01X28692895Y7774776D01*
G01X28709913Y7774776D01*
G01X14408080Y7217065D02*
G01X14402492Y7228495D01*
G01X14385220Y7234337D01*
G01X14373790Y7234337D01*
G01X14356772Y7228495D01*
G01X14345342Y7211477D01*
G01X14339500Y7182775D01*
G01X14339500Y7154327D01*
G01X14345342Y7131467D01*
G01X14356772Y7120037D01*
G01X14373790Y7114195D01*
G01X14379632Y7114195D01*
G01X14396650Y7120037D01*
G01X14408080Y7131467D01*
G01X14413922Y7148485D01*
G01X14413922Y7154327D01*
G01X14408080Y7171345D01*
G01X14396650Y7182775D01*
G01X14379632Y7188617D01*
G01X14373790Y7188617D01*
G01X14356772Y7182775D01*
G01X14345342Y7171345D01*
G01X14339500Y7154327D01*
G01X15759505Y7205635D02*
G01X15759505Y7211477D01*
G01X15765093Y7222907D01*
G01X15770935Y7228495D01*
G01X15782365Y7234337D01*
G01X15805225Y7234337D01*
G01X15816655Y7228495D01*
G01X15822243Y7222907D01*
G01X15828085Y7211477D01*
G01X15828085Y7200047D01*
G01X15822243Y7188617D01*
G01X15810813Y7171345D01*
G01X15753663Y7114195D01*
G01X15833673Y7114195D01*
G01X15892855Y7234337D02*
G01X15955847Y7234337D01*
G01X15921557Y7188617D01*
G01X15938575Y7188617D01*
G01X15950005Y7182775D01*
G01X15955847Y7177187D01*
G01X15961435Y7159915D01*
G01X15961435Y7148485D01*
G01X15955847Y7131467D01*
G01X15944417Y7120037D01*
G01X15927145Y7114195D01*
G01X15910127Y7114195D01*
G01X15892855Y7120037D01*
G01X15887267Y7125625D01*
G01X15881425Y7137055D01*
G01X16015029Y7142897D02*
G01X16009187Y7137055D01*
G01X16015029Y7131467D01*
G01X16020617Y7137055D01*
G01X16015029Y7142897D01*
G01X16136949Y7217065D02*
G01X16131361Y7228495D01*
G01X16114089Y7234337D01*
G01X16102659Y7234337D01*
G01X16085641Y7228495D01*
G01X16074211Y7211477D01*
G01X16068369Y7182775D01*
G01X16068369Y7154327D01*
G01X16074211Y7131467D01*
G01X16085641Y7120037D01*
G01X16102659Y7114195D01*
G01X16108501Y7114195D01*
G01X16125519Y7120037D01*
G01X16136949Y7131467D01*
G01X16142791Y7148485D01*
G01X16142791Y7154327D01*
G01X16136949Y7171345D01*
G01X16125519Y7182775D01*
G01X16108501Y7188617D01*
G01X16102659Y7188617D01*
G01X16085641Y7182775D01*
G01X16074211Y7171345D01*
G01X16068369Y7154327D01*
G01X16190543Y7194205D02*
G01X16253535Y7114195D01*
G01X16253535Y7194205D02*
G01X16190543Y7114195D01*
G01X16358437Y7234337D02*
G01X16301287Y7154327D01*
G01X16387139Y7154327D01*
G01X16358437Y7234337D02*
G01X16358437Y7114195D01*
G01X16514901Y7234337D02*
G01X16457751Y7114195D01*
G01X16434891Y7234337D02*
G01X16514901Y7234337D01*
G01X16568495Y7142897D02*
G01X16562653Y7137055D01*
G01X16568495Y7131467D01*
G01X16574083Y7137055D01*
G01X16568495Y7142897D01*
G01X16627677Y7205635D02*
G01X16627677Y7211477D01*
G01X16633265Y7222907D01*
G01X16639107Y7228495D01*
G01X16650537Y7234337D01*
G01X16673397Y7234337D01*
G01X16684827Y7228495D01*
G01X16690415Y7222907D01*
G01X16696257Y7211477D01*
G01X16696257Y7200047D01*
G01X16690415Y7188617D01*
G01X16678985Y7171345D01*
G01X16621835Y7114195D01*
G01X16701845Y7114195D01*
G01X16749597Y7194205D02*
G01X16749597Y7114195D01*
G01X16749597Y7171345D02*
G01X16766869Y7188617D01*
G01X16778299Y7194205D01*
G01X16795317Y7194205D01*
G01X16806747Y7188617D01*
G01X16812589Y7171345D01*
G01X16812589Y7114195D01*
G01X16812589Y7171345D02*
G01X16829607Y7188617D01*
G01X16841037Y7194205D01*
G01X16858309Y7194205D01*
G01X16869739Y7188617D01*
G01X16875327Y7171345D01*
G01X16875327Y7114195D01*
G01X16923079Y7234337D02*
G01X16928921Y7228495D01*
G01X16934509Y7234337D01*
G01X16928921Y7239925D01*
G01X16923079Y7234337D01*
G01X16928921Y7194205D02*
G01X16928921Y7114195D01*
G01X16982261Y7234337D02*
G01X16982261Y7114195D01*
G01X17070145Y7257197D02*
G01X17058715Y7245767D01*
G01X17047285Y7228495D01*
G01X17035855Y7205635D01*
G01X17030013Y7177187D01*
G01X17030013Y7154327D01*
G01X17035855Y7125625D01*
G01X17047285Y7102765D01*
G01X17058715Y7085747D01*
G01X17070145Y7074317D01*
G01X17152187Y7234337D02*
G01X17135169Y7228495D01*
G01X17123739Y7211477D01*
G01X17117897Y7182775D01*
G01X17117897Y7165757D01*
G01X17123739Y7137055D01*
G01X17135169Y7120037D01*
G01X17152187Y7114195D01*
G01X17163617Y7114195D01*
G01X17180889Y7120037D01*
G01X17192319Y7137055D01*
G01X17197907Y7165757D01*
G01X17197907Y7182775D01*
G01X17192319Y7211477D01*
G01X17180889Y7228495D01*
G01X17163617Y7234337D01*
G01X17152187Y7234337D01*
G01X17251501Y7142897D02*
G01X17245659Y7137055D01*
G01X17251501Y7131467D01*
G01X17257089Y7137055D01*
G01X17251501Y7142897D01*
G01X17373421Y7217065D02*
G01X17367833Y7228495D01*
G01X17350561Y7234337D01*
G01X17339131Y7234337D01*
G01X17322113Y7228495D01*
G01X17310683Y7211477D01*
G01X17304841Y7182775D01*
G01X17304841Y7154327D01*
G01X17310683Y7131467D01*
G01X17322113Y7120037D01*
G01X17339131Y7114195D01*
G01X17344973Y7114195D01*
G01X17361991Y7120037D01*
G01X17373421Y7131467D01*
G01X17379263Y7148485D01*
G01X17379263Y7154327D01*
G01X17373421Y7171345D01*
G01X17361991Y7182775D01*
G01X17344973Y7188617D01*
G01X17339131Y7188617D01*
G01X17322113Y7182775D01*
G01X17310683Y7171345D01*
G01X17304841Y7154327D01*
G01X17461305Y7234337D02*
G01X17444287Y7228495D01*
G01X17432857Y7211477D01*
G01X17427015Y7182775D01*
G01X17427015Y7165757D01*
G01X17432857Y7137055D01*
G01X17444287Y7120037D01*
G01X17461305Y7114195D01*
G01X17472735Y7114195D01*
G01X17490007Y7120037D01*
G01X17501437Y7137055D01*
G01X17507025Y7165757D01*
G01X17507025Y7182775D01*
G01X17501437Y7211477D01*
G01X17490007Y7228495D01*
G01X17472735Y7234337D01*
G01X17461305Y7234337D01*
G01X17589067Y7234337D02*
G01X17572049Y7228495D01*
G01X17560619Y7211477D01*
G01X17554777Y7182775D01*
G01X17554777Y7165757D01*
G01X17560619Y7137055D01*
G01X17572049Y7120037D01*
G01X17589067Y7114195D01*
G01X17600497Y7114195D01*
G01X17617769Y7120037D01*
G01X17629199Y7137055D01*
G01X17634787Y7165757D01*
G01X17634787Y7182775D01*
G01X17629199Y7211477D01*
G01X17617769Y7228495D01*
G01X17600497Y7234337D01*
G01X17589067Y7234337D01*
G01X17682539Y7194205D02*
G01X17745531Y7114195D01*
G01X17745531Y7194205D02*
G01X17682539Y7114195D01*
G01X17793283Y7211477D02*
G01X17804713Y7217065D01*
G01X17821985Y7234337D01*
G01X17821985Y7114195D01*
G01X17875579Y7142897D02*
G01X17869737Y7137055D01*
G01X17875579Y7131467D01*
G01X17881167Y7137055D01*
G01X17875579Y7142897D01*
G01X17934761Y7205635D02*
G01X17934761Y7211477D01*
G01X17940349Y7222907D01*
G01X17946191Y7228495D01*
G01X17957621Y7234337D01*
G01X17980481Y7234337D01*
G01X17991911Y7228495D01*
G01X17997499Y7222907D01*
G01X18003341Y7211477D01*
G01X18003341Y7200047D01*
G01X17997499Y7188617D01*
G01X17986069Y7171345D01*
G01X17928919Y7114195D01*
G01X18008929Y7114195D01*
G01X18090971Y7234337D02*
G01X18073953Y7228495D01*
G01X18062523Y7211477D01*
G01X18056681Y7182775D01*
G01X18056681Y7165757D01*
G01X18062523Y7137055D01*
G01X18073953Y7120037D01*
G01X18090971Y7114195D01*
G01X18102401Y7114195D01*
G01X18119673Y7120037D01*
G01X18131103Y7137055D01*
G01X18136691Y7165757D01*
G01X18136691Y7182775D01*
G01X18131103Y7211477D01*
G01X18119673Y7228495D01*
G01X18102401Y7234337D01*
G01X18090971Y7234337D01*
G01X18218733Y7234337D02*
G01X18201715Y7228495D01*
G01X18190285Y7211477D01*
G01X18184443Y7182775D01*
G01X18184443Y7165757D01*
G01X18190285Y7137055D01*
G01X18201715Y7120037D01*
G01X18218733Y7114195D01*
G01X18230163Y7114195D01*
G01X18247435Y7120037D01*
G01X18258865Y7137055D01*
G01X18264453Y7165757D01*
G01X18264453Y7182775D01*
G01X18258865Y7211477D01*
G01X18247435Y7228495D01*
G01X18230163Y7234337D01*
G01X18218733Y7234337D01*
G01X18312205Y7194205D02*
G01X18312205Y7114195D01*
G01X18312205Y7171345D02*
G01X18329477Y7188617D01*
G01X18340907Y7194205D01*
G01X18357925Y7194205D01*
G01X18369355Y7188617D01*
G01X18375197Y7171345D01*
G01X18375197Y7114195D01*
G01X18375197Y7171345D02*
G01X18392215Y7188617D01*
G01X18403645Y7194205D01*
G01X18420917Y7194205D01*
G01X18432347Y7188617D01*
G01X18437935Y7171345D01*
G01X18437935Y7114195D01*
G01X18485687Y7194205D02*
G01X18485687Y7114195D01*
G01X18485687Y7171345D02*
G01X18502959Y7188617D01*
G01X18514389Y7194205D01*
G01X18531407Y7194205D01*
G01X18542837Y7188617D01*
G01X18548679Y7171345D01*
G01X18548679Y7114195D01*
G01X18548679Y7171345D02*
G01X18565697Y7188617D01*
G01X18577127Y7194205D01*
G01X18594399Y7194205D01*
G01X18605829Y7188617D01*
G01X18611417Y7171345D01*
G01X18611417Y7114195D01*
G01X18659169Y7257197D02*
G01X18670599Y7245767D01*
G01X18682029Y7228495D01*
G01X18693459Y7205635D01*
G01X18699301Y7177187D01*
G01X18699301Y7154327D01*
G01X18693459Y7125625D01*
G01X18682029Y7102765D01*
G01X18670599Y7085747D01*
G01X18659169Y7074317D01*
G01X19641786Y7234337D02*
G01X19641786Y7114195D01*
G01X19641786Y7234337D02*
G01X19693348Y7234337D01*
G01X19710366Y7228495D01*
G01X19716208Y7222907D01*
G01X19721796Y7211477D01*
G01X19721796Y7194205D01*
G01X19716208Y7182775D01*
G01X19710366Y7177187D01*
G01X19693348Y7171345D01*
G01X19641786Y7171345D01*
G01X19809680Y7234337D02*
G01X19809680Y7114195D01*
G01X19769548Y7234337D02*
G01X19849558Y7234337D01*
G01X19897310Y7234337D02*
G01X19897310Y7114195D01*
G01X19977320Y7234337D02*
G01X19977320Y7114195D01*
G01X19897310Y7177187D02*
G01X19977320Y7177187D01*
G01X21183203Y7217065D02*
G01X21171773Y7228495D01*
G01X21154755Y7234337D01*
G01X21131895Y7234337D01*
G01X21114623Y7228495D01*
G01X21103193Y7217065D01*
G01X21103193Y7205635D01*
G01X21109035Y7194205D01*
G01X21114623Y7188617D01*
G01X21126053Y7182775D01*
G01X21160343Y7171345D01*
G01X21171773Y7165757D01*
G01X21177615Y7159915D01*
G01X21183203Y7148485D01*
G01X21183203Y7131467D01*
G01X21171773Y7120037D01*
G01X21154755Y7114195D01*
G01X21131895Y7114195D01*
G01X21114623Y7120037D01*
G01X21103193Y7131467D01*
G01X21230955Y7234337D02*
G01X21230955Y7114195D01*
G01X21307409Y7194205D02*
G01X21295979Y7188617D01*
G01X21284549Y7177187D01*
G01X21278707Y7159915D01*
G01X21278707Y7148485D01*
G01X21284549Y7131467D01*
G01X21295979Y7120037D01*
G01X21307409Y7114195D01*
G01X21324427Y7114195D01*
G01X21335857Y7120037D01*
G01X21347287Y7131467D01*
G01X21353129Y7148485D01*
G01X21353129Y7159915D01*
G01X21347287Y7177187D01*
G01X21335857Y7188617D01*
G01X21324427Y7194205D01*
G01X21307409Y7194205D01*
G01X21418153Y7234337D02*
G01X21418153Y7137055D01*
G01X21423741Y7120037D01*
G01X21435171Y7114195D01*
G01X21446601Y7114195D01*
G01X21400881Y7194205D02*
G01X21441013Y7194205D01*
G01X22534375Y7234337D02*
G01X22534375Y7114195D01*
G01X22534375Y7234337D02*
G01X22585937Y7234337D01*
G01X22602955Y7228495D01*
G01X22608797Y7222907D01*
G01X22614385Y7211477D01*
G01X22614385Y7194205D01*
G01X22608797Y7182775D01*
G01X22602955Y7177187D01*
G01X22585937Y7171345D01*
G01X22534375Y7171345D01*
G01X22730717Y7194205D02*
G01X22730717Y7114195D01*
G01X22730717Y7177187D02*
G01X22719287Y7188617D01*
G01X22707857Y7194205D01*
G01X22690839Y7194205D01*
G01X22679409Y7188617D01*
G01X22667979Y7177187D01*
G01X22662137Y7159915D01*
G01X22662137Y7148485D01*
G01X22667979Y7131467D01*
G01X22679409Y7120037D01*
G01X22690839Y7114195D01*
G01X22707857Y7114195D01*
G01X22719287Y7120037D01*
G01X22730717Y7131467D01*
G01X22847049Y7234337D02*
G01X22847049Y7114195D01*
G01X22847049Y7177187D02*
G01X22835619Y7188617D01*
G01X22824189Y7194205D01*
G01X22807171Y7194205D01*
G01X22795741Y7188617D01*
G01X22784311Y7177187D01*
G01X22778469Y7159915D01*
G01X22778469Y7148485D01*
G01X22784311Y7131467D01*
G01X22795741Y7120037D01*
G01X22807171Y7114195D01*
G01X22824189Y7114195D01*
G01X22835619Y7120037D01*
G01X22847049Y7131467D01*
G01X24237844Y7234337D02*
G01X24226414Y7228495D01*
G01X24214984Y7217065D01*
G01X24209396Y7205635D01*
G01X24203554Y7188617D01*
G01X24203554Y7159915D01*
G01X24209396Y7142897D01*
G01X24214984Y7131467D01*
G01X24226414Y7120037D01*
G01X24237844Y7114195D01*
G01X24260704Y7114195D01*
G01X24272134Y7120037D01*
G01X24283564Y7131467D01*
G01X24289406Y7142897D01*
G01X24294994Y7159915D01*
G01X24294994Y7188617D01*
G01X24289406Y7205635D01*
G01X24283564Y7217065D01*
G01X24272134Y7228495D01*
G01X24260704Y7234337D01*
G01X24237844Y7234337D01*
G01X24342746Y7194205D02*
G01X24377036Y7114195D01*
G01X24411326Y7194205D02*
G01X24377036Y7114195D01*
G01X24527658Y7194205D02*
G01X24527658Y7114195D01*
G01X24527658Y7177187D02*
G01X24516228Y7188617D01*
G01X24504798Y7194205D01*
G01X24487780Y7194205D01*
G01X24476350Y7188617D01*
G01X24464920Y7177187D01*
G01X24459078Y7159915D01*
G01X24459078Y7148485D01*
G01X24464920Y7131467D01*
G01X24476350Y7120037D01*
G01X24487780Y7114195D01*
G01X24504798Y7114195D01*
G01X24516228Y7120037D01*
G01X24527658Y7131467D01*
G01X24575410Y7234337D02*
G01X24575410Y7114195D01*
G01X26163055Y7234337D02*
G01X26163055Y7114195D01*
G01X26122923Y7234337D02*
G01X26202933Y7234337D01*
G01X26279387Y7194205D02*
G01X26267957Y7188617D01*
G01X26256527Y7177187D01*
G01X26250685Y7159915D01*
G01X26250685Y7148485D01*
G01X26256527Y7131467D01*
G01X26267957Y7120037D01*
G01X26279387Y7114195D01*
G01X26296405Y7114195D01*
G01X26307835Y7120037D01*
G01X26319265Y7131467D01*
G01X26325107Y7148485D01*
G01X26325107Y7159915D01*
G01X26319265Y7177187D01*
G01X26307835Y7188617D01*
G01X26296405Y7194205D01*
G01X26279387Y7194205D01*
G01X26372859Y7194205D02*
G01X26372859Y7074317D01*
G01X26372859Y7177187D02*
G01X26384289Y7188617D01*
G01X26395719Y7194205D01*
G01X26412991Y7194205D01*
G01X26424421Y7188617D01*
G01X26435851Y7177187D01*
G01X26441439Y7159915D01*
G01X26441439Y7148485D01*
G01X26435851Y7131467D01*
G01X26424421Y7120037D01*
G01X26412991Y7114195D01*
G01X26395719Y7114195D01*
G01X26384289Y7120037D01*
G01X26372859Y7131467D01*
G01X26617207Y7234337D02*
G01X26617207Y7114195D01*
G01X26617207Y7114195D02*
G01X26685787Y7114195D01*
G01X26802119Y7194205D02*
G01X26802119Y7114195D01*
G01X26802119Y7177187D02*
G01X26790689Y7188617D01*
G01X26779259Y7194205D01*
G01X26762241Y7194205D01*
G01X26750811Y7188617D01*
G01X26739381Y7177187D01*
G01X26733539Y7159915D01*
G01X26733539Y7148485D01*
G01X26739381Y7131467D01*
G01X26750811Y7120037D01*
G01X26762241Y7114195D01*
G01X26779259Y7114195D01*
G01X26790689Y7120037D01*
G01X26802119Y7131467D01*
G01X26855713Y7194205D02*
G01X26890003Y7114195D01*
G01X26924293Y7194205D02*
G01X26890003Y7114195D01*
G01X26878573Y7091335D01*
G01X26867143Y7079905D01*
G01X26855713Y7074317D01*
G01X26849871Y7074317D01*
G01X26972045Y7159915D02*
G01X27040625Y7159915D01*
G01X27040625Y7171345D01*
G01X27035037Y7182775D01*
G01X27029195Y7188617D01*
G01X27017765Y7194205D01*
G01X27000747Y7194205D01*
G01X26989317Y7188617D01*
G01X26977887Y7177187D01*
G01X26972045Y7159915D01*
G01X26972045Y7148485D01*
G01X26977887Y7131467D01*
G01X26989317Y7120037D01*
G01X27000747Y7114195D01*
G01X27017765Y7114195D01*
G01X27029195Y7120037D01*
G01X27040625Y7131467D01*
G01X27088377Y7194205D02*
G01X27088377Y7114195D01*
G01X27088377Y7159915D02*
G01X27094219Y7177187D01*
G01X27105649Y7188617D01*
G01X27117079Y7194205D01*
G01X27134097Y7194205D01*
G01X27181849Y7165757D02*
G01X27284719Y7165757D01*
G01X27332471Y7234337D02*
G01X27332471Y7114195D01*
G01X27332471Y7234337D02*
G01X27384033Y7234337D01*
G01X27401051Y7228495D01*
G01X27406893Y7222907D01*
G01X27412481Y7211477D01*
G01X27412481Y7200047D01*
G01X27406893Y7188617D01*
G01X27401051Y7182775D01*
G01X27384033Y7177187D01*
G01X27332471Y7177187D02*
G01X27384033Y7177187D01*
G01X27401051Y7171345D01*
G01X27406893Y7165757D01*
G01X27412481Y7154327D01*
G01X27412481Y7137055D01*
G01X27406893Y7125625D01*
G01X27401051Y7120037D01*
G01X27384033Y7114195D01*
G01X27332471Y7114195D01*
G01X27488935Y7194205D02*
G01X27477505Y7188617D01*
G01X27466075Y7177187D01*
G01X27460233Y7159915D01*
G01X27460233Y7148485D01*
G01X27466075Y7131467D01*
G01X27477505Y7120037D01*
G01X27488935Y7114195D01*
G01X27505953Y7114195D01*
G01X27517383Y7120037D01*
G01X27528813Y7131467D01*
G01X27534655Y7148485D01*
G01X27534655Y7159915D01*
G01X27528813Y7177187D01*
G01X27517383Y7188617D01*
G01X27505953Y7194205D01*
G01X27488935Y7194205D01*
G01X27599679Y7234337D02*
G01X27599679Y7137055D01*
G01X27605267Y7120037D01*
G01X27616697Y7114195D01*
G01X27628127Y7114195D01*
G01X27582407Y7194205D02*
G01X27622539Y7194205D01*
G01X27693151Y7234337D02*
G01X27693151Y7137055D01*
G01X27698739Y7120037D01*
G01X27710169Y7114195D01*
G01X27721599Y7114195D01*
G01X27675879Y7194205D02*
G01X27716011Y7194205D01*
G01X27798053Y7194205D02*
G01X27786623Y7188617D01*
G01X27775193Y7177187D01*
G01X27769351Y7159915D01*
G01X27769351Y7148485D01*
G01X27775193Y7131467D01*
G01X27786623Y7120037D01*
G01X27798053Y7114195D01*
G01X27815071Y7114195D01*
G01X27826501Y7120037D01*
G01X27837931Y7131467D01*
G01X27843773Y7148485D01*
G01X27843773Y7159915D01*
G01X27837931Y7177187D01*
G01X27826501Y7188617D01*
G01X27815071Y7194205D01*
G01X27798053Y7194205D01*
G01X27891525Y7194205D02*
G01X27891525Y7114195D01*
G01X27891525Y7171345D02*
G01X27908797Y7188617D01*
G01X27920227Y7194205D01*
G01X27937245Y7194205D01*
G01X27948675Y7188617D01*
G01X27954517Y7171345D01*
G01X27954517Y7114195D01*
G01X27954517Y7171345D02*
G01X27971535Y7188617D01*
G01X27982965Y7194205D01*
G01X28000237Y7194205D01*
G01X28011667Y7188617D01*
G01X28017255Y7171345D01*
G01X28017255Y7114195D01*
G01X28193023Y7234337D02*
G01X28193023Y7114195D01*
G01X28193023Y7114195D02*
G01X28261603Y7114195D01*
G01X28377935Y7194205D02*
G01X28377935Y7114195D01*
G01X28377935Y7177187D02*
G01X28366505Y7188617D01*
G01X28355075Y7194205D01*
G01X28338057Y7194205D01*
G01X28326627Y7188617D01*
G01X28315197Y7177187D01*
G01X28309355Y7159915D01*
G01X28309355Y7148485D01*
G01X28315197Y7131467D01*
G01X28326627Y7120037D01*
G01X28338057Y7114195D01*
G01X28355075Y7114195D01*
G01X28366505Y7120037D01*
G01X28377935Y7131467D01*
G01X28431529Y7194205D02*
G01X28465819Y7114195D01*
G01X28500109Y7194205D02*
G01X28465819Y7114195D01*
G01X28454389Y7091335D01*
G01X28442959Y7079905D01*
G01X28431529Y7074317D01*
G01X28425687Y7074317D01*
G01X28547861Y7159915D02*
G01X28616441Y7159915D01*
G01X28616441Y7171345D01*
G01X28610853Y7182775D01*
G01X28605011Y7188617D01*
G01X28593581Y7194205D01*
G01X28576563Y7194205D01*
G01X28565133Y7188617D01*
G01X28553703Y7177187D01*
G01X28547861Y7159915D01*
G01X28547861Y7148485D01*
G01X28553703Y7131467D01*
G01X28565133Y7120037D01*
G01X28576563Y7114195D01*
G01X28593581Y7114195D01*
G01X28605011Y7120037D01*
G01X28616441Y7131467D01*
G01X28664193Y7194205D02*
G01X28664193Y7114195D01*
G01X28664193Y7159915D02*
G01X28670035Y7177187D01*
G01X28681465Y7188617D01*
G01X28692895Y7194205D01*
G01X28709913Y7194205D01*
G01X14408080Y6636493D02*
G01X14402492Y6647923D01*
G01X14385220Y6653765D01*
G01X14373790Y6653765D01*
G01X14356772Y6647923D01*
G01X14345342Y6630905D01*
G01X14339500Y6602203D01*
G01X14339500Y6573755D01*
G01X14345342Y6550895D01*
G01X14356772Y6539465D01*
G01X14373790Y6533623D01*
G01X14379632Y6533623D01*
G01X14396650Y6539465D01*
G01X14408080Y6550895D01*
G01X14413922Y6567913D01*
G01X14413922Y6573755D01*
G01X14408080Y6590773D01*
G01X14396650Y6602203D01*
G01X14379632Y6608045D01*
G01X14373790Y6608045D01*
G01X14356772Y6602203D01*
G01X14345342Y6590773D01*
G01X14339500Y6573755D01*
G01X15759505Y6625063D02*
G01X15759505Y6630905D01*
G01X15765093Y6642335D01*
G01X15770935Y6647923D01*
G01X15782365Y6653765D01*
G01X15805225Y6653765D01*
G01X15816655Y6647923D01*
G01X15822243Y6642335D01*
G01X15828085Y6630905D01*
G01X15828085Y6619475D01*
G01X15822243Y6608045D01*
G01X15810813Y6590773D01*
G01X15753663Y6533623D01*
G01X15833673Y6533623D01*
G01X15961435Y6653765D02*
G01X15904285Y6533623D01*
G01X15881425Y6653765D02*
G01X15961435Y6653765D01*
G01X16015029Y6562325D02*
G01X16009187Y6556483D01*
G01X16015029Y6550895D01*
G01X16020617Y6556483D01*
G01X16015029Y6562325D01*
G01X16136949Y6636493D02*
G01X16131361Y6647923D01*
G01X16114089Y6653765D01*
G01X16102659Y6653765D01*
G01X16085641Y6647923D01*
G01X16074211Y6630905D01*
G01X16068369Y6602203D01*
G01X16068369Y6573755D01*
G01X16074211Y6550895D01*
G01X16085641Y6539465D01*
G01X16102659Y6533623D01*
G01X16108501Y6533623D01*
G01X16125519Y6539465D01*
G01X16136949Y6550895D01*
G01X16142791Y6567913D01*
G01X16142791Y6573755D01*
G01X16136949Y6590773D01*
G01X16125519Y6602203D01*
G01X16108501Y6608045D01*
G01X16102659Y6608045D01*
G01X16085641Y6602203D01*
G01X16074211Y6590773D01*
G01X16068369Y6573755D01*
G01X16190543Y6613633D02*
G01X16190543Y6533623D01*
G01X16190543Y6590773D02*
G01X16207815Y6608045D01*
G01X16219245Y6613633D01*
G01X16236263Y6613633D01*
G01X16247693Y6608045D01*
G01X16253535Y6590773D01*
G01X16253535Y6533623D01*
G01X16253535Y6590773D02*
G01X16270553Y6608045D01*
G01X16281983Y6613633D01*
G01X16299255Y6613633D01*
G01X16310685Y6608045D01*
G01X16316273Y6590773D01*
G01X16316273Y6533623D01*
G01X16364025Y6653765D02*
G01X16369867Y6647923D01*
G01X16375455Y6653765D01*
G01X16369867Y6659353D01*
G01X16364025Y6653765D01*
G01X16369867Y6613633D02*
G01X16369867Y6533623D01*
G01X16423207Y6653765D02*
G01X16423207Y6533623D01*
G01X16511091Y6676625D02*
G01X16499661Y6665195D01*
G01X16488231Y6647923D01*
G01X16476801Y6625063D01*
G01X16470959Y6596615D01*
G01X16470959Y6573755D01*
G01X16476801Y6545053D01*
G01X16488231Y6522193D01*
G01X16499661Y6505175D01*
G01X16511091Y6493745D01*
G01X16593133Y6653765D02*
G01X16576115Y6647923D01*
G01X16564685Y6630905D01*
G01X16558843Y6602203D01*
G01X16558843Y6585185D01*
G01X16564685Y6556483D01*
G01X16576115Y6539465D01*
G01X16593133Y6533623D01*
G01X16604563Y6533623D01*
G01X16621835Y6539465D01*
G01X16633265Y6556483D01*
G01X16638853Y6585185D01*
G01X16638853Y6602203D01*
G01X16633265Y6630905D01*
G01X16621835Y6647923D01*
G01X16604563Y6653765D01*
G01X16593133Y6653765D01*
G01X16692447Y6562325D02*
G01X16686605Y6556483D01*
G01X16692447Y6550895D01*
G01X16698035Y6556483D01*
G01X16692447Y6562325D01*
G01X16825797Y6653765D02*
G01X16768647Y6533623D01*
G01X16745787Y6653765D02*
G01X16825797Y6653765D01*
G01X16907839Y6653765D02*
G01X16890821Y6647923D01*
G01X16879391Y6630905D01*
G01X16873549Y6602203D01*
G01X16873549Y6585185D01*
G01X16879391Y6556483D01*
G01X16890821Y6539465D01*
G01X16907839Y6533623D01*
G01X16919269Y6533623D01*
G01X16936541Y6539465D01*
G01X16947971Y6556483D01*
G01X16953559Y6585185D01*
G01X16953559Y6602203D01*
G01X16947971Y6630905D01*
G01X16936541Y6647923D01*
G01X16919269Y6653765D01*
G01X16907839Y6653765D01*
G01X17035601Y6653765D02*
G01X17018583Y6647923D01*
G01X17007153Y6630905D01*
G01X17001311Y6602203D01*
G01X17001311Y6585185D01*
G01X17007153Y6556483D01*
G01X17018583Y6539465D01*
G01X17035601Y6533623D01*
G01X17047031Y6533623D01*
G01X17064303Y6539465D01*
G01X17075733Y6556483D01*
G01X17081321Y6585185D01*
G01X17081321Y6602203D01*
G01X17075733Y6630905D01*
G01X17064303Y6647923D01*
G01X17047031Y6653765D01*
G01X17035601Y6653765D01*
G01X17129073Y6613633D02*
G01X17129073Y6533623D01*
G01X17129073Y6590773D02*
G01X17146345Y6608045D01*
G01X17157775Y6613633D01*
G01X17174793Y6613633D01*
G01X17186223Y6608045D01*
G01X17192065Y6590773D01*
G01X17192065Y6533623D01*
G01X17192065Y6590773D02*
G01X17209083Y6608045D01*
G01X17220513Y6613633D01*
G01X17237785Y6613633D01*
G01X17249215Y6608045D01*
G01X17254803Y6590773D01*
G01X17254803Y6533623D01*
G01X17302555Y6613633D02*
G01X17302555Y6533623D01*
G01X17302555Y6590773D02*
G01X17319827Y6608045D01*
G01X17331257Y6613633D01*
G01X17348275Y6613633D01*
G01X17359705Y6608045D01*
G01X17365547Y6590773D01*
G01X17365547Y6533623D01*
G01X17365547Y6590773D02*
G01X17382565Y6608045D01*
G01X17393995Y6613633D01*
G01X17411267Y6613633D01*
G01X17422697Y6608045D01*
G01X17428285Y6590773D01*
G01X17428285Y6533623D01*
G01X17476037Y6676625D02*
G01X17487467Y6665195D01*
G01X17498897Y6647923D01*
G01X17510327Y6625063D01*
G01X17516169Y6596615D01*
G01X17516169Y6573755D01*
G01X17510327Y6545053D01*
G01X17498897Y6522193D01*
G01X17487467Y6505175D01*
G01X17476037Y6493745D01*
G01X19641786Y6653765D02*
G01X19641786Y6533623D01*
G01X19641786Y6653765D02*
G01X19721796Y6533623D01*
G01X19721796Y6653765D02*
G01X19721796Y6533623D01*
G01X19769548Y6653765D02*
G01X19769548Y6533623D01*
G01X19769548Y6653765D02*
G01X19821110Y6653765D01*
G01X19838128Y6647923D01*
G01X19843970Y6642335D01*
G01X19849558Y6630905D01*
G01X19849558Y6613633D01*
G01X19843970Y6602203D01*
G01X19838128Y6596615D01*
G01X19821110Y6590773D01*
G01X19769548Y6590773D01*
G01X19937442Y6653765D02*
G01X19937442Y6533623D01*
G01X19897310Y6653765D02*
G01X19977320Y6653765D01*
G01X20025072Y6653765D02*
G01X20025072Y6533623D01*
G01X20105082Y6653765D02*
G01X20105082Y6533623D01*
G01X20025072Y6596615D02*
G01X20105082Y6596615D01*
G01X21103193Y6653765D02*
G01X21103193Y6533623D01*
G01X21103193Y6653765D02*
G01X21154755Y6653765D01*
G01X21171773Y6647923D01*
G01X21177615Y6642335D01*
G01X21183203Y6630905D01*
G01X21183203Y6619475D01*
G01X21177615Y6608045D01*
G01X21171773Y6602203D01*
G01X21154755Y6596615D01*
G01X21103193Y6596615D01*
G01X21143325Y6596615D02*
G01X21183203Y6533623D01*
G01X21259657Y6613633D02*
G01X21248227Y6608045D01*
G01X21236797Y6596615D01*
G01X21230955Y6579343D01*
G01X21230955Y6567913D01*
G01X21236797Y6550895D01*
G01X21248227Y6539465D01*
G01X21259657Y6533623D01*
G01X21276675Y6533623D01*
G01X21288105Y6539465D01*
G01X21299535Y6550895D01*
G01X21305377Y6567913D01*
G01X21305377Y6579343D01*
G01X21299535Y6596615D01*
G01X21288105Y6608045D01*
G01X21276675Y6613633D01*
G01X21259657Y6613633D01*
G01X21353129Y6613633D02*
G01X21353129Y6556483D01*
G01X21358971Y6539465D01*
G01X21370401Y6533623D01*
G01X21387419Y6533623D01*
G01X21398849Y6539465D01*
G01X21416121Y6556483D01*
G01X21416121Y6613633D02*
G01X21416121Y6533623D01*
G01X21463873Y6613633D02*
G01X21463873Y6533623D01*
G01X21463873Y6590773D02*
G01X21481145Y6608045D01*
G01X21492575Y6613633D01*
G01X21509593Y6613633D01*
G01X21521023Y6608045D01*
G01X21526865Y6590773D01*
G01X21526865Y6533623D01*
G01X21643197Y6653765D02*
G01X21643197Y6533623D01*
G01X21643197Y6596615D02*
G01X21631767Y6608045D01*
G01X21620337Y6613633D01*
G01X21603319Y6613633D01*
G01X21591889Y6608045D01*
G01X21580459Y6596615D01*
G01X21574617Y6579343D01*
G01X21574617Y6567913D01*
G01X21580459Y6550895D01*
G01X21591889Y6539465D01*
G01X21603319Y6533623D01*
G01X21620337Y6533623D01*
G01X21631767Y6539465D01*
G01X21643197Y6550895D01*
G01X22534375Y6653765D02*
G01X22580095Y6533623D01*
G01X22625815Y6653765D02*
G01X22580095Y6533623D01*
G01X22673567Y6653765D02*
G01X22679409Y6647923D01*
G01X22684997Y6653765D01*
G01X22679409Y6659353D01*
G01X22673567Y6653765D01*
G01X22679409Y6613633D02*
G01X22679409Y6533623D01*
G01X22801329Y6613633D02*
G01X22801329Y6533623D01*
G01X22801329Y6596615D02*
G01X22789899Y6608045D01*
G01X22778469Y6613633D01*
G01X22761451Y6613633D01*
G01X22750021Y6608045D01*
G01X22738591Y6596615D01*
G01X22732749Y6579343D01*
G01X22732749Y6567913D01*
G01X22738591Y6550895D01*
G01X22750021Y6539465D01*
G01X22761451Y6533623D01*
G01X22778469Y6533623D01*
G01X22789899Y6539465D01*
G01X22801329Y6550895D01*
G01X26163055Y6653765D02*
G01X26163055Y6533623D01*
G01X26122923Y6653765D02*
G01X26202933Y6653765D01*
G01X26279387Y6613633D02*
G01X26267957Y6608045D01*
G01X26256527Y6596615D01*
G01X26250685Y6579343D01*
G01X26250685Y6567913D01*
G01X26256527Y6550895D01*
G01X26267957Y6539465D01*
G01X26279387Y6533623D01*
G01X26296405Y6533623D01*
G01X26307835Y6539465D01*
G01X26319265Y6550895D01*
G01X26325107Y6567913D01*
G01X26325107Y6579343D01*
G01X26319265Y6596615D01*
G01X26307835Y6608045D01*
G01X26296405Y6613633D01*
G01X26279387Y6613633D01*
G01X26372859Y6613633D02*
G01X26372859Y6493745D01*
G01X26372859Y6596615D02*
G01X26384289Y6608045D01*
G01X26395719Y6613633D01*
G01X26412991Y6613633D01*
G01X26424421Y6608045D01*
G01X26435851Y6596615D01*
G01X26441439Y6579343D01*
G01X26441439Y6567913D01*
G01X26435851Y6550895D01*
G01X26424421Y6539465D01*
G01X26412991Y6533623D01*
G01X26395719Y6533623D01*
G01X26384289Y6539465D01*
G01X26372859Y6550895D01*
G01X26617207Y6653765D02*
G01X26617207Y6533623D01*
G01X26617207Y6533623D02*
G01X26685787Y6533623D01*
G01X26802119Y6613633D02*
G01X26802119Y6533623D01*
G01X26802119Y6596615D02*
G01X26790689Y6608045D01*
G01X26779259Y6613633D01*
G01X26762241Y6613633D01*
G01X26750811Y6608045D01*
G01X26739381Y6596615D01*
G01X26733539Y6579343D01*
G01X26733539Y6567913D01*
G01X26739381Y6550895D01*
G01X26750811Y6539465D01*
G01X26762241Y6533623D01*
G01X26779259Y6533623D01*
G01X26790689Y6539465D01*
G01X26802119Y6550895D01*
G01X26855713Y6613633D02*
G01X26890003Y6533623D01*
G01X26924293Y6613633D02*
G01X26890003Y6533623D01*
G01X26878573Y6510763D01*
G01X26867143Y6499333D01*
G01X26855713Y6493745D01*
G01X26849871Y6493745D01*
G01X26972045Y6579343D02*
G01X27040625Y6579343D01*
G01X27040625Y6590773D01*
G01X27035037Y6602203D01*
G01X27029195Y6608045D01*
G01X27017765Y6613633D01*
G01X27000747Y6613633D01*
G01X26989317Y6608045D01*
G01X26977887Y6596615D01*
G01X26972045Y6579343D01*
G01X26972045Y6567913D01*
G01X26977887Y6550895D01*
G01X26989317Y6539465D01*
G01X27000747Y6533623D01*
G01X27017765Y6533623D01*
G01X27029195Y6539465D01*
G01X27040625Y6550895D01*
G01X27088377Y6613633D02*
G01X27088377Y6533623D01*
G01X27088377Y6579343D02*
G01X27094219Y6596615D01*
G01X27105649Y6608045D01*
G01X27117079Y6613633D01*
G01X27134097Y6613633D01*
G01X27181849Y6585185D02*
G01X27284719Y6585185D01*
G01X27332471Y6653765D02*
G01X27332471Y6533623D01*
G01X27332471Y6653765D02*
G01X27384033Y6653765D01*
G01X27401051Y6647923D01*
G01X27406893Y6642335D01*
G01X27412481Y6630905D01*
G01X27412481Y6619475D01*
G01X27406893Y6608045D01*
G01X27401051Y6602203D01*
G01X27384033Y6596615D01*
G01X27332471Y6596615D02*
G01X27384033Y6596615D01*
G01X27401051Y6590773D01*
G01X27406893Y6585185D01*
G01X27412481Y6573755D01*
G01X27412481Y6556483D01*
G01X27406893Y6545053D01*
G01X27401051Y6539465D01*
G01X27384033Y6533623D01*
G01X27332471Y6533623D01*
G01X27488935Y6613633D02*
G01X27477505Y6608045D01*
G01X27466075Y6596615D01*
G01X27460233Y6579343D01*
G01X27460233Y6567913D01*
G01X27466075Y6550895D01*
G01X27477505Y6539465D01*
G01X27488935Y6533623D01*
G01X27505953Y6533623D01*
G01X27517383Y6539465D01*
G01X27528813Y6550895D01*
G01X27534655Y6567913D01*
G01X27534655Y6579343D01*
G01X27528813Y6596615D01*
G01X27517383Y6608045D01*
G01X27505953Y6613633D01*
G01X27488935Y6613633D01*
G01X27599679Y6653765D02*
G01X27599679Y6556483D01*
G01X27605267Y6539465D01*
G01X27616697Y6533623D01*
G01X27628127Y6533623D01*
G01X27582407Y6613633D02*
G01X27622539Y6613633D01*
G01X27693151Y6653765D02*
G01X27693151Y6556483D01*
G01X27698739Y6539465D01*
G01X27710169Y6533623D01*
G01X27721599Y6533623D01*
G01X27675879Y6613633D02*
G01X27716011Y6613633D01*
G01X27798053Y6613633D02*
G01X27786623Y6608045D01*
G01X27775193Y6596615D01*
G01X27769351Y6579343D01*
G01X27769351Y6567913D01*
G01X27775193Y6550895D01*
G01X27786623Y6539465D01*
G01X27798053Y6533623D01*
G01X27815071Y6533623D01*
G01X27826501Y6539465D01*
G01X27837931Y6550895D01*
G01X27843773Y6567913D01*
G01X27843773Y6579343D01*
G01X27837931Y6596615D01*
G01X27826501Y6608045D01*
G01X27815071Y6613633D01*
G01X27798053Y6613633D01*
G01X27891525Y6613633D02*
G01X27891525Y6533623D01*
G01X27891525Y6590773D02*
G01X27908797Y6608045D01*
G01X27920227Y6613633D01*
G01X27937245Y6613633D01*
G01X27948675Y6608045D01*
G01X27954517Y6590773D01*
G01X27954517Y6533623D01*
G01X27954517Y6590773D02*
G01X27971535Y6608045D01*
G01X27982965Y6613633D01*
G01X28000237Y6613633D01*
G01X28011667Y6608045D01*
G01X28017255Y6590773D01*
G01X28017255Y6533623D01*
G01X28193023Y6653765D02*
G01X28193023Y6533623D01*
G01X28193023Y6533623D02*
G01X28261603Y6533623D01*
G01X28377935Y6613633D02*
G01X28377935Y6533623D01*
G01X28377935Y6596615D02*
G01X28366505Y6608045D01*
G01X28355075Y6613633D01*
G01X28338057Y6613633D01*
G01X28326627Y6608045D01*
G01X28315197Y6596615D01*
G01X28309355Y6579343D01*
G01X28309355Y6567913D01*
G01X28315197Y6550895D01*
G01X28326627Y6539465D01*
G01X28338057Y6533623D01*
G01X28355075Y6533623D01*
G01X28366505Y6539465D01*
G01X28377935Y6550895D01*
G01X28431529Y6613633D02*
G01X28465819Y6533623D01*
G01X28500109Y6613633D02*
G01X28465819Y6533623D01*
G01X28454389Y6510763D01*
G01X28442959Y6499333D01*
G01X28431529Y6493745D01*
G01X28425687Y6493745D01*
G01X28547861Y6579343D02*
G01X28616441Y6579343D01*
G01X28616441Y6590773D01*
G01X28610853Y6602203D01*
G01X28605011Y6608045D01*
G01X28593581Y6613633D01*
G01X28576563Y6613633D01*
G01X28565133Y6608045D01*
G01X28553703Y6596615D01*
G01X28547861Y6579343D01*
G01X28547861Y6567913D01*
G01X28553703Y6550895D01*
G01X28565133Y6539465D01*
G01X28576563Y6533623D01*
G01X28593581Y6533623D01*
G01X28605011Y6539465D01*
G01X28616441Y6550895D01*
G01X28664193Y6613633D02*
G01X28664193Y6533623D01*
G01X28664193Y6579343D02*
G01X28670035Y6596615D01*
G01X28681465Y6608045D01*
G01X28692895Y6613633D01*
G01X28709913Y6613633D01*
G01X14339500Y6050334D02*
G01X14350930Y6055922D01*
G01X14368202Y6073194D01*
G01X14368202Y5953052D01*
G01X14484534Y6073194D02*
G01X14427384Y6073194D01*
G01X14421796Y6021632D01*
G01X14427384Y6027474D01*
G01X14444656Y6033062D01*
G01X14461674Y6033062D01*
G01X14478946Y6027474D01*
G01X14490376Y6016044D01*
G01X14495964Y5998772D01*
G01X14495964Y5987342D01*
G01X14490376Y5970324D01*
G01X14478946Y5958894D01*
G01X14461674Y5953052D01*
G01X14444656Y5953052D01*
G01X14427384Y5958894D01*
G01X14421796Y5964482D01*
G01X14415954Y5975912D01*
G01X15753663Y6050334D02*
G01X15765093Y6055922D01*
G01X15782365Y6073194D01*
G01X15782365Y5953052D01*
G01X15835959Y6044492D02*
G01X15835959Y6050334D01*
G01X15841547Y6061764D01*
G01X15847389Y6067352D01*
G01X15858819Y6073194D01*
G01X15881679Y6073194D01*
G01X15893109Y6067352D01*
G01X15898697Y6061764D01*
G01X15904539Y6050334D01*
G01X15904539Y6038904D01*
G01X15898697Y6027474D01*
G01X15887267Y6010202D01*
G01X15830117Y5953052D01*
G01X15910127Y5953052D01*
G01X15963721Y5981754D02*
G01X15957879Y5975912D01*
G01X15963721Y5970324D01*
G01X15969309Y5975912D01*
G01X15963721Y5981754D01*
G01X16051351Y6073194D02*
G01X16034333Y6067352D01*
G01X16022903Y6050334D01*
G01X16017061Y6021632D01*
G01X16017061Y6004614D01*
G01X16022903Y5975912D01*
G01X16034333Y5958894D01*
G01X16051351Y5953052D01*
G01X16062781Y5953052D01*
G01X16080053Y5958894D01*
G01X16091483Y5975912D01*
G01X16097071Y6004614D01*
G01X16097071Y6021632D01*
G01X16091483Y6050334D01*
G01X16080053Y6067352D01*
G01X16062781Y6073194D01*
G01X16051351Y6073194D01*
G01X16144823Y6033062D02*
G01X16144823Y5953052D01*
G01X16144823Y6010202D02*
G01X16162095Y6027474D01*
G01X16173525Y6033062D01*
G01X16190543Y6033062D01*
G01X16201973Y6027474D01*
G01X16207815Y6010202D01*
G01X16207815Y5953052D01*
G01X16207815Y6010202D02*
G01X16224833Y6027474D01*
G01X16236263Y6033062D01*
G01X16253535Y6033062D01*
G01X16264965Y6027474D01*
G01X16270553Y6010202D01*
G01X16270553Y5953052D01*
G01X16318305Y6073194D02*
G01X16324147Y6067352D01*
G01X16329735Y6073194D01*
G01X16324147Y6078782D01*
G01X16318305Y6073194D01*
G01X16324147Y6033062D02*
G01X16324147Y5953052D01*
G01X16377487Y6073194D02*
G01X16377487Y5953052D01*
G01X16465371Y6096054D02*
G01X16453941Y6084624D01*
G01X16442511Y6067352D01*
G01X16431081Y6044492D01*
G01X16425239Y6016044D01*
G01X16425239Y5993184D01*
G01X16431081Y5964482D01*
G01X16442511Y5941622D01*
G01X16453941Y5924604D01*
G01X16465371Y5913174D01*
G01X16547413Y6073194D02*
G01X16530395Y6067352D01*
G01X16518965Y6050334D01*
G01X16513123Y6021632D01*
G01X16513123Y6004614D01*
G01X16518965Y5975912D01*
G01X16530395Y5958894D01*
G01X16547413Y5953052D01*
G01X16558843Y5953052D01*
G01X16576115Y5958894D01*
G01X16587545Y5975912D01*
G01X16593133Y6004614D01*
G01X16593133Y6021632D01*
G01X16587545Y6050334D01*
G01X16576115Y6067352D01*
G01X16558843Y6073194D01*
G01X16547413Y6073194D01*
G01X16646727Y5981754D02*
G01X16640885Y5975912D01*
G01X16646727Y5970324D01*
G01X16652315Y5975912D01*
G01X16646727Y5981754D01*
G01X16711497Y6073194D02*
G01X16774489Y6073194D01*
G01X16740199Y6027474D01*
G01X16757217Y6027474D01*
G01X16768647Y6021632D01*
G01X16774489Y6016044D01*
G01X16780077Y5998772D01*
G01X16780077Y5987342D01*
G01X16774489Y5970324D01*
G01X16763059Y5958894D01*
G01X16745787Y5953052D01*
G01X16728769Y5953052D01*
G01X16711497Y5958894D01*
G01X16705909Y5964482D01*
G01X16700067Y5975912D01*
G01X16862119Y6073194D02*
G01X16845101Y6067352D01*
G01X16833671Y6050334D01*
G01X16827829Y6021632D01*
G01X16827829Y6004614D01*
G01X16833671Y5975912D01*
G01X16845101Y5958894D01*
G01X16862119Y5953052D01*
G01X16873549Y5953052D01*
G01X16890821Y5958894D01*
G01X16902251Y5975912D01*
G01X16907839Y6004614D01*
G01X16907839Y6021632D01*
G01X16902251Y6050334D01*
G01X16890821Y6067352D01*
G01X16873549Y6073194D01*
G01X16862119Y6073194D01*
G01X17024171Y6073194D02*
G01X16967021Y6073194D01*
G01X16961433Y6021632D01*
G01X16967021Y6027474D01*
G01X16984293Y6033062D01*
G01X17001311Y6033062D01*
G01X17018583Y6027474D01*
G01X17030013Y6016044D01*
G01X17035601Y5998772D01*
G01X17035601Y5987342D01*
G01X17030013Y5970324D01*
G01X17018583Y5958894D01*
G01X17001311Y5953052D01*
G01X16984293Y5953052D01*
G01X16967021Y5958894D01*
G01X16961433Y5964482D01*
G01X16955591Y5975912D01*
G01X17083353Y6033062D02*
G01X17083353Y5953052D01*
G01X17083353Y6010202D02*
G01X17100625Y6027474D01*
G01X17112055Y6033062D01*
G01X17129073Y6033062D01*
G01X17140503Y6027474D01*
G01X17146345Y6010202D01*
G01X17146345Y5953052D01*
G01X17146345Y6010202D02*
G01X17163363Y6027474D01*
G01X17174793Y6033062D01*
G01X17192065Y6033062D01*
G01X17203495Y6027474D01*
G01X17209083Y6010202D01*
G01X17209083Y5953052D01*
G01X17256835Y6033062D02*
G01X17256835Y5953052D01*
G01X17256835Y6010202D02*
G01X17274107Y6027474D01*
G01X17285537Y6033062D01*
G01X17302555Y6033062D01*
G01X17313985Y6027474D01*
G01X17319827Y6010202D01*
G01X17319827Y5953052D01*
G01X17319827Y6010202D02*
G01X17336845Y6027474D01*
G01X17348275Y6033062D01*
G01X17365547Y6033062D01*
G01X17376977Y6027474D01*
G01X17382565Y6010202D01*
G01X17382565Y5953052D01*
G01X17430317Y6096054D02*
G01X17441747Y6084624D01*
G01X17453177Y6067352D01*
G01X17464607Y6044492D01*
G01X17470449Y6016044D01*
G01X17470449Y5993184D01*
G01X17464607Y5964482D01*
G01X17453177Y5941622D01*
G01X17441747Y5924604D01*
G01X17430317Y5913174D01*
G01X19641786Y6073194D02*
G01X19641786Y5953052D01*
G01X19641786Y6073194D02*
G01X19693348Y6073194D01*
G01X19710366Y6067352D01*
G01X19716208Y6061764D01*
G01X19721796Y6050334D01*
G01X19721796Y6033062D01*
G01X19716208Y6021632D01*
G01X19710366Y6016044D01*
G01X19693348Y6010202D01*
G01X19641786Y6010202D01*
G01X19809680Y6073194D02*
G01X19809680Y5953052D01*
G01X19769548Y6073194D02*
G01X19849558Y6073194D01*
G01X19897310Y6073194D02*
G01X19897310Y5953052D01*
G01X19977320Y6073194D02*
G01X19977320Y5953052D01*
G01X19897310Y6016044D02*
G01X19977320Y6016044D01*
G01X21103193Y6073194D02*
G01X21103193Y5953052D01*
G01X21103193Y6073194D02*
G01X21154755Y6073194D01*
G01X21171773Y6067352D01*
G01X21177615Y6061764D01*
G01X21183203Y6050334D01*
G01X21183203Y6038904D01*
G01X21177615Y6027474D01*
G01X21171773Y6021632D01*
G01X21154755Y6016044D01*
G01X21103193Y6016044D01*
G01X21143325Y6016044D02*
G01X21183203Y5953052D01*
G01X21259657Y6033062D02*
G01X21248227Y6027474D01*
G01X21236797Y6016044D01*
G01X21230955Y5998772D01*
G01X21230955Y5987342D01*
G01X21236797Y5970324D01*
G01X21248227Y5958894D01*
G01X21259657Y5953052D01*
G01X21276675Y5953052D01*
G01X21288105Y5958894D01*
G01X21299535Y5970324D01*
G01X21305377Y5987342D01*
G01X21305377Y5998772D01*
G01X21299535Y6016044D01*
G01X21288105Y6027474D01*
G01X21276675Y6033062D01*
G01X21259657Y6033062D01*
G01X21353129Y6033062D02*
G01X21353129Y5975912D01*
G01X21358971Y5958894D01*
G01X21370401Y5953052D01*
G01X21387419Y5953052D01*
G01X21398849Y5958894D01*
G01X21416121Y5975912D01*
G01X21416121Y6033062D02*
G01X21416121Y5953052D01*
G01X21463873Y6033062D02*
G01X21463873Y5953052D01*
G01X21463873Y6010202D02*
G01X21481145Y6027474D01*
G01X21492575Y6033062D01*
G01X21509593Y6033062D01*
G01X21521023Y6027474D01*
G01X21526865Y6010202D01*
G01X21526865Y5953052D01*
G01X21643197Y6073194D02*
G01X21643197Y5953052D01*
G01X21643197Y6016044D02*
G01X21631767Y6027474D01*
G01X21620337Y6033062D01*
G01X21603319Y6033062D01*
G01X21591889Y6027474D01*
G01X21580459Y6016044D01*
G01X21574617Y5998772D01*
G01X21574617Y5987342D01*
G01X21580459Y5970324D01*
G01X21591889Y5958894D01*
G01X21603319Y5953052D01*
G01X21620337Y5953052D01*
G01X21631767Y5958894D01*
G01X21643197Y5970324D01*
G01X22534375Y6073194D02*
G01X22580095Y5953052D01*
G01X22625815Y6073194D02*
G01X22580095Y5953052D01*
G01X22673567Y6073194D02*
G01X22679409Y6067352D01*
G01X22684997Y6073194D01*
G01X22679409Y6078782D01*
G01X22673567Y6073194D01*
G01X22679409Y6033062D02*
G01X22679409Y5953052D01*
G01X22801329Y6033062D02*
G01X22801329Y5953052D01*
G01X22801329Y6016044D02*
G01X22789899Y6027474D01*
G01X22778469Y6033062D01*
G01X22761451Y6033062D01*
G01X22750021Y6027474D01*
G01X22738591Y6016044D01*
G01X22732749Y5998772D01*
G01X22732749Y5987342D01*
G01X22738591Y5970324D01*
G01X22750021Y5958894D01*
G01X22761451Y5953052D01*
G01X22778469Y5953052D01*
G01X22789899Y5958894D01*
G01X22801329Y5970324D01*
G01X26163055Y6073194D02*
G01X26163055Y5953052D01*
G01X26122923Y6073194D02*
G01X26202933Y6073194D01*
G01X26279387Y6033062D02*
G01X26267957Y6027474D01*
G01X26256527Y6016044D01*
G01X26250685Y5998772D01*
G01X26250685Y5987342D01*
G01X26256527Y5970324D01*
G01X26267957Y5958894D01*
G01X26279387Y5953052D01*
G01X26296405Y5953052D01*
G01X26307835Y5958894D01*
G01X26319265Y5970324D01*
G01X26325107Y5987342D01*
G01X26325107Y5998772D01*
G01X26319265Y6016044D01*
G01X26307835Y6027474D01*
G01X26296405Y6033062D01*
G01X26279387Y6033062D01*
G01X26372859Y6033062D02*
G01X26372859Y5913174D01*
G01X26372859Y6016044D02*
G01X26384289Y6027474D01*
G01X26395719Y6033062D01*
G01X26412991Y6033062D01*
G01X26424421Y6027474D01*
G01X26435851Y6016044D01*
G01X26441439Y5998772D01*
G01X26441439Y5987342D01*
G01X26435851Y5970324D01*
G01X26424421Y5958894D01*
G01X26412991Y5953052D01*
G01X26395719Y5953052D01*
G01X26384289Y5958894D01*
G01X26372859Y5970324D01*
G01X26617207Y6073194D02*
G01X26617207Y5953052D01*
G01X26617207Y5953052D02*
G01X26685787Y5953052D01*
G01X26802119Y6033062D02*
G01X26802119Y5953052D01*
G01X26802119Y6016044D02*
G01X26790689Y6027474D01*
G01X26779259Y6033062D01*
G01X26762241Y6033062D01*
G01X26750811Y6027474D01*
G01X26739381Y6016044D01*
G01X26733539Y5998772D01*
G01X26733539Y5987342D01*
G01X26739381Y5970324D01*
G01X26750811Y5958894D01*
G01X26762241Y5953052D01*
G01X26779259Y5953052D01*
G01X26790689Y5958894D01*
G01X26802119Y5970324D01*
G01X26855713Y6033062D02*
G01X26890003Y5953052D01*
G01X26924293Y6033062D02*
G01X26890003Y5953052D01*
G01X26878573Y5930192D01*
G01X26867143Y5918762D01*
G01X26855713Y5913174D01*
G01X26849871Y5913174D01*
G01X26972045Y5998772D02*
G01X27040625Y5998772D01*
G01X27040625Y6010202D01*
G01X27035037Y6021632D01*
G01X27029195Y6027474D01*
G01X27017765Y6033062D01*
G01X27000747Y6033062D01*
G01X26989317Y6027474D01*
G01X26977887Y6016044D01*
G01X26972045Y5998772D01*
G01X26972045Y5987342D01*
G01X26977887Y5970324D01*
G01X26989317Y5958894D01*
G01X27000747Y5953052D01*
G01X27017765Y5953052D01*
G01X27029195Y5958894D01*
G01X27040625Y5970324D01*
G01X27088377Y6033062D02*
G01X27088377Y5953052D01*
G01X27088377Y5998772D02*
G01X27094219Y6016044D01*
G01X27105649Y6027474D01*
G01X27117079Y6033062D01*
G01X27134097Y6033062D01*
G01X27181849Y6004614D02*
G01X27284719Y6004614D01*
G01X27332471Y6073194D02*
G01X27332471Y5953052D01*
G01X27332471Y6073194D02*
G01X27384033Y6073194D01*
G01X27401051Y6067352D01*
G01X27406893Y6061764D01*
G01X27412481Y6050334D01*
G01X27412481Y6038904D01*
G01X27406893Y6027474D01*
G01X27401051Y6021632D01*
G01X27384033Y6016044D01*
G01X27332471Y6016044D02*
G01X27384033Y6016044D01*
G01X27401051Y6010202D01*
G01X27406893Y6004614D01*
G01X27412481Y5993184D01*
G01X27412481Y5975912D01*
G01X27406893Y5964482D01*
G01X27401051Y5958894D01*
G01X27384033Y5953052D01*
G01X27332471Y5953052D01*
G01X27488935Y6033062D02*
G01X27477505Y6027474D01*
G01X27466075Y6016044D01*
G01X27460233Y5998772D01*
G01X27460233Y5987342D01*
G01X27466075Y5970324D01*
G01X27477505Y5958894D01*
G01X27488935Y5953052D01*
G01X27505953Y5953052D01*
G01X27517383Y5958894D01*
G01X27528813Y5970324D01*
G01X27534655Y5987342D01*
G01X27534655Y5998772D01*
G01X27528813Y6016044D01*
G01X27517383Y6027474D01*
G01X27505953Y6033062D01*
G01X27488935Y6033062D01*
G01X27599679Y6073194D02*
G01X27599679Y5975912D01*
G01X27605267Y5958894D01*
G01X27616697Y5953052D01*
G01X27628127Y5953052D01*
G01X27582407Y6033062D02*
G01X27622539Y6033062D01*
G01X27693151Y6073194D02*
G01X27693151Y5975912D01*
G01X27698739Y5958894D01*
G01X27710169Y5953052D01*
G01X27721599Y5953052D01*
G01X27675879Y6033062D02*
G01X27716011Y6033062D01*
G01X27798053Y6033062D02*
G01X27786623Y6027474D01*
G01X27775193Y6016044D01*
G01X27769351Y5998772D01*
G01X27769351Y5987342D01*
G01X27775193Y5970324D01*
G01X27786623Y5958894D01*
G01X27798053Y5953052D01*
G01X27815071Y5953052D01*
G01X27826501Y5958894D01*
G01X27837931Y5970324D01*
G01X27843773Y5987342D01*
G01X27843773Y5998772D01*
G01X27837931Y6016044D01*
G01X27826501Y6027474D01*
G01X27815071Y6033062D01*
G01X27798053Y6033062D01*
G01X27891525Y6033062D02*
G01X27891525Y5953052D01*
G01X27891525Y6010202D02*
G01X27908797Y6027474D01*
G01X27920227Y6033062D01*
G01X27937245Y6033062D01*
G01X27948675Y6027474D01*
G01X27954517Y6010202D01*
G01X27954517Y5953052D01*
G01X27954517Y6010202D02*
G01X27971535Y6027474D01*
G01X27982965Y6033062D01*
G01X28000237Y6033062D01*
G01X28011667Y6027474D01*
G01X28017255Y6010202D01*
G01X28017255Y5953052D01*
G01X28193023Y6073194D02*
G01X28193023Y5953052D01*
G01X28193023Y5953052D02*
G01X28261603Y5953052D01*
G01X28377935Y6033062D02*
G01X28377935Y5953052D01*
G01X28377935Y6016044D02*
G01X28366505Y6027474D01*
G01X28355075Y6033062D01*
G01X28338057Y6033062D01*
G01X28326627Y6027474D01*
G01X28315197Y6016044D01*
G01X28309355Y5998772D01*
G01X28309355Y5987342D01*
G01X28315197Y5970324D01*
G01X28326627Y5958894D01*
G01X28338057Y5953052D01*
G01X28355075Y5953052D01*
G01X28366505Y5958894D01*
G01X28377935Y5970324D01*
G01X28431529Y6033062D02*
G01X28465819Y5953052D01*
G01X28500109Y6033062D02*
G01X28465819Y5953052D01*
G01X28454389Y5930192D01*
G01X28442959Y5918762D01*
G01X28431529Y5913174D01*
G01X28425687Y5913174D01*
G01X28547861Y5998772D02*
G01X28616441Y5998772D01*
G01X28616441Y6010202D01*
G01X28610853Y6021632D01*
G01X28605011Y6027474D01*
G01X28593581Y6033062D01*
G01X28576563Y6033062D01*
G01X28565133Y6027474D01*
G01X28553703Y6016044D01*
G01X28547861Y5998772D01*
G01X28547861Y5987342D01*
G01X28553703Y5970324D01*
G01X28565133Y5958894D01*
G01X28576563Y5953052D01*
G01X28593581Y5953052D01*
G01X28605011Y5958894D01*
G01X28616441Y5970324D01*
G01X28664193Y6033062D02*
G01X28664193Y5953052D01*
G01X28664193Y5998772D02*
G01X28670035Y6016044D01*
G01X28681465Y6027474D01*
G01X28692895Y6033062D01*
G01X28709913Y6033062D01*

G04 Image Start*
G36*
G01X13174888Y6473153D02*
G01X13069275Y6484634D01*
G01X13026400Y6387428D01*
G01X12983525Y6484634D01*
G01X12877911Y6473153D01*
G01X12940675Y6558878D01*
G01X12900953Y6613133D01*
G01X12932445Y6613133D01*
G01X12972145Y6558878D01*
G01X12932445Y6504624D01*
G01X12999273Y6511888D01*
G01X12999273Y6511888D01*
G01X13026400Y6450395D01*
G01X13053527Y6511888D01*
G01X13120354Y6504624D01*
G01X13080654Y6558878D01*
G01X13120329Y6613107D01*
G01X13053502Y6605843D01*
G01X13026400Y6667362D01*
G01X12999273Y6605868D01*
G01X12932445Y6613133D01*
G01X12900953Y6613133D01*
G01X12877911Y6644603D01*
G01X12983550Y6633122D01*
G01X13026400Y6730328D01*
G01X13069275Y6633122D01*
G01X13174888Y6644603D01*
G01X13112125Y6558878D01*
G01X13174888Y6473153D01*
G37*
G36*
G01X13045895Y7587458D02*
G01X13038155Y7586869D01*
G01X13030311Y7586671D01*
G01X13022468Y7586869D01*
G01X13014728Y7587458D01*
G01X13007101Y7588427D01*
G01X12999595Y7589767D01*
G01X12984990Y7593522D01*
G01X12970987Y7598646D01*
G01X12957665Y7605063D01*
G01X12945100Y7612697D01*
G01X12933368Y7621469D01*
G01X12922546Y7631305D01*
G01X12912710Y7642127D01*
G01X12903937Y7653859D01*
G01X12896304Y7666425D01*
G01X12889887Y7679747D01*
G01X12884762Y7693749D01*
G01X12881007Y7708355D01*
G01X12879667Y7715860D01*
G01X12878698Y7723488D01*
G01X12878110Y7731228D01*
G01X12877911Y7739071D01*
G01X12903311Y7739071D01*
G01X12903968Y7726104D01*
G01X12905896Y7713508D01*
G01X12909031Y7701347D01*
G01X12913308Y7689684D01*
G01X12918662Y7678585D01*
G01X12925031Y7668113D01*
G01X12932348Y7658334D01*
G01X12940551Y7649311D01*
G01X12949574Y7641108D01*
G01X12959354Y7633790D01*
G01X12969825Y7627422D01*
G01X12980925Y7622067D01*
G01X12992587Y7617790D01*
G01X13004749Y7614656D01*
G01X13004749Y7614656D01*
G01X13017345Y7612728D01*
G01X13030311Y7612071D01*
G01X13043278Y7612728D01*
G01X13055874Y7614656D01*
G01X13068036Y7617790D01*
G01X13079698Y7622067D01*
G01X13090797Y7627422D01*
G01X13101269Y7633790D01*
G01X13111049Y7641108D01*
G01X13120072Y7649311D01*
G01X13128275Y7658334D01*
G01X13135592Y7668113D01*
G01X13141961Y7678585D01*
G01X13147315Y7689684D01*
G01X13151592Y7701347D01*
G01X13154727Y7713508D01*
G01X13156655Y7726104D01*
G01X13157311Y7739071D01*
G01X13156655Y7752037D01*
G01X13154727Y7764634D01*
G01X13151592Y7776795D01*
G01X13147315Y7788458D01*
G01X13141961Y7799557D01*
G01X13135592Y7810029D01*
G01X13128275Y7819808D01*
G01X13120072Y7828831D01*
G01X13111049Y7837034D01*
G01X13101269Y7844352D01*
G01X13090797Y7850720D01*
G01X13079698Y7856075D01*
G01X13068036Y7860352D01*
G01X13055874Y7863486D01*
G01X13043278Y7865414D01*
G01X13030311Y7866071D01*
G01X13017345Y7865414D01*
G01X13004749Y7863486D01*
G01X12992587Y7860352D01*
G01X12980925Y7856075D01*
G01X12969825Y7850720D01*
G01X12959354Y7844352D01*
G01X12949574Y7837034D01*
G01X12940551Y7828831D01*
G01X12932348Y7819808D01*
G01X12925031Y7810029D01*
G01X12918662Y7799557D01*
G01X12913308Y7788458D01*
G01X12909031Y7776795D01*
G01X12905896Y7764634D01*
G01X12903968Y7752037D01*
G01X12903311Y7739071D01*
G01X12877911Y7739071D01*
G01X12878110Y7746914D01*
G01X12878698Y7754654D01*
G01X12879667Y7762282D01*
G01X12881007Y7769787D01*
G01X12884762Y7784393D01*
G01X12889887Y7798395D01*
G01X12896304Y7811717D01*
G01X12903937Y7824283D01*
G01X12912710Y7836015D01*
G01X12922546Y7846837D01*
G01X12933368Y7856673D01*
G01X12945100Y7865445D01*
G01X12957665Y7873079D01*
G01X12970987Y7879496D01*
G01X12984990Y7884620D01*
G01X12999595Y7888375D01*
G01X13007101Y7889715D01*
G01X13014728Y7890684D01*
G01X13022468Y7891273D01*
G01X13030311Y7891471D01*
G01X13038155Y7891273D01*
G01X13045895Y7890684D01*
G01X13053522Y7889715D01*
G01X13061027Y7888375D01*
G01X13075633Y7884620D01*
G01X13089636Y7879496D01*
G01X13102958Y7873079D01*
G01X13115523Y7865445D01*
G01X13127255Y7856673D01*
G01X13138077Y7846837D01*
G01X13147913Y7836015D01*
G01X13156686Y7824283D01*
G01X13164319Y7811717D01*
G01X13170736Y7798395D01*
G01X13175860Y7784393D01*
G01X13179616Y7769787D01*
G01X13180956Y7762282D01*
G01X13181925Y7754654D01*
G01X13182513Y7746914D01*
G01X13182711Y7739071D01*
G01X13182513Y7731228D01*
G01X13181925Y7723488D01*
G01X13180956Y7715860D01*
G01X13179616Y7708355D01*
G01X13175860Y7693749D01*
G01X13170736Y7679747D01*
G01X13164319Y7666425D01*
G01X13156686Y7653859D01*
G01X13147913Y7642127D01*
G01X13138077Y7631305D01*
G01X13127255Y7621469D01*
G01X13115523Y7612697D01*
G01X13102958Y7605063D01*
G01X13089636Y7598646D01*
G01X13075633Y7593522D01*
G01X13061027Y7589767D01*
G01X13053522Y7588427D01*
G01X13045895Y7587458D01*
G37*
G36*
G01X13182711Y6149757D02*
G01X13112684Y5997357D01*
G01X13182711Y5844957D01*
G01X13030311Y5914984D01*
G01X12877911Y5844957D01*
G01X12901674Y5896671D01*
G01X12929626Y5896671D01*
G01X13019694Y5938073D01*
G01X13030311Y5942950D01*
G01X13040929Y5938073D01*
G01X13130997Y5896671D01*
G01X13089595Y5986739D01*
G01X13084718Y5997357D01*
G01X13089595Y6007974D01*
G01X13130997Y6098042D01*
G01X13040929Y6056640D01*
G01X13030311Y6051763D01*
G01X13019694Y6056640D01*
G01X12929626Y6098042D01*
G01X12971028Y6007974D01*
G01X12975905Y5997357D01*
G01X12975905Y5997357D01*
G01X12971028Y5986739D01*
G01X12929626Y5896671D01*
G01X12901674Y5896671D01*
G01X12947939Y5997357D01*
G01X12877911Y6149757D01*
G01X13030311Y6079729D01*
G01X13182711Y6149757D01*
G37*
G36*
G01X12877911Y7310900D02*
G01X13182711Y7310900D01*
G01X13030311Y7046943D01*
G01X12892577Y7285500D01*
G01X12921904Y7285500D01*
G01X13030311Y7097743D01*
G01X13138719Y7285500D01*
G01X13138719Y7285500D01*
G01X12921904Y7285500D01*
G01X12892577Y7285500D01*
G01X12877911Y7310900D01*
G37*
G36*
G01X12877911Y8472042D02*
G01X13157311Y8472042D01*
G01X13157311Y8192642D01*
G01X12877911Y8192642D01*
G01X12877911Y8446642D01*
G01X12903311Y8446642D01*
G01X12903311Y8218042D01*
G01X13131911Y8218042D01*
G01X13131911Y8446642D01*
G01X13131911Y8446642D01*
G01X12903311Y8446642D01*
G01X12877911Y8446642D01*
G01X12877911Y8472042D01*
G37*

G04 PolygonModel Start*
G54D16*
G01X12587626Y5714328D02*
G01X29300644Y5714328D01*
G01X12587626Y6294900D02*
G01X29300644Y6294900D01*
G01X12587626Y6875471D02*
G01X29300644Y6875471D01*
G01X12587626Y7456042D02*
G01X29300644Y7456042D01*
G01X12587626Y8036614D02*
G01X29300644Y8036614D01*
G01X12587626Y8617185D02*
G01X29300644Y8617185D01*
G01X12587626Y9197757D02*
G01X29300644Y9197757D01*
G01X12587626Y9197757D02*
G01X12587626Y5739728D01*
G01X14039054Y9197757D02*
G01X14039054Y5739728D01*
G01X15453217Y9197757D02*
G01X15453217Y5739728D01*
G01X19341341Y9197757D02*
G01X19341341Y5739728D01*
G01X20802748Y9197757D02*
G01X20802748Y5739728D01*
G01X22233929Y9197757D02*
G01X22233929Y5739728D01*
G01X23903108Y9197757D02*
G01X23903108Y5739728D01*
G01X25822477Y9197757D02*
G01X25822477Y5739728D01*
G01X29300644Y9197757D02*
G01X29300644Y5739728D01*

M02*

