G04 Layer: BottomLayer*
G04 EasyEDA Pro v3.2.148, 2026-07-23 02:23:22*
G04 Gerber Generator version 0.3*
G04 Scale: 100 percent, Rotated: No, Reflected: No*
G04 Dimensions in millimeters*
G04 Leading zeros omitted, absolute positions, 4 integers and 5 decimals*
G04 Generated by one-click*
G04 Object Configs: Pad,Via,Track,Text,Image,Dimension,BoardOutline,BoardCutout,CopperFilled,SolidRegion,FPCStiffener,Line,PlaneZone,ComponentProperty,ComponentSilkscreen,TearDrop*
G04 Layer Configs: 1,2,3,4,5,6,7,8,9,10,11,13,14,56*
G04 Copper Areas: 57*
%FSLAX45Y45*%
%MOMM*%
%ADD10C,0.2032*%
%ADD11C,0.254*%
%ADD12O,2.0X1.1*%
%ADD13O,1.8X1.2*%
%ADD14O,3.09999X1.2*%
%ADD15O,1.1X2.0*%
%ADD16O,1.2022X1.8*%
%ADD17O,1.2X1.8*%
%ADD18C,0.6096*%
G75*


G04 Copper Start*
G36*
G01X4455505Y-346651D02*
G01X4455531Y-14988D01*
G01X6979887Y-14988D01*
G01X6979887Y-104988D01*
G01X6981807Y-123559D01*
G01X6987483Y-141345D01*
G01X6996676Y-157594D01*
G01X7008998Y-171620D01*
G01X7023927Y-182830D01*
G01X7040834Y-190750D01*
G01X7059002Y-195045D01*
G01X7077665Y-195535D01*
G01X7096034Y-192197D01*
G01X7113333Y-185174D01*
G01X7128829Y-174762D01*
G01X7141869Y-161401D01*
G01X7151901Y-145655D01*
G01X7161205Y-158966D01*
G01X7173297Y-169807D01*
G01X7187541Y-177608D01*
G01X7203188Y-181959D01*
G01X7219415Y-182631D01*
G01X7235367Y-179589D01*
G01X7250208Y-172992D01*
G01X7263155Y-163187D01*
G01X7271522Y-153106D01*
G01X7364370Y-153106D01*
G01X7367498Y-168134D01*
G01X7373999Y-182039D01*
G01X7383523Y-194077D01*
G01X7395561Y-203602D01*
G01X7409466Y-210102D01*
G01X7424494Y-213230D01*
G01X7439838Y-212819D01*
G01X7454677Y-208889D01*
G01X7468213Y-201652D01*
G01X7479723Y-191496D01*
G01X7488588Y-178965D01*
G01X7494334Y-164731D01*
G01X7496652Y-149557D01*
G01X7512745Y-133465D01*
G01X7511332Y-149060D01*
G01X7513617Y-164552D01*
G01X7519472Y-179076D01*
G01X7528571Y-191821D01*
G01X7540405Y-202077D01*
G01X7554315Y-209270D01*
G01X7569523Y-213000D01*
G01X7585183Y-213059D01*
G01X7600419Y-209443D01*
G01X7614382Y-202354D01*
G01X7626293Y-192188D01*
G01X7635487Y-179511D01*
G01X7641451Y-165032D01*
G01X7643852Y-149557D01*
G01X7689282Y-104127D01*
G01X7721838Y-104127D01*
G01X7721893Y-120364D01*
G01X7721893Y-120364D01*
G01X7725645Y-136162D01*
G01X7732897Y-150690D01*
G01X7743268Y-163184D01*
G01X7756212Y-172988D01*
G01X7771048Y-179586D01*
G01X7786998Y-182630D01*
G01X7803221Y-181962D01*
G01X7818866Y-177616D01*
G01X7833110Y-169820D01*
G01X7845204Y-158985D01*
G01X7854511Y-145680D01*
G01X7864547Y-161420D01*
G01X7877588Y-174776D01*
G01X7893086Y-185184D01*
G01X7910384Y-192202D01*
G01X7928751Y-195536D01*
G01X7947412Y-195043D01*
G01X7965578Y-190746D01*
G01X7982482Y-182824D01*
G01X7997408Y-171614D01*
G01X8009728Y-157589D01*
G01X8018919Y-141341D01*
G01X8024594Y-123557D01*
G01X8026512Y-104988D01*
G01X8026512Y-14988D01*
G01X8024528Y3893D01*
G01X8018661Y21949D01*
G01X8009168Y38391D01*
G01X7996465Y52500D01*
G01X7981105Y63659D01*
G01X7963761Y71381D01*
G01X7945191Y75328D01*
G01X7926206Y75328D01*
G01X7907635Y71381D01*
G01X7890291Y63659D01*
G01X7874932Y52500D01*
G01X7862228Y38391D01*
G01X7852736Y21949D01*
G01X7846869Y3893D01*
G01X7844884Y-14988D01*
G01X7844884Y-64673D01*
G01X7832718Y-53919D01*
G01X7818422Y-46220D01*
G01X7802748Y-41980D01*
G01X7786520Y-41421D01*
G01X7770592Y-44574D01*
G01X7755800Y-51272D01*
G01X7742923Y-61163D01*
G01X7732637Y-73727D01*
G01X7725484Y-88304D01*
G01X7721838Y-104127D01*
G01X7689282Y-104127D01*
G01X7931904Y138495D01*
G01X7939614Y148543D01*
G01X7944461Y160244D01*
G01X7946114Y172800D01*
G01X7946114Y571494D01*
G01X9901172Y571494D01*
G01X9901172Y552509D01*
G01X9905119Y533938D01*
G01X9912841Y516594D01*
G01X9924000Y501235D01*
G01X9938109Y488531D01*
G01X9954551Y479039D01*
G01X9972607Y473172D01*
G01X9991488Y471188D01*
G01X10081488Y471188D01*
G01X10100059Y473107D01*
G01X10117845Y478783D01*
G01X10134094Y487976D01*
G01X10148120Y500298D01*
G01X10159330Y515227D01*
G01X10167250Y532134D01*
G01X10171545Y550302D01*
G01X10172035Y568966D01*
G01X10168697Y587334D01*
G01X10161674Y604633D01*
G01X10151262Y620129D01*
G01X10137901Y633169D01*
G01X10122155Y643201D01*
G01X10135466Y652505D01*
G01X10146307Y664597D01*
G01X10154108Y678841D01*
G01X10158459Y694488D01*
G01X10159131Y710715D01*
G01X10156089Y726667D01*
G01X10149492Y741508D01*
G01X10139687Y754455D01*
G01X10127191Y764827D01*
G01X10112660Y772080D01*
G01X10096859Y775832D01*
G01X10080619Y775886D01*
G01X10064793Y772238D01*
G01X10050215Y765081D01*
G01X10037651Y754790D01*
G01X10027761Y741908D01*
G01X10021067Y727112D01*
G01X10017919Y711179D01*
G01X10018484Y694949D01*
G01X10022732Y679274D01*
G01X10030439Y664979D01*
G01X10041201Y652815D01*
G01X9991488Y652815D01*
G01X9991488Y652815D01*
G01X9972607Y650831D01*
G01X9954551Y644964D01*
G01X9938109Y635471D01*
G01X9924000Y622768D01*
G01X9912841Y607408D01*
G01X9905119Y590064D01*
G01X9901172Y571494D01*
G01X7946114Y571494D01*
G01X7946114Y1436491D01*
G01X9901172Y1436491D01*
G01X9901172Y1417506D01*
G01X9905119Y1398935D01*
G01X9912841Y1381591D01*
G01X9924000Y1366232D01*
G01X9938109Y1353528D01*
G01X9954551Y1344036D01*
G01X9972607Y1338169D01*
G01X9991488Y1336185D01*
G01X10041173Y1336185D01*
G01X10030419Y1324018D01*
G01X10022720Y1309722D01*
G01X10018480Y1294048D01*
G01X10017921Y1277820D01*
G01X10021074Y1261892D01*
G01X10027772Y1247100D01*
G01X10037663Y1234223D01*
G01X10050227Y1223937D01*
G01X10064804Y1216784D01*
G01X10080627Y1213138D01*
G01X10096864Y1213193D01*
G01X10112662Y1216945D01*
G01X10127190Y1224197D01*
G01X10139684Y1234568D01*
G01X10149488Y1247512D01*
G01X10156086Y1262348D01*
G01X10159130Y1278298D01*
G01X10158462Y1294522D01*
G01X10154116Y1310166D01*
G01X10146320Y1324410D01*
G01X10135485Y1336504D01*
G01X10122180Y1345811D01*
G01X10137920Y1355847D01*
G01X10151276Y1368889D01*
G01X10161684Y1384386D01*
G01X10168702Y1401684D01*
G01X10172036Y1420051D01*
G01X10171543Y1438712D01*
G01X10167246Y1456878D01*
G01X10159324Y1473782D01*
G01X10148114Y1488708D01*
G01X10134089Y1501028D01*
G01X10117841Y1510219D01*
G01X10100057Y1515894D01*
G01X10081488Y1517812D01*
G01X10081488Y1517812D01*
G01X9991488Y1517812D01*
G01X9972607Y1515828D01*
G01X9954551Y1509961D01*
G01X9938109Y1500468D01*
G01X9924000Y1487765D01*
G01X9912841Y1472405D01*
G01X9905119Y1455061D01*
G01X9901172Y1436491D01*
G01X7946114Y1436491D01*
G01X7946114Y2088721D01*
G01X7955167Y2101024D01*
G01X7961164Y2115073D01*
G01X7963786Y2130121D01*
G01X7962895Y2145369D01*
G01X7958537Y2160009D01*
G01X7950944Y2173263D01*
G01X7940519Y2184427D01*
G01X7927816Y2192909D01*
G01X7927816Y2192909D01*
G01X7913509Y2198259D01*
G01X7898357Y2200192D01*
G01X7883165Y2198605D01*
G01X7868739Y2193584D01*
G01X7855845Y2185394D01*
G01X7845168Y2174471D01*
G01X7837275Y2161394D01*
G01X7832584Y2146857D01*
G01X7818216Y2143784D01*
G01X7804877Y2137621D01*
G01X7793223Y2128672D01*
G01X7783828Y2117375D01*
G01X7777151Y2104286D01*
G01X7773521Y2090048D01*
G01X7773117Y2075360D01*
G01X7775958Y2060944D01*
G01X7781905Y2047508D01*
G01X7790666Y2035712D01*
G01X7790666Y281675D01*
G01X7428043Y-80948D01*
G01X7412869Y-83266D01*
G01X7398635Y-89012D01*
G01X7386104Y-97877D01*
G01X7375948Y-109387D01*
G01X7368711Y-122924D01*
G01X7364781Y-137762D01*
G01X7364370Y-153106D01*
G01X7271522Y-153106D01*
G01X7273527Y-150691D01*
G01X7280780Y-136160D01*
G01X7284532Y-120359D01*
G01X7284586Y-104119D01*
G01X7280938Y-88293D01*
G01X7273781Y-73715D01*
G01X7263490Y-61151D01*
G01X7250608Y-51261D01*
G01X7235812Y-44567D01*
G01X7219879Y-41419D01*
G01X7203649Y-41984D01*
G01X7187974Y-46232D01*
G01X7173679Y-53939D01*
G01X7161515Y-64701D01*
G01X7161515Y-14988D01*
G01X7161515Y-14988D01*
G01X7159531Y3893D01*
G01X7153664Y21949D01*
G01X7144171Y38391D01*
G01X7131468Y52500D01*
G01X7116108Y63659D01*
G01X7098764Y71381D01*
G01X7080194Y75328D01*
G01X7061209Y75328D01*
G01X7042638Y71381D01*
G01X7025294Y63659D01*
G01X7009935Y52500D01*
G01X6997231Y38391D01*
G01X6987739Y21949D01*
G01X6981872Y3893D01*
G01X6979887Y-14988D01*
G01X4455531Y-14988D01*
G01X4455556Y303119D01*
G01X4471759Y294756D01*
G01X4489253Y289614D01*
G01X4507404Y287879D01*
G01X4697404Y287879D01*
G01X4716096Y289720D01*
G01X4734070Y295172D01*
G01X4750635Y304026D01*
G01X4765154Y315942D01*
G01X4777070Y330461D01*
G01X4785924Y347026D01*
G01X4791376Y365000D01*
G01X4793217Y383692D01*
G01X4791376Y402385D01*
G01X4785924Y420359D01*
G01X4777070Y436924D01*
G01X4765154Y451443D01*
G01X4750635Y463359D01*
G01X4734070Y472213D01*
G01X4716096Y477665D01*
G01X4697404Y479506D01*
G01X4507404Y479506D01*
G01X4489258Y477772D01*
G01X4471768Y472633D01*
G01X4455569Y464274D01*
G01X4455658Y1593068D01*
G01X4471834Y1584741D01*
G01X4489293Y1579621D01*
G01X4507404Y1577894D01*
G01X4697404Y1577894D01*
G01X4716096Y1579735D01*
G01X4734070Y1585187D01*
G01X4750635Y1594041D01*
G01X4765154Y1605957D01*
G01X4777070Y1620476D01*
G01X4785924Y1637041D01*
G01X4791376Y1655015D01*
G01X4793217Y1673708D01*
G01X4791376Y1692400D01*
G01X4785924Y1710374D01*
G01X4777070Y1726939D01*
G01X4765154Y1741458D01*
G01X4750635Y1753374D01*
G01X4734070Y1762228D01*
G01X4716096Y1767680D01*
G01X4697404Y1769521D01*
G01X4507404Y1769521D01*
G01X4489298Y1767795D01*
G01X4471844Y1762678D01*
G01X4455671Y1754355D01*
G01X4455727Y2460376D01*
G01X4467649Y2447042D01*
G01X4481841Y2436156D01*
G01X4497809Y2428098D01*
G01X4514996Y2423148D01*
G01X4532804Y2421479D01*
G01X4722804Y2421479D01*
G01X4741496Y2423320D01*
G01X4759470Y2428772D01*
G01X4776035Y2437626D01*
G01X4790554Y2449542D01*
G01X4802470Y2464061D01*
G01X4811324Y2480626D01*
G01X4816776Y2498600D01*
G01X4818617Y2517292D01*
G01X4816776Y2535985D01*
G01X4811324Y2553959D01*
G01X4802470Y2570524D01*
G01X4790554Y2585043D01*
G01X4776035Y2596959D01*
G01X4759470Y2605813D01*
G01X4741496Y2611265D01*
G01X4722804Y2613106D01*
G01X4532804Y2613106D01*
G01X4515980Y2611618D01*
G01X4499678Y2607198D01*
G01X4484406Y2599984D01*
G01X4470638Y2590201D01*
G01X4458802Y2578152D01*
G01X4458802Y2578152D01*
G01X4458802Y2578152D01*
G01X4459001Y2743994D01*
G01X9901672Y2743994D01*
G01X9901672Y2725009D01*
G01X9905619Y2706438D01*
G01X9913341Y2689095D01*
G01X9924501Y2673735D01*
G01X9938609Y2661032D01*
G01X9955051Y2651539D01*
G01X9973107Y2645672D01*
G01X9991988Y2643688D01*
G01X10081988Y2643688D01*
G01X10100559Y2645607D01*
G01X10118345Y2651283D01*
G01X10134594Y2660476D01*
G01X10148620Y2672798D01*
G01X10159830Y2687727D01*
G01X10167750Y2704634D01*
G01X10172045Y2722802D01*
G01X10172535Y2741466D01*
G01X10169197Y2759834D01*
G01X10162174Y2777133D01*
G01X10151762Y2792629D01*
G01X10138401Y2805669D01*
G01X10122655Y2815701D01*
G01X10135966Y2825005D01*
G01X10146807Y2837097D01*
G01X10154609Y2851341D01*
G01X10158959Y2866988D01*
G01X10159631Y2883215D01*
G01X10156589Y2899168D01*
G01X10149992Y2914008D01*
G01X10140187Y2926955D01*
G01X10127691Y2937327D01*
G01X10113160Y2944581D01*
G01X10097359Y2948333D01*
G01X10081119Y2948386D01*
G01X10065293Y2944738D01*
G01X10050715Y2937581D01*
G01X10038151Y2927290D01*
G01X10028262Y2914408D01*
G01X10021567Y2899612D01*
G01X10018419Y2883679D01*
G01X10018985Y2867449D01*
G01X10023232Y2851774D01*
G01X10030940Y2837479D01*
G01X10041701Y2825315D01*
G01X9991988Y2825315D01*
G01X9991988Y2825315D01*
G01X9973107Y2823331D01*
G01X9955051Y2817464D01*
G01X9938609Y2807971D01*
G01X9924501Y2795268D01*
G01X9913341Y2779908D01*
G01X9905619Y2762565D01*
G01X9901672Y2743994D01*
G01X4459001Y2743994D01*
G01X4460043Y3608991D01*
G01X9901672Y3608991D01*
G01X9901672Y3590006D01*
G01X9905619Y3571435D01*
G01X9913341Y3554092D01*
G01X9924501Y3538732D01*
G01X9938609Y3526029D01*
G01X9955051Y3516536D01*
G01X9973107Y3510669D01*
G01X9991988Y3508685D01*
G01X10041673Y3508685D01*
G01X10030920Y3496518D01*
G01X10023220Y3482222D01*
G01X10018980Y3466548D01*
G01X10018422Y3450320D01*
G01X10021574Y3434392D01*
G01X10028272Y3419600D01*
G01X10038163Y3406723D01*
G01X10050727Y3396437D01*
G01X10065304Y3389284D01*
G01X10081127Y3385639D01*
G01X10097364Y3385694D01*
G01X10113162Y3389446D01*
G01X10127690Y3396698D01*
G01X10140185Y3407068D01*
G01X10149988Y3420012D01*
G01X10156586Y3434849D01*
G01X10159630Y3450798D01*
G01X10158962Y3467022D01*
G01X10154616Y3482667D01*
G01X10146820Y3496910D01*
G01X10135985Y3509004D01*
G01X10122680Y3518311D01*
G01X10138420Y3528347D01*
G01X10151777Y3541389D01*
G01X10162184Y3556886D01*
G01X10169202Y3574184D01*
G01X10172536Y3592551D01*
G01X10172043Y3611212D01*
G01X10167746Y3629378D01*
G01X10159825Y3646282D01*
G01X10148614Y3661209D01*
G01X10134589Y3673528D01*
G01X10118341Y3682719D01*
G01X10100557Y3688394D01*
G01X10081988Y3690312D01*
G01X10081988Y3690312D01*
G01X9991988Y3690312D01*
G01X9973107Y3688328D01*
G01X9955051Y3682461D01*
G01X9938609Y3672968D01*
G01X9924501Y3660265D01*
G01X9913341Y3644905D01*
G01X9905619Y3627562D01*
G01X9901672Y3608991D01*
G01X4460043Y3608991D01*
G01X4460206Y3744779D01*
G01X4460206Y3744779D01*
G01X4471976Y3733279D01*
G01X4485540Y3723962D01*
G01X4500498Y3717104D01*
G01X4516409Y3712907D01*
G01X4532804Y3711494D01*
G01X4722804Y3711494D01*
G01X4741496Y3713335D01*
G01X4759470Y3718787D01*
G01X4776035Y3727641D01*
G01X4790554Y3739557D01*
G01X4802470Y3754076D01*
G01X4811324Y3770641D01*
G01X4816776Y3788615D01*
G01X4818617Y3807308D01*
G01X4816776Y3826000D01*
G01X4811324Y3843974D01*
G01X4802470Y3860539D01*
G01X4790554Y3875058D01*
G01X4776035Y3886974D01*
G01X4759470Y3895828D01*
G01X4741496Y3901280D01*
G01X4722804Y3903121D01*
G01X4532804Y3903121D01*
G01X4516461Y3901717D01*
G01X4500596Y3897546D01*
G01X4485676Y3890730D01*
G01X4472137Y3881468D01*
G01X4460376Y3870033D01*
G01X4460376Y3870033D01*
G01X4460376Y3870033D01*
G01X4461207Y4447476D01*
G01X4461207Y4447476D01*
G01X4461207Y4447476D01*
G01X4462285Y4799146D01*
G01X4464456Y5150811D01*
G01X4464456Y5150811D01*
G01X4464456Y5150811D01*
G01X4473588Y5590479D01*
G01X4473588Y5590479D01*
G01X4486510Y5654286D01*
G01X4486510Y5654286D01*
G01X4503589Y5711274D01*
G01X4503589Y5711274D01*
G01X4503589Y5711274D01*
G01X4523091Y5780147D01*
G01X4523091Y5780147D01*
G01X4542228Y5851840D01*
G01X4542228Y5851840D01*
G01X4563471Y5930594D01*
G01X4586254Y6008916D01*
G01X4586254Y6008916D01*
G01X4586254Y6008916D01*
G01X4607322Y6075031D01*
G01X4630443Y6140456D01*
G01X4630443Y6140456D01*
G01X4655709Y6205442D01*
G01X4682978Y6269613D01*
G01X4682978Y6269613D01*
G01X4717187Y6344833D01*
G01X4752820Y6419388D01*
G01X4752820Y6419388D01*
G01X4799175Y6510401D01*
G01X4848370Y6599910D01*
G01X4900356Y6687828D01*
G01X4900356Y6687828D01*
G01X4954824Y6773618D01*
G01X5012002Y6857625D01*
G01X5071834Y6939765D01*
G01X5071834Y6939765D01*
G01X5133957Y7019553D01*
G01X5198607Y7097308D01*
G01X5265719Y7172949D01*
G01X5265719Y7172949D01*
G01X5334910Y7246038D01*
G01X5406442Y7316838D01*
G01X5480239Y7385275D01*
G01X5480239Y7385275D01*
G01X5563384Y7457367D01*
G01X5648952Y7526565D01*
G01X5736843Y7592788D01*
G01X5826953Y7655958D01*
G01X5826953Y7655958D01*
G01X5916544Y7714086D01*
G01X6008246Y7768823D01*
G01X6101932Y7820090D01*
G01X6197470Y7867817D01*
G01X6197470Y7867817D01*
G01X6297221Y7913134D01*
G01X6398553Y7954799D01*
G01X6501331Y7992755D01*
G01X6605419Y8026954D01*
G01X6605419Y8026954D01*
G01X6718906Y8060169D01*
G01X6833312Y8090068D01*
G01X6948539Y8116626D01*
G01X7064489Y8139820D01*
G01X7064489Y8139820D01*
G01X7119619Y8150561D01*
G01X7119619Y8150561D01*
G01X7167245Y8161046D01*
G01X7167245Y8161046D01*
G01X7207290Y8170730D01*
G01X7207290Y8170730D01*
G01X7215608Y8173977D01*
G01X7222821Y8179239D01*
G01X7228453Y8186167D01*
G01X7232570Y8195413D01*
G01X7234076Y8205421D01*
G01X7232864Y8215469D01*
G01X7229020Y8224832D01*
G01X7222823Y8232833D01*
G01X7222823Y8232833D01*
G01X7200011Y8255000D01*
G01X7390686Y8255000D01*
G01X7392669Y8228385D01*
G01X7398597Y8202363D01*
G01X7408338Y8177515D01*
G01X7421675Y8154398D01*
G01X7438310Y8133527D01*
G01X7457870Y8115370D01*
G01X7479919Y8100332D01*
G01X7503963Y8088749D01*
G01X7529465Y8080880D01*
G01X7555856Y8076901D01*
G01X7582544Y8076901D01*
G01X7608935Y8080880D01*
G01X7634437Y8088749D01*
G01X7658481Y8100332D01*
G01X7680530Y8115370D01*
G01X7700090Y8133527D01*
G01X7716725Y8154398D01*
G01X7730062Y8177515D01*
G01X7739803Y8202363D01*
G01X7745731Y8228385D01*
G01X7747714Y8255000D01*
G01X7745731Y8281615D01*
G01X7739803Y8307637D01*
G01X7730062Y8332485D01*
G01X7716725Y8355602D01*
G01X7700090Y8376473D01*
G01X7680530Y8394630D01*
G01X7658481Y8409668D01*
G01X7634437Y8421251D01*
G01X7608935Y8429120D01*
G01X7582544Y8433099D01*
G01X7555856Y8433099D01*
G01X7529465Y8429120D01*
G01X7503963Y8421251D01*
G01X7479919Y8409668D01*
G01X7457870Y8394630D01*
G01X7438310Y8376473D01*
G01X7421675Y8355602D01*
G01X7408338Y8332485D01*
G01X7398597Y8307637D01*
G01X7392669Y8281615D01*
G01X7390686Y8255000D01*
G01X7390686Y8255000D01*
G01X7200011Y8255000D01*
G01X7134514Y8318644D01*
G01X7134514Y8318644D01*
G01X7090470Y8360072D01*
G01X7045590Y8400591D01*
G01X7045590Y8400591D01*
G01X7009195Y8431418D01*
G01X6971513Y8460657D01*
G01X6971513Y8460657D01*
G01X6929568Y8490895D01*
G01X6886800Y8519959D01*
G01X6886800Y8519959D01*
G01X6841220Y8549244D01*
G01X6794952Y8577430D01*
G01X6794952Y8577430D01*
G01X6743480Y8607203D01*
G01X6691380Y8635863D01*
G01X6691380Y8635863D01*
G01X6571332Y8698006D01*
G01X6571332Y8698006D01*
G01X6516015Y8726523D01*
G01X6461448Y8756451D01*
G01X6461448Y8756451D01*
G01X6461448Y8756451D01*
G01X6432806Y8774865D01*
G01X6406441Y8796412D01*
G01X6406441Y8796412D01*
G01X6396833Y8806495D01*
G01X6388667Y8817778D01*
G01X6382093Y8830056D01*
G01X6382093Y8830056D01*
G01X6377425Y8842707D01*
G01X6374587Y8855889D01*
G01X6373635Y8869340D01*
G01X6373635Y8869340D01*
G01X6374626Y8887290D01*
G01X6377588Y8905021D01*
G01X6382485Y8922319D01*
G01X6382485Y8922319D01*
G01X6388881Y8937696D01*
G01X6397161Y8952145D01*
G01X6407195Y8965436D01*
G01X6407195Y8965436D01*
G01X6417917Y8976318D01*
G01X6430016Y8985644D01*
G01X6443269Y8993241D01*
G01X6443269Y8993241D01*
G01X6456536Y8998495D01*
G01X6470442Y9001696D01*
G01X6484671Y9002771D01*
G01X6484671Y9002771D01*
G01X6521465Y9000818D01*
G01X6557846Y8994983D01*
G01X6593405Y8985330D01*
G01X6627743Y8971968D01*
G01X6627743Y8971968D01*
G01X6708317Y8934036D01*
G01X6787645Y8893564D01*
G01X6865647Y8850592D01*
G01X6865647Y8850592D01*
G01X6952123Y8799227D01*
G01X7036850Y8745026D01*
G01X7119735Y8688049D01*
G01X7119735Y8688049D01*
G01X7196132Y8631375D01*
G01X7270266Y8571772D01*
G01X7342025Y8509331D01*
G01X7342025Y8509331D01*
G01X7374746Y8480040D01*
G01X7374746Y8480040D01*
G01X7403251Y8455231D01*
G01X7403251Y8455231D01*
G01X7428099Y8434076D01*
G01X7428099Y8434076D01*
G01X7437403Y8428657D01*
G01X7448004Y8426773D01*
G01X7458263Y8428654D01*
G01X7467184Y8434060D01*
G01X7473599Y8442284D01*
G01X7473599Y8442284D01*
G01X7473599Y8442284D01*
G01X7501343Y8495593D01*
G01X7501343Y8495593D01*
G01X7501343Y8495593D01*
G01X7532379Y8556323D01*
G01X7532379Y8556323D01*
G01X7532379Y8556323D01*
G01X7568222Y8628276D01*
G01X7568222Y8628276D01*
G01X7568222Y8628276D01*
G01X7619761Y8728753D01*
G01X7674437Y8827557D01*
G01X7674437Y8827557D01*
G01X7706684Y8881503D01*
G01X7740806Y8934282D01*
G01X7776761Y8985829D01*
G01X7776761Y8985829D01*
G01X7806794Y9025542D01*
G01X7838458Y9063966D01*
G01X7871697Y9101035D01*
G01X7871697Y9101035D01*
G01X7895177Y9123335D01*
G01X7921131Y9142698D01*
G01X7949194Y9158852D01*
G01X7949194Y9158852D01*
G01X7966922Y9166075D01*
G01X7985540Y9170526D01*
G01X8004618Y9172100D01*
G01X8023715Y9170763D01*
G01X8043221Y9166463D01*
G01X8061924Y9159450D01*
G01X8079449Y9149865D01*
G01X8095443Y9137900D01*
G01X8109272Y9124066D01*
G01X8120958Y9108381D01*
G01X8130257Y9091173D01*
G01X8136974Y9072803D01*
G01X8140587Y9054779D01*
G01X8141277Y9036409D01*
G01X8139025Y9018165D01*
G01X8133889Y9000515D01*
G01X8128715Y8990570D01*
G01X8128715Y8990570D01*
G01X8108753Y8962136D01*
G01X8108753Y8962136D01*
G01X8083818Y8929121D01*
G01X8083818Y8929121D01*
G01X8056045Y8894820D01*
G01X8056045Y8894820D01*
G01X8014998Y8844123D01*
G01X7975535Y8792183D01*
G01X7975535Y8792183D01*
G01X7939113Y8740843D01*
G01X7904485Y8688275D01*
G01X7904485Y8688275D01*
G01X7875820Y8642105D01*
G01X7848047Y8595393D01*
G01X7848047Y8595393D01*
G01X7843514Y8584537D01*
G01X7841952Y8572877D01*
G01X7843469Y8561210D01*
G01X7847960Y8550337D01*
G01X7855119Y8541001D01*
G01X7862673Y8535492D01*
G01X7871549Y8532553D01*
G01X7880898Y8532466D01*
G01X7889827Y8535239D01*
G01X7889827Y8535239D01*
G01X7921896Y8551309D01*
G01X7921896Y8551309D01*
G01X7959959Y8571755D01*
G01X7959959Y8571755D01*
G01X8003433Y8596970D01*
G01X8003433Y8596970D01*
G01X8062063Y8631046D01*
G01X8121463Y8663761D01*
G01X8121463Y8663761D01*
G01X8191091Y8700402D01*
G01X8261260Y8735996D01*
G01X8261260Y8735996D01*
G01X8332141Y8770627D01*
G01X8403532Y8804194D01*
G01X8403532Y8804194D01*
G01X8466046Y8832166D01*
G01X8529175Y8858721D01*
G01X8529175Y8858721D01*
G01X8620545Y8894107D01*
G01X8713091Y8926292D01*
G01X8767864Y8943261D01*
G01X8823176Y8958379D01*
G01X8878966Y8971626D01*
G01X8878966Y8971626D01*
G01X8932008Y8982284D01*
G01X8985399Y8991025D01*
G01X9039070Y8997836D01*
G01X9039070Y8997836D01*
G01X9094304Y9002901D01*
G01X9149677Y9006109D01*
G01X9205126Y9007455D01*
G01X9205126Y9007455D01*
G01X9257899Y9006919D01*
G01X9310621Y9004524D01*
G01X9310621Y9004524D01*
G01X9346389Y9000584D01*
G01X9381633Y8993326D01*
G01X9406216Y8985265D01*
G01X9429501Y8973990D01*
G01X9429501Y8973990D01*
G01X9446633Y8961900D01*
G01X9461125Y8946745D01*
G01X9469218Y8934269D01*
G01X9474914Y8920532D01*
G01X9478026Y8905990D01*
G01X9479223Y8886370D01*
G01X9478111Y8866746D01*
G01X9474707Y8847387D01*
G01X9474707Y8847387D01*
G01X9469076Y8828638D01*
G01X9461279Y8810682D01*
G01X9451424Y8793767D01*
G01X9442233Y8782387D01*
G01X9431099Y8772898D01*
G01X9418406Y8765626D01*
G01X9405408Y8761595D01*
G01X9405408Y8761595D01*
G01X9361321Y8754509D01*
G01X9361321Y8754509D01*
G01X9308382Y8747729D01*
G01X9308382Y8747729D01*
G01X9308382Y8747729D01*
G01X9250976Y8742192D01*
G01X9250976Y8742192D01*
G01X9173231Y8735208D01*
G01X9095598Y8727074D01*
G01X9095598Y8727074D01*
G01X9032268Y8719085D01*
G01X8969180Y8709369D01*
G01X8969180Y8709369D01*
G01X8915614Y8699458D01*
G01X8862405Y8687787D01*
G01X8862405Y8687787D01*
G01X8814495Y8675303D01*
G01X8767194Y8660681D01*
G01X8767194Y8660681D01*
G01X8709230Y8639840D01*
G01X8652279Y8616370D01*
G01X8652279Y8616370D01*
G01X8571239Y8580043D01*
G01X8490762Y8542483D01*
G01X8490762Y8542483D01*
G01X8408776Y8502660D01*
G01X8327425Y8461557D01*
G01X8327425Y8461557D01*
G01X8327425Y8461557D01*
G01X8264618Y8427879D01*
G01X8202958Y8392144D01*
G01X8202958Y8392144D01*
G01X8100591Y8329217D01*
G01X8100591Y8329217D01*
G01X8004158Y8267208D01*
G01X8004158Y8267208D01*
G01X8004158Y8267208D01*
G01X7915281Y8208426D01*
G01X7915281Y8208426D01*
G01X7907749Y8201220D01*
G01X7903182Y8191849D01*
G01X7902146Y8181476D01*
G01X7904770Y8171388D01*
G01X7910729Y8162834D01*
G01X7918115Y8157252D01*
G01X7926744Y8153897D01*
G01X7926744Y8153897D01*
G01X7926744Y8153897D01*
G01X7967186Y8144387D01*
G01X7967186Y8144387D01*
G01X7967186Y8144387D01*
G01X8013777Y8133828D01*
G01X8013777Y8133828D01*
G01X8013777Y8133828D01*
G01X8068116Y8122122D01*
G01X8068116Y8122122D01*
G01X8068116Y8122122D01*
G01X8173109Y8098180D01*
G01X8277277Y8070867D01*
G01X8277277Y8070867D01*
G01X8379447Y8040474D01*
G01X8480552Y8006706D01*
G01X8480552Y8006706D01*
G01X8580759Y7969504D01*
G01X8679681Y7929005D01*
G01X8679681Y7929005D01*
G01X8778778Y7884638D01*
G01X8876422Y7837159D01*
G01X8876422Y7837159D01*
G01X8958338Y7794167D01*
G01X9038934Y7748751D01*
G01X9118141Y7700950D01*
G01X9195886Y7650809D01*
G01X9272101Y7598371D01*
G01X9272101Y7598371D01*
G01X9346379Y7543909D01*
G01X9418978Y7487229D01*
G01X9489831Y7428381D01*
G01X9558874Y7367419D01*
G01X9626043Y7304399D01*
G01X9626043Y7304399D01*
G01X9691538Y7239128D01*
G01X9755039Y7171916D01*
G01X9816489Y7102823D01*
G01X9875832Y7031913D01*
G01X9933015Y6959250D01*
G01X9933015Y6959250D01*
G01X9988680Y6884039D01*
G01X10042135Y6807242D01*
G01X10093335Y6728923D01*
G01X10142237Y6649149D01*
G01X10188799Y6567988D01*
G01X10188799Y6567988D01*
G01X10231809Y6487137D01*
G01X10271975Y6404836D01*
G01X10271975Y6404836D01*
G01X10271975Y6404836D01*
G01X10309486Y6320717D01*
G01X10344092Y6235360D01*
G01X10344092Y6235360D01*
G01X10382935Y6130548D01*
G01X10419016Y6024752D01*
G01X10419016Y6024752D01*
G01X10466844Y5875731D01*
G01X10513182Y5726239D01*
G01X10539748Y5639000D01*
G01X10539748Y5639000D01*
G01X10548712Y5603373D01*
G01X10554141Y5567038D01*
G01X10555982Y5530346D01*
G01X10557920Y3663927D01*
G01X10546249Y3674799D01*
G01X10532937Y3683584D01*
G01X10518351Y3690039D01*
G01X10502897Y3693985D01*
G01X10487003Y3695312D01*
G01X10427003Y3695312D01*
G01X10408310Y3693471D01*
G01X10390336Y3688019D01*
G01X10373771Y3679165D01*
G01X10359252Y3667249D01*
G01X10347336Y3652730D01*
G01X10338482Y3636165D01*
G01X10333030Y3618191D01*
G01X10331189Y3599499D01*
G01X10333030Y3580806D01*
G01X10338482Y3562832D01*
G01X10347336Y3546267D01*
G01X10359252Y3531748D01*
G01X10373771Y3519832D01*
G01X10390336Y3510978D01*
G01X10408310Y3505526D01*
G01X10427003Y3503685D01*
G01X10487003Y3503685D01*
G01X10502937Y3505019D01*
G01X10518427Y3508984D01*
G01X10533042Y3515470D01*
G01X10546374Y3524297D01*
G01X10558054Y3535218D01*
G01X10558819Y2797926D01*
G01X10547093Y2809130D01*
G01X10533645Y2818196D01*
G01X10518860Y2824864D01*
G01X10503163Y2828943D01*
G01X10487003Y2830315D01*
G01X10427003Y2830315D01*
G01X10408310Y2828474D01*
G01X10390336Y2823022D01*
G01X10373771Y2814168D01*
G01X10359252Y2802252D01*
G01X10347336Y2787733D01*
G01X10338482Y2771168D01*
G01X10333030Y2753194D01*
G01X10331189Y2734502D01*
G01X10333030Y2715809D01*
G01X10338482Y2697835D01*
G01X10347336Y2681270D01*
G01X10359252Y2666751D01*
G01X10373771Y2654835D01*
G01X10390336Y2645981D01*
G01X10408310Y2640529D01*
G01X10427003Y2638688D01*
G01X10487003Y2638688D01*
G01X10503202Y2640067D01*
G01X10518936Y2644166D01*
G01X10533749Y2650865D01*
G01X10547217Y2659973D01*
G01X10558951Y2671226D01*
G01X10560180Y1488252D01*
G01X10548357Y1500171D01*
G01X10534636Y1509845D01*
G01X10519437Y1516974D01*
G01X10503226Y1521341D01*
G01X10486503Y1522812D01*
G01X10426503Y1522812D01*
G01X10407810Y1520971D01*
G01X10389836Y1515519D01*
G01X10373271Y1506665D01*
G01X10358752Y1494749D01*
G01X10346836Y1480230D01*
G01X10337982Y1463665D01*
G01X10332530Y1445691D01*
G01X10330689Y1426998D01*
G01X10332530Y1408306D01*
G01X10337982Y1390332D01*
G01X10346836Y1373767D01*
G01X10358752Y1359248D01*
G01X10373271Y1347332D01*
G01X10389836Y1338478D01*
G01X10407810Y1333026D01*
G01X10426503Y1331185D01*
G01X10486503Y1331185D01*
G01X10503265Y1332662D01*
G01X10519511Y1337050D01*
G01X10534739Y1344212D01*
G01X10548479Y1353928D01*
G01X10560307Y1365898D01*
G01X10561079Y622156D01*
G01X10549220Y634436D01*
G01X10535370Y644416D01*
G01X10519969Y651780D01*
G01X10503506Y656295D01*
G01X10486503Y657815D01*
G01X10426503Y657815D01*
G01X10407810Y655974D01*
G01X10389836Y650522D01*
G01X10373271Y641668D01*
G01X10358752Y629752D01*
G01X10346836Y615233D01*
G01X10337982Y598668D01*
G01X10332530Y580694D01*
G01X10330689Y562001D01*
G01X10332530Y543309D01*
G01X10337982Y525335D01*
G01X10346836Y508770D01*
G01X10358752Y494251D01*
G01X10373271Y482335D01*
G01X10389836Y473481D01*
G01X10407810Y468029D01*
G01X10426503Y466188D01*
G01X10486503Y466188D01*
G01X10503545Y467715D01*
G01X10520044Y472250D01*
G01X10535473Y479647D01*
G01X10549341Y489671D01*
G01X10561204Y502001D01*
G01X10561972Y-237123D01*
G01X10561972Y-237123D01*
G01X10560202Y-273875D01*
G01X10554832Y-310275D01*
G01X10545915Y-345973D01*
G01X10533537Y-380623D01*
G01X10517816Y-413890D01*
G01X10498906Y-445453D01*
G01X10476989Y-475007D01*
G01X10452276Y-502267D01*
G01X10425006Y-526969D01*
G01X10395444Y-548875D01*
G01X10363873Y-567772D01*
G01X10330600Y-583479D01*
G01X10295945Y-595844D01*
G01X10260244Y-604747D01*
G01X10223841Y-610102D01*
G01X10187089Y-611857D01*
G01X7534573Y-608053D01*
G01X7534573Y-608053D01*
G01X7534573Y-608053D01*
G01X6148966Y-605419D01*
G01X6148966Y-605419D01*
G01X6148966Y-605419D01*
G01X5251976Y-601841D01*
G01X5251976Y-601841D01*
G01X5251976Y-601841D01*
G01X4727208Y-598063D01*
G01X4727208Y-598063D01*
G01X4724951Y-597955D01*
G01X4699574Y-597850D01*
G01X4699574Y-597850D01*
G01X4669899Y-595229D01*
G01X4640742Y-589115D01*
G01X4612513Y-579593D01*
G01X4585610Y-566797D01*
G01X4560410Y-550908D01*
G01X4537267Y-532148D01*
G01X4516507Y-510782D01*
G01X4498421Y-487109D01*
G01X4483264Y-461462D01*
G01X4478213Y-450003D01*
G01X6974887Y-450003D01*
G01X6974887Y-510003D01*
G01X6976729Y-528695D01*
G01X6982181Y-546669D01*
G01X6991035Y-563234D01*
G01X7002951Y-577753D01*
G01X7017470Y-589669D01*
G01X7034035Y-598523D01*
G01X7052009Y-603975D01*
G01X7070701Y-605816D01*
G01X7089394Y-603975D01*
G01X7107368Y-598523D01*
G01X7123933Y-589669D01*
G01X7138452Y-577753D01*
G01X7150368Y-563234D01*
G01X7159222Y-546669D01*
G01X7164674Y-528695D01*
G01X7166515Y-510003D01*
G01X7166515Y-450003D01*
G01X7839884Y-450003D01*
G01X7839884Y-510003D01*
G01X7841726Y-528695D01*
G01X7847178Y-546669D01*
G01X7856032Y-563234D01*
G01X7867948Y-577753D01*
G01X7882467Y-589669D01*
G01X7899032Y-598523D01*
G01X7917006Y-603975D01*
G01X7935698Y-605816D01*
G01X7954391Y-603975D01*
G01X7972365Y-598523D01*
G01X7988930Y-589669D01*
G01X8003449Y-577753D01*
G01X8015365Y-563234D01*
G01X8024219Y-546669D01*
G01X8029671Y-528695D01*
G01X8031512Y-510003D01*
G01X8031512Y-450003D01*
G01X8029671Y-431310D01*
G01X8024219Y-413336D01*
G01X8015365Y-396771D01*
G01X8003449Y-382252D01*
G01X7988930Y-370336D01*
G01X7972365Y-361482D01*
G01X7954391Y-356030D01*
G01X7935698Y-354189D01*
G01X7917006Y-356030D01*
G01X7899032Y-361482D01*
G01X7882467Y-370336D01*
G01X7867948Y-382252D01*
G01X7856032Y-396771D01*
G01X7847178Y-413336D01*
G01X7841726Y-431310D01*
G01X7839884Y-450003D01*
G01X7839884Y-450003D01*
G01X7166515Y-450003D01*
G01X7164674Y-431310D01*
G01X7159222Y-413336D01*
G01X7150368Y-396771D01*
G01X7138452Y-382252D01*
G01X7123933Y-370336D01*
G01X7107368Y-361482D01*
G01X7089394Y-356030D01*
G01X7070701Y-354189D01*
G01X7052009Y-356030D01*
G01X7034035Y-361482D01*
G01X7017470Y-370336D01*
G01X7002951Y-382252D01*
G01X6991035Y-396771D01*
G01X6982181Y-413336D01*
G01X6976729Y-431310D01*
G01X6974887Y-450003D01*
G01X6974887Y-450003D01*
G01X4478213Y-450003D01*
G01X4471248Y-434201D01*
G01X4462543Y-405710D01*
G01X4457270Y-376389D01*
G01X4455505Y-346651D01*
G37*
G54D10*
G01X4455505Y-346651D02*
G01X4455556Y303119D01*
G03X4507404Y287879I51848J80574D01*
G01X4697404Y287879D01*
G03X4697404Y479506I0J95814D01*
G01X4507404Y479506D01*
G03X4455569Y464274I0J-95814D01*
G01X4455658Y1593068D01*
G03X4507404Y1577894I51746J80639D01*
G01X4697404Y1577894D01*
G03X4697404Y1769521I0J95814D01*
G01X4507404Y1769521D01*
G03X4455671Y1754355I0J-95814D01*
G01X4455727Y2460376D01*
G03X4532804Y2421479I77077J56916D01*
G01X4722804Y2421479D01*
G03X4722804Y2613106I0J95814D01*
G01X4532804Y2613106D01*
G03X4458802Y2578152I0J-95814D01*
G01X4458802Y2578152D01*
G01X4460206Y3744779D01*
G01X4460206Y3744779D01*
G03X4532804Y3711494I72598J62529D01*
G01X4722804Y3711494D01*
G03X4722804Y3903121I0J95814D01*
G01X4532804Y3903121D01*
G03X4460376Y3870033I0J-95814D01*
G01X4460376Y3870033D01*
G01X4461207Y4447476D01*
G01X4461207Y4447476D01*
G01X4464456Y5150811D01*
G01X4464456Y5150811D01*
G01X4473588Y5590479D01*
G03X4486510Y5654286I-1697710J377033D01*
G03X4503589Y5711274I-3954205J1216092D01*
G01X4503589Y5711274D01*
G03X4523091Y5780147I-4301138J1255110D01*
G01X4523091Y5780147D01*
G03X4542228Y5851840I-5001133J1373354D01*
G02X4586254Y6008916I4028646J-1044468D01*
G01X4586254Y6008916D01*
G02X4630443Y6140456I2128512J-641851D01*
G02X4682978Y6269613I2108115J-782224D01*
G02X4752820Y6419388I3972320J-1761149D01*
G02X4900356Y6687828I2916067J-1427924D01*
G02X5071834Y6939765I2714156J-1663034D01*
G02X5265719Y7172949I2517781J-1896257D01*
G02X5480239Y7385275I2281537J-2090582D01*
G02X5826953Y7655958I2143073J-2387645D01*
G02X6197470Y7867817I1598120J-2364996D01*
G02X6605419Y8026954I1297184J-2722895D01*
G02X7064489Y8139820I1198090J-3883048D01*
G03X7119619Y8150561I-536790J2901998D01*
G03X7167245Y8161046I-330451J1614339D01*
G03X7207290Y8170730I-814205J3454602D01*
G01X7207290Y8170730D01*
G03X7228453Y8186167I-8357J33682D01*
G03X7222823Y8232833I-32045J19807D01*
G03X7134514Y8318644I-7157003J-7277003D01*
G03X7045590Y8400591I-2050395J-2135743D01*
G03X6971513Y8460657I-737504J-833824D01*
G03X6886800Y8519959I-1111815J-1498087D01*
G03X6794952Y8577430I-1246666J-1890251D01*
G03X6691380Y8635863I-1410048J-2378254D01*
G03X6571332Y8698006I-2201297J-4105471D01*
G02X6461448Y8756451I1083508J2169672D01*
G01X6461448Y8756451D01*
G02X6406441Y8796412I147312J260615D01*
G02X6382093Y8830056I69854J76186D01*
G02X6373635Y8869340I86992J39282D01*
G02X6382485Y8922319I162989J0D01*
G02X6407195Y8965436I124826J-42898D01*
G02X6443269Y8993241I85152J-73171D01*
G02X6484671Y9002771I41402J-85173D01*
G02X6627743Y8971968I-1J-347676D01*
G02X6865647Y8850592I-1153571J-2554909D01*
G02X7119735Y8688049I-1507240J-2635996D01*
G02X7342025Y8509331I-1418051J-1991370D01*
G03X7374746Y8480040I2726376J3012748D01*
G03X7403251Y8455231I1458302J1646767D01*
G01X7428099Y8434076D01*
G01X7428099Y8434076D01*
G03X7448004Y8426773I19912J23495D01*
G03X7473599Y8442284I10J28856D01*
G01X7473599Y8442284D01*
G01X7501343Y8495593D01*
G01X7501343Y8495593D01*
G03X7532379Y8556323I-4702413J2441480D01*
G01X7532379Y8556323D01*
G01X7568222Y8628276D01*
G01X7568222Y8628276D01*
G02X7674437Y8827557I3215931J-1586120D01*
G02X7776761Y8985829I1550826J-890404D01*
G02X7871697Y9101035I966334J-699590D01*
G02X7949194Y9158852I199465J-186514D01*
G02X8023715Y9170763I56207J-112586D01*
G02X8095443Y9137900I-20528J-139516D01*
G02X8136974Y9072803I-88384J-102183D01*
G02X8133889Y9000515I-110357J-31500D01*
G02X8128715Y8990570I-45153J17171D01*
G02X8108753Y8962136I-884490J599763D01*
G02X8083818Y8929121I-909243J660781D01*
G02X8056045Y8894820I-1128168J885072D01*
G03X7975535Y8792183I1622300J-1355440D01*
G03X7904485Y8688275I1468111J-1080115D01*
G03X7848047Y8595393I2388107J-1514667D01*
G03X7855119Y8541001I38860J-22603D01*
G03X7889827Y8535239I21383J21384D01*
G03X7921896Y8551309I-955307J1946368D01*
G03X7959959Y8571755I-487576J953348D01*
G03X8003433Y8596970I-991313J1759216D01*
G02X8121463Y8663761I1506895J-2525246D01*
G02X8261260Y8735996I2480823J-4629744D01*
G02X8403532Y8804194I2350019J-4720051D01*
G02X8529175Y8858721I1270967J-2756566D01*
G02X8713091Y8926292I1062005J-2606534D01*
G02X8878966Y8971626I531634J-1619062D01*
G02X9039070Y8997836I322311J-1466767D01*
G02X9205126Y9007455I178413J-1641786D01*
G02X9310621Y9004524I11184J-1497057D01*
G02X9381633Y8993326I-24280J-384740D01*
G02X9429501Y8973990I-47726J-187072D01*
G02X9461125Y8946745I-53838J-94468D01*
G02X9478026Y8905990I-64214J-50510D01*
G02X9474707Y8847387I-166179J-19983D01*
G02X9451424Y8793767I-161647J38325D01*
G02X9418406Y8765626I-65744J43696D01*
G02X9405408Y8761595I-22306J48950D01*
G02X9361321Y8754509I-265799J1513224D01*
G02X9308382Y8747729I-221807J1521755D01*
G01X9308382Y8747729D01*
G02X9250976Y8742192I-227393J2057139D01*
G03X9095598Y8727074I433092J-5257219D01*
G03X8969180Y8709369I260549J-2320524D01*
G03X8862405Y8687787I273723J-1629139D01*
G03X8767194Y8660681I253876J-1072540D01*
G03X8652279Y8616370I426431J-1277047D01*
G03X8490762Y8542483I2338443J-5325339D01*
G03X8327425Y8461557I2499404J-5249966D01*
G03X8202958Y8392144I987405J-1916849D01*
G03X8100591Y8329217I3293106J-5471779D01*
G03X8004158Y8267208I2807155J-4471557D01*
G01X8004158Y8267208D01*
G01X7915281Y8208426D01*
G01X7915281Y8208426D01*
G03X7910729Y8162834I16380J-24659D01*
G03X7926744Y8153897I23759J23758D01*
G01X7926744Y8153897D01*
G01X7967186Y8144387D01*
G01X7967186Y8144387D01*
G03X8013777Y8133828I831290J3559839D01*
G01X8013777Y8133828D01*
G01X8068116Y8122122D01*
G01X8068116Y8122122D01*
G02X8277277Y8070867I-690350J-3269575D01*
G02X8480552Y8006706I-864380J-3092629D01*
G02X8679681Y7929005I-1073633J-3045468D01*
G02X8876422Y7837159I-1352966J-3154802D01*
G02X9272101Y7598371I-1400092J-2767212D01*
G02X9626043Y7304399I-1765079J-2485214D01*
G02X9933015Y6959250I-2136058J-2208869D01*
G02X10188799Y6567988I-2558970J-1952142D01*
G02X10271975Y6404836I-2297541J-1274077D01*
G01X10271975Y6404836D01*
G02X10344092Y6235360I-2434282J-1135953D01*
G02X10419016Y6024752I-3975565J-1532927D01*
G02X10513182Y5726239I-14896159J-4863124D01*
G01X10539748Y5639000D01*
G02X10555982Y5530346I-358112J-109043D01*
G01X10557920Y3663927D01*
G03X10487003Y3695312I-70917J-64428D01*
G01X10427003Y3695312D01*
G03X10427003Y3503685I0J-95814D01*
G01X10487003Y3503685D01*
G03X10558054Y3535218I0J95814D01*
G01X10558819Y2797926D01*
G03X10487003Y2830315I-71817J-63424D01*
G01X10427003Y2830315D01*
G03X10427003Y2638688I0J-95814D01*
G01X10487003Y2638688D01*
G03X10558951Y2671226I0J95814D01*
G01X10560180Y1488252D01*
G03X10486503Y1522812I-73677J-61253D01*
G01X10426503Y1522812D01*
G03X10426503Y1331185I0J-95814D01*
G01X10486503Y1331185D01*
G03X10560307Y1365898I0J95814D01*
G01X10561079Y622156D01*
G03X10486503Y657815I-74577J-60155D01*
G01X10426503Y657815D01*
G03X10426503Y466188I0J-95814D01*
G01X10486503Y466188D01*
G03X10561204Y502001I0J95814D01*
G01X10561972Y-237123D01*
G02X10187089Y-611857I-374346J-389D01*
G01X7534573Y-608053D01*
G01X7534573Y-608053D01*
G01X6148966Y-605419D01*
G01X6148966Y-605419D01*
G01X5251976Y-601841D01*
G01X5251976Y-601841D01*
G01X4727208Y-598063D01*
G01X4727208Y-598063D01*
G01X4724951Y-597955D01*
G01X4699574Y-597850D01*
G02X4455505Y-346651I7234J251200D01*
G01X6974887Y-450003D02*
G01X6974887Y-510003D01*
G03X7166515Y-510003I95814J0D01*
G01X7166515Y-450003D01*
G03X6974887Y-450003I-95814J0D01*
G01X7161515Y-14988D02*
G03X6979887Y-14988I-90814J0D01*
G01X6979887Y-104988D01*
G03X7151901Y-145655I90814J0D01*
G03X7284532Y-120359I62311J33648D01*
G03X7161515Y-64701I-70321J8352D01*
G01X7161515Y-14988D01*
G01X7927816Y2192909D02*
G03X7832584Y2146857I-30216J-59007D01*
G03X7777151Y2104286I6596J-65965D01*
G03X7790666Y2035712I62029J-23394D01*
G01X7790666Y281675D01*
G01X7428043Y-80948D01*
G03X7383523Y-194077I2357J-66252D01*
G03X7496652Y-149557I46877J46877D01*
G01X7512745Y-133465D01*
G03X7569523Y-213000I64855J-13736D01*
G03X7643852Y-149557I8077J65800D01*
G01X7931904Y138495D01*
G03X7946114Y172800I-34305J34305D01*
G01X7946114Y2088721D01*
G03X7927816Y2192909I-48514J45181D01*
G01X7390686Y8255000D02*
G03X7747714Y8255000I178514J-85D01*
G03X7390686Y8255000I-178514J85D01*
G01X7721893Y-120364D02*
G03X7854511Y-145680I70320J8357D01*
G03X8026512Y-104988I81187J40692D01*
G01X8026512Y-14988D01*
G03X7844884Y-14988I-90814J0D01*
G01X7844884Y-64673D01*
G03X7721893Y-120364I-52671J-47335D01*
G01X7839884Y-450003D02*
G01X7839884Y-510003D01*
G03X8031512Y-510003I95814J0D01*
G01X8031512Y-450003D01*
G03X7839884Y-450003I-95814J0D01*
G01X10081488Y1517812D02*
G01X9991488Y1517812D01*
G03X9991488Y1336185I0J-90814D01*
G01X10041173Y1336185D01*
G03X10096864Y1213193I47335J-52671D01*
G03X10122180Y1345811I-8357J70320D01*
G03X10081488Y1517812I-40692J81187D01*
G01X9991488Y652815D02*
G03X9991488Y471188I0J-90814D01*
G01X10081488Y471188D01*
G03X10122155Y643201I0J90814D01*
G03X10096859Y775832I-33648J62311D01*
G03X10041201Y652815I-8352J-70321D01*
G01X9991488Y652815D01*
G01X9991988Y2825315D02*
G03X9991988Y2643688I0J-90814D01*
G01X10081988Y2643688D01*
G03X10122655Y2815701I0J90814D01*
G03X10097359Y2948333I-33648J62311D01*
G03X10041701Y2825315I-8352J-70321D01*
G01X9991988Y2825315D01*
G01X10081988Y3690312D02*
G01X9991988Y3690312D01*
G03X9991988Y3508685I0J-90814D01*
G01X10041673Y3508685D01*
G03X10097364Y3385694I47335J-52671D01*
G03X10122680Y3518311I-8357J70320D01*
G03X10081988Y3690312I-40692J81187D01*
G54D11*
G01X7070701Y-480003D02*
G01X6985047Y-480003D01*
G01X7070701Y-480003D02*
G01X7156355Y-480003D01*
G01X7070701Y-480003D02*
G01X7070701Y-364349D01*
G01X7070701Y-480003D02*
G01X7070701Y-595656D01*
G01X7070701Y-59988D02*
G01X6990047Y-59988D01*
G01X7070701Y-59988D02*
G01X7151355Y-59988D01*
G01X7070701Y-59988D02*
G01X7070701Y65666D01*
G01X7070701Y-59988D02*
G01X7070701Y-185642D01*
G01X7935698Y-59988D02*
G01X7855044Y-59988D01*
G01X7935698Y-59988D02*
G01X8016352Y-59988D01*
G01X7935698Y-59988D02*
G01X7935698Y65666D01*
G01X7935698Y-59988D02*
G01X7935698Y-185642D01*
G01X7935698Y-480003D02*
G01X7850044Y-480003D01*
G01X7935698Y-480003D02*
G01X8021352Y-480003D01*
G01X7935698Y-480003D02*
G01X7935698Y-364349D01*
G01X7935698Y-480003D02*
G01X7935698Y-595656D01*
G01X4627804Y2517292D02*
G01X4627804Y2602946D01*
G01X4627804Y2517292D02*
G01X4627804Y2431639D01*
G01X4627804Y2517292D02*
G01X4808457Y2517292D01*
G01X4627804Y3807308D02*
G01X4627804Y3892961D01*
G01X4627804Y3807308D02*
G01X4627804Y3721654D01*
G01X4627804Y3807308D02*
G01X4808457Y3807308D01*
G01X4602404Y383692D02*
G01X4602404Y469346D01*
G01X4602404Y383692D02*
G01X4602404Y298039D01*
G01X4602404Y383692D02*
G01X4783057Y383692D01*
G01X4602404Y1673708D02*
G01X4602404Y1759361D01*
G01X4602404Y1673708D02*
G01X4602404Y1588054D01*
G01X4602404Y1673708D02*
G01X4783057Y1673708D01*
G01X10036988Y2734502D02*
G01X10036988Y2653848D01*
G01X10036988Y2734502D02*
G01X10036988Y2815155D01*
G01X10036988Y2734502D02*
G01X9911335Y2734502D01*
G01X10036988Y2734502D02*
G01X10162642Y2734502D01*
G01X10036988Y3599499D02*
G01X10036988Y3518845D01*
G01X10036988Y3599499D02*
G01X10036988Y3680152D01*
G01X10036988Y3599499D02*
G01X9911335Y3599499D01*
G01X10036988Y3599499D02*
G01X10162642Y3599499D01*
G01X10457003Y2734502D02*
G01X10457003Y2648848D01*
G01X10457003Y2734502D02*
G01X10457003Y2820155D01*
G01X10457003Y2734502D02*
G01X10341349Y2734502D01*
G01X10457003Y3599499D02*
G01X10457003Y3513845D01*
G01X10457003Y3599499D02*
G01X10457003Y3685152D01*
G01X10457003Y3599499D02*
G01X10341349Y3599499D01*
G01X10036488Y562001D02*
G01X10036488Y481348D01*
G01X10036488Y562001D02*
G01X10036488Y642655D01*
G01X10036488Y562001D02*
G01X9910834Y562001D01*
G01X10036488Y562001D02*
G01X10162142Y562001D01*
G01X10036488Y1426998D02*
G01X10036488Y1346345D01*
G01X10036488Y1426998D02*
G01X10036488Y1507652D01*
G01X10036488Y1426998D02*
G01X9910834Y1426998D01*
G01X10036488Y1426998D02*
G01X10162142Y1426998D01*
G01X10456503Y562001D02*
G01X10456503Y476348D01*
G01X10456503Y562001D02*
G01X10456503Y647655D01*
G01X10456503Y562001D02*
G01X10340849Y562001D01*
G01X10456503Y1426998D02*
G01X10456503Y1341345D01*
G01X10456503Y1426998D02*
G01X10456503Y1512652D01*
G01X10456503Y1426998D02*
G01X10340849Y1426998D01*
G04 Copper End*

G04 Pad Start*
G54D12*
G01X10036988Y2734502D03*
G01X10036988Y3599499D03*
G54D13*
G01X10457003Y2734502D03*
G01X10457003Y3599499D03*
G54D12*
G01X10036488Y562001D03*
G01X10036488Y1426998D03*
G54D13*
G01X10456503Y562001D03*
G01X10456503Y1426998D03*
G54D14*
G01X4602404Y383692D03*
G01X4602404Y1673708D03*
G01X4627804Y2517292D03*
G01X4627804Y3807308D03*
G54D15*
G01X7070701Y-59988D03*
G01X7935698Y-59988D03*
G54D17*
G01X7070701Y-480003D03*
G01X7935698Y-480003D03*
G04 Pad End*

G04 Via Start*
G54D18*
G01X7897600Y2133902D03*
G01X7577600Y-147200D03*
G01X7839180Y2080892D03*
G01X7430400Y-147200D03*
G01X9529600Y2867200D03*
G01X9516800Y697600D03*
G01X8364800Y2336000D03*
G01X8288000Y2476800D03*
G01X7782400Y2571051D03*
G01X6041600Y1376000D03*
G01X5708800Y678713D03*
G01X6048000Y3513600D03*
G01X5734400Y2812313D03*
G01X7680000Y448000D03*
G01X7379200Y448000D03*
G04 Via End*

G04 Track Start*
G54D11*
G01X7897600Y2133902D02*
G01X7897600Y172800D01*
G01X7577600Y-147200D01*
G01X7839180Y2080892D02*
G01X7839180Y261580D01*
G01X7430400Y-147200D01*
G04 Track End*

M02*

