G04 Layer: TopAssemblyLayer*
G04 EasyEDA Pro v3.2.148, 2026-07-23 02:23:22*
G04 Gerber Generator version 0.3*
G04 Scale: 100 percent, Rotated: No, Reflected: No*
G04 Dimensions in millimeters*
G04 Leading zeros omitted, absolute positions, 4 integers and 5 decimals*
G04 Generated by one-click*
G04 Object Configs: Pad,Via,Track,Text,Image,Dimension,BoardOutline,BoardCutout,CopperFilled,SolidRegion,FPCStiffener,Line,PlaneZone,ComponentProperty,ComponentSilkscreen,TearDrop*
G04 Layer Configs: 1,2,3,4,5,6,7,8,9,10,11,13,14,56*
G04 Copper Areas: 0*
%FSLAX45Y45*%
%MOMM*%
%ADD10C,0.254*%
%ADD11C,0.1524*%
%ADD12C,0.0236*%
G75*


G04 PolygonModel Start*
G54D10*
G01X7095181Y2117843D02*
G01X7015184Y2117843D01*
G01X7151226Y2117797D02*
G01X7231224Y2117797D01*
G01X7095181Y2259811D02*
G01X7015184Y2259811D01*
G01X7151226Y2259763D02*
G01X7231224Y2259763D01*
G01X6984209Y2148826D02*
G01X6984209Y2228830D01*
G01X7262201Y2228777D02*
G01X7262201Y2148775D01*
G01X7231218Y2259763D02*
G02X7262201Y2228777I0J-30983D01*
G01X7262201Y2148780D02*
G02X7231218Y2117797I-30983J0D01*
G01X7015189Y2117843D02*
G02X6984209Y2148826I3J30983D01*
G01X6984209Y2228823D02*
G02X7015189Y2259811I30983J5D01*
G01X7541619Y2694958D02*
G01X7621616Y2694958D01*
G01X7485574Y2695003D02*
G01X7405576Y2695003D01*
G01X7541619Y2552989D02*
G01X7621616Y2552989D01*
G01X7485574Y2553038D02*
G01X7405576Y2553038D01*
G01X7652591Y2663975D02*
G01X7652591Y2583970D01*
G01X7374598Y2584023D02*
G01X7374598Y2664025D01*
G01X7405581Y2553038D02*
G02X7374598Y2584023I0J30983D01*
G01X7374598Y2664020D02*
G02X7405581Y2695003I30983J0D01*
G01X7621611Y2694958D02*
G02X7652591Y2663975I-3J-30983D01*
G01X7652591Y2583977D02*
G02X7621611Y2552989I-30983J-5D01*
G01X8066419Y2547757D02*
G01X8146416Y2547757D01*
G01X8010374Y2547803D02*
G01X7930376Y2547803D01*
G01X8066419Y2405789D02*
G01X8146416Y2405789D01*
G01X8010374Y2405837D02*
G01X7930376Y2405837D01*
G01X8177391Y2516774D02*
G01X8177391Y2436770D01*
G01X7899398Y2436823D02*
G01X7899398Y2516825D01*
G01X7930381Y2405837D02*
G02X7899398Y2436823I0J30983D01*
G01X7899398Y2516820D02*
G02X7930381Y2547803I30983J0D01*
G01X8146411Y2547757D02*
G02X8177391Y2516774I-3J-30983D01*
G01X8177391Y2436777D02*
G02X8146411Y2405789I-30983J-5D01*
G01X9719181Y626643D02*
G01X9639184Y626643D01*
G01X9775226Y626597D02*
G01X9855224Y626597D01*
G01X9719181Y768611D02*
G01X9639184Y768611D01*
G01X9775226Y768563D02*
G01X9855224Y768563D01*
G01X9608209Y657626D02*
G01X9608209Y737630D01*
G01X9886201Y737577D02*
G01X9886201Y657575D01*
G01X9855219Y768563D02*
G02X9886201Y737577I0J-30983D01*
G01X9886201Y657580D02*
G02X9855219Y626597I-30983J0D01*
G01X9639189Y626643D02*
G02X9608209Y657626I3J30983D01*
G01X9608209Y737623D02*
G02X9639189Y768611I30983J5D01*
G54D11*
G01X7390080Y2328839D02*
G01X7531081Y2328839D01*
G01X7531081Y2509560D02*
G01X7390080Y2509560D01*
G01X7374840Y2494320D02*
G01X7374840Y2344079D01*
G01X7752320Y2328839D02*
G01X7611319Y2328839D01*
G01X7611319Y2509560D02*
G01X7752320Y2509560D01*
G01X7767560Y2494320D02*
G01X7767560Y2344079D01*
G01X7390080Y2509560D02*
G03X7374840Y2494320I0J-15240D01*
G01X7374840Y2344079D02*
G03X7390080Y2328839I15240J0D01*
G01X7752320Y2509560D02*
G02X7767560Y2494320I0J-15240D01*
G01X7767560Y2344079D02*
G02X7752320Y2328839I-15240J0D01*
G54D10*
G01X7964019Y230957D02*
G01X8044016Y230957D01*
G01X7907974Y231003D02*
G01X7827976Y231003D01*
G01X7964019Y88989D02*
G01X8044016Y88989D01*
G01X7907974Y89037D02*
G01X7827976Y89037D01*
G01X8074991Y199974D02*
G01X8074991Y119970D01*
G01X7796998Y120023D02*
G01X7796998Y200025D01*
G01X7827981Y89037D02*
G02X7796998Y120023I0J30983D01*
G01X7796998Y200020D02*
G02X7827981Y231003I30983J0D01*
G01X8044011Y230957D02*
G02X8074991Y199974I-3J-30983D01*
G01X8074991Y119977D02*
G02X8044011Y88989I-30983J-5D01*
G54D11*
G01X7889280Y2188040D02*
G01X8030281Y2188040D01*
G01X8030281Y2368761D02*
G01X7889280Y2368761D01*
G01X7874040Y2353521D02*
G01X7874040Y2203280D01*
G01X8251520Y2188040D02*
G01X8110519Y2188040D01*
G01X8110519Y2368761D02*
G01X8251520Y2368761D01*
G01X8266760Y2353521D02*
G01X8266760Y2203280D01*
G01X7889280Y2368761D02*
G03X7874040Y2353521I0J-15240D01*
G01X7874040Y2203280D02*
G03X7889280Y2188040I15240J0D01*
G01X8251520Y2368761D02*
G02X8266760Y2353521I0J-15240D01*
G01X8266760Y2203280D02*
G02X8251520Y2188040I-15240J0D01*
G54D10*
G01X5839219Y1446957D02*
G01X5919216Y1446957D01*
G01X5783174Y1447003D02*
G01X5703176Y1447003D01*
G01X5839219Y1304989D02*
G01X5919216Y1304989D01*
G01X5783174Y1305038D02*
G01X5703176Y1305038D01*
G01X5950191Y1415975D02*
G01X5950191Y1335970D01*
G01X5672198Y1336023D02*
G01X5672198Y1416025D01*
G01X5703181Y1305038D02*
G02X5672198Y1336023I0J30983D01*
G01X5672198Y1416020D02*
G02X5703181Y1447003I30983J0D01*
G01X5919211Y1446957D02*
G02X5950191Y1415975I-3J-30983D01*
G01X5950191Y1335977D02*
G02X5919211Y1304989I-30983J-5D01*
G01X5871219Y3584557D02*
G01X5951216Y3584557D01*
G01X5815174Y3584603D02*
G01X5735176Y3584603D01*
G01X5871219Y3442589D02*
G01X5951216Y3442589D01*
G01X5815174Y3442638D02*
G01X5735176Y3442638D01*
G01X5982191Y3553575D02*
G01X5982191Y3473570D01*
G01X5704198Y3473623D02*
G01X5704198Y3553625D01*
G01X5735181Y3442638D02*
G02X5704198Y3473623I0J30983D01*
G01X5704198Y3553620D02*
G02X5735181Y3584603I30983J0D01*
G01X5951211Y3584557D02*
G02X5982191Y3553575I-3J-30983D01*
G01X5982191Y3473577D02*
G02X5951211Y3442589I-30983J-5D01*
G01X9712781Y2796243D02*
G01X9632784Y2796243D01*
G01X9768826Y2796197D02*
G01X9848824Y2796197D01*
G01X9712781Y2938211D02*
G01X9632784Y2938211D01*
G01X9768826Y2938163D02*
G01X9848824Y2938163D01*
G01X9601809Y2827225D02*
G01X9601809Y2907230D01*
G01X9879801Y2907177D02*
G01X9879801Y2827175D01*
G01X9848819Y2938163D02*
G02X9879801Y2907177I0J-30983D01*
G01X9879801Y2827180D02*
G02X9848819Y2796197I-30983J0D01*
G01X9632789Y2796243D02*
G02X9601809Y2827225I3J30983D01*
G01X9601809Y2907223D02*
G02X9632789Y2938211I30983J5D01*
G54D11*
G01X7265920Y2471160D02*
G01X7124919Y2471160D01*
G01X7124919Y2290439D02*
G01X7265920Y2290439D01*
G01X7281160Y2305679D02*
G01X7281160Y2455920D01*
G01X6903680Y2471160D02*
G01X7044681Y2471160D01*
G01X7044681Y2290439D02*
G01X6903680Y2290439D01*
G01X6888440Y2305679D02*
G01X6888440Y2455920D01*
G01X7265920Y2290439D02*
G03X7281160Y2305679I0J15240D01*
G01X7281160Y2455920D02*
G03X7265920Y2471160I-15240J0D01*
G01X6903680Y2290439D02*
G02X6888440Y2305679I0J15240D01*
G01X6888440Y2455920D02*
G02X6903680Y2471160I15240J0D01*
G01X9704579Y3106060D02*
G01X9608691Y3106060D01*
G01X9608691Y3106060D02*
G01X9608691Y2973940D01*
G01X9608691Y2973940D02*
G01X9704579Y2973940D01*
G01X9789821Y3106060D02*
G01X9885709Y3106060D01*
G01X9885709Y3106060D02*
G01X9885709Y2973940D01*
G01X9885709Y2973940D02*
G01X9789821Y2973940D01*
G01X9698179Y936460D02*
G01X9602291Y936460D01*
G01X9602291Y936460D02*
G01X9602291Y804340D01*
G01X9602291Y804340D02*
G01X9698179Y804340D01*
G01X9783421Y936460D02*
G01X9879309Y936460D01*
G01X9879309Y936460D02*
G01X9879309Y804340D01*
G01X9879309Y804340D02*
G01X9783421Y804340D01*
G01X9704579Y3406860D02*
G01X9608691Y3406860D01*
G01X9608691Y3406860D02*
G01X9608691Y3274740D01*
G01X9608691Y3274740D02*
G01X9704579Y3274740D01*
G01X9789821Y3406860D02*
G01X9885709Y3406860D01*
G01X9885709Y3406860D02*
G01X9885709Y3274740D01*
G01X9885709Y3274740D02*
G01X9789821Y3274740D01*
G01X9789821Y1105140D02*
G01X9885709Y1105140D01*
G01X9885709Y1105140D02*
G01X9885709Y1237260D01*
G01X9885709Y1237260D02*
G01X9789821Y1237260D01*
G01X9704579Y1105140D02*
G01X9608691Y1105140D01*
G01X9608691Y1105140D02*
G01X9608691Y1237260D01*
G01X9608691Y1237260D02*
G01X9704579Y1237260D01*
G01X7746060Y266621D02*
G01X7746060Y362509D01*
G01X7746060Y362509D02*
G01X7613940Y362509D01*
G01X7613940Y362509D02*
G01X7613940Y266621D01*
G01X7746060Y181379D02*
G01X7746060Y85491D01*
G01X7746060Y85491D02*
G01X7613940Y85491D01*
G01X7613940Y85491D02*
G01X7613940Y181379D01*
G01X7445260Y266621D02*
G01X7445260Y362509D01*
G01X7445260Y362509D02*
G01X7313140Y362509D01*
G01X7313140Y362509D02*
G01X7313140Y266621D01*
G01X7445260Y181379D02*
G01X7445260Y85491D01*
G01X7445260Y85491D02*
G01X7313140Y85491D01*
G01X7313140Y85491D02*
G01X7313140Y181379D01*
G54D10*
G01X10359195Y3624208D02*
G01X10159800Y3624208D01*
G01X10702097Y3624208D02*
G01X10554800Y3624208D01*
G01X10358883Y2717009D02*
G01X10160110Y2717009D01*
G01X10716997Y2717009D02*
G01X10555113Y2717009D01*
G01X10716997Y3617007D02*
G01X10716997Y2717009D01*
G01X10358695Y1451708D02*
G01X10159300Y1451708D01*
G01X10701597Y1451708D02*
G01X10554300Y1451708D01*
G01X10358382Y544508D02*
G01X10159610Y544508D01*
G01X10716497Y544508D02*
G01X10554613Y544508D01*
G01X10716497Y1444507D02*
G01X10716497Y544508D01*
G01X4779076Y368300D02*
G01X5346700Y368300D01*
G01X5346700Y368300D02*
G01X5346700Y599587D01*
G01X4425732Y1689100D02*
G01X4343400Y1689100D01*
G01X4343400Y1689100D02*
G01X4343400Y368300D01*
G01X4343400Y368300D02*
G01X4425732Y368300D01*
G01X5346697Y1457813D02*
G01X5346697Y1689100D01*
G01X5346697Y1689100D02*
G01X4779076Y1689100D01*
G01X5346697Y849587D02*
G01X5346697Y757814D01*
G01X5346697Y1049586D02*
G01X5346697Y1007814D01*
G01X5346697Y1299586D02*
G01X5346697Y1207813D01*
G01X4754857Y770893D02*
G01X4754857Y567891D01*
G01X4875873Y784890D02*
G01X4875873Y558876D01*
G01X4764766Y1458999D02*
G01X4764766Y1256005D01*
G01X4885764Y1472997D02*
G01X4885764Y1246988D01*
G01X5112291Y1178179D02*
G01X4538238Y1213736D01*
G01X4538238Y1213736D02*
G01X4538238Y1503302D01*
G01X4538238Y1503302D02*
G01X5112291Y1551559D01*
G01X5112291Y1551559D02*
G01X5112291Y1500759D01*
G01X5112291Y1500759D02*
G01X4598774Y1450238D01*
G01X4598774Y1450238D02*
G01X4598774Y1275210D01*
G01X4598774Y1275210D02*
G01X5112291Y1216279D01*
G01X5112291Y1216279D02*
G01X5112291Y1178179D01*
G01X5105397Y495300D02*
G01X4531738Y530101D01*
G01X4531738Y530101D02*
G01X4532234Y818624D01*
G01X4532234Y818624D02*
G01X5105738Y868121D01*
G01X5105738Y868121D02*
G01X5105347Y817248D01*
G01X5105347Y817248D02*
G01X4651322Y766216D01*
G01X4651322Y766216D02*
G01X4583499Y758701D01*
G01X4583499Y758701D02*
G01X4584578Y583717D01*
G01X4584578Y583717D02*
G01X5062398Y536321D01*
G01X5062398Y536321D02*
G01X5105397Y533326D01*
G01X5105397Y533326D02*
G01X5105397Y495300D01*
G01X4804476Y2501900D02*
G01X5372100Y2501900D01*
G01X5372100Y2501900D02*
G01X5372100Y2733187D01*
G01X4451132Y3822700D02*
G01X4368800Y3822700D01*
G01X4368800Y3822700D02*
G01X4368800Y2501900D01*
G01X4368800Y2501900D02*
G01X4451132Y2501900D01*
G01X5372097Y3591413D02*
G01X5372097Y3822700D01*
G01X5372097Y3822700D02*
G01X4804476Y3822700D01*
G01X5372097Y2983187D02*
G01X5372097Y2891414D01*
G01X5372097Y3183186D02*
G01X5372097Y3141414D01*
G01X5372097Y3433186D02*
G01X5372097Y3341413D01*
G01X4780257Y2904493D02*
G01X4780257Y2701491D01*
G01X4901273Y2918490D02*
G01X4901273Y2692476D01*
G01X4790166Y3592599D02*
G01X4790166Y3389605D01*
G01X4911164Y3606597D02*
G01X4911164Y3380588D01*
G01X5137691Y3311779D02*
G01X4563638Y3347336D01*
G01X4563638Y3347336D02*
G01X4563638Y3636902D01*
G01X4563638Y3636902D02*
G01X5137691Y3685159D01*
G01X5137691Y3685159D02*
G01X5137691Y3634359D01*
G01X5137691Y3634359D02*
G01X4624174Y3583838D01*
G01X4624174Y3583838D02*
G01X4624174Y3408810D01*
G01X4624174Y3408810D02*
G01X5137691Y3349879D01*
G01X5137691Y3349879D02*
G01X5137691Y3311779D01*
G01X5130797Y2628900D02*
G01X4557138Y2663701D01*
G01X4557138Y2663701D02*
G01X4557634Y2952224D01*
G01X4557634Y2952224D02*
G01X5131138Y3001721D01*
G01X5131138Y3001721D02*
G01X5130747Y2950848D01*
G01X5130747Y2950848D02*
G01X4676722Y2899816D01*
G01X4676722Y2899816D02*
G01X4608899Y2892301D01*
G01X4608899Y2892301D02*
G01X4609978Y2717317D01*
G01X4609978Y2717317D02*
G01X5087798Y2669921D01*
G01X5087798Y2669921D02*
G01X5130797Y2666926D01*
G01X5130797Y2666926D02*
G01X5130797Y2628900D01*
G01X7960407Y-382195D02*
G01X7960407Y-182800D01*
G01X7960407Y-725097D02*
G01X7960407Y-577800D01*
G01X7053208Y-381882D02*
G01X7053208Y-183110D01*
G01X7053208Y-739997D02*
G01X7053208Y-578113D01*
G01X7953207Y-739997D02*
G01X7053208Y-739997D01*

M02*

